<svg width="175" height="36" viewBox="0 0 175 36" fill="none" xmlns="http://www.w3.org/2000/svg">
<path d="M56.0854 10.4849C54.6257 10.4849 53.4332 11.6773 53.4332 13.137V25.452C53.4332 26.7472 52.9604 27.8779 52.0558 28.7825C51.1306 29.7077 50.0204 30.16 48.7252 30.16C47.4711 30.16 46.3814 29.7283 45.4768 28.8648C44.5722 28.0013 44.0994 26.9322 44.0583 25.7192V13.1576C44.0583 12.5203 43.8527 11.9446 43.4209 11.4306C43.3181 11.3073 43.2153 11.2045 43.092 11.1017C42.578 10.6699 42.0024 10.4644 41.365 10.4644C39.9053 10.4644 38.7129 11.6568 38.7129 13.1165V25.7398C38.754 28.4125 39.7614 30.7357 41.7145 32.6271C43.6676 34.5185 46.0319 35.4848 48.7252 35.4848C50.555 35.4848 52.2408 35.0325 53.7622 34.1279C53.9472 34.498 54.235 34.8064 54.5845 35.0531C55.0368 35.3615 55.5919 35.5259 56.1882 35.5259C57.6067 35.5259 58.7375 34.3746 58.7375 32.9766V13.1576C58.7375 11.6773 57.5451 10.4849 56.0854 10.4849Z" fill="url(#paint0_linear)"/>
<path d="M75.74 13.0548C75.1644 11.5951 73.7663 10.6494 72.2038 10.6494C70.6413 10.6494 69.2433 11.5951 68.6677 13.0548L60.9374 32.4215C60.6496 33.1617 60.7318 33.984 61.1841 34.6419C61.6364 35.2998 62.3766 35.6904 63.1578 35.6904C63.7129 35.6904 64.2269 35.5465 64.6586 35.2381C65.1109 34.9298 65.4399 34.5391 65.666 34.0251L66.9613 30.7357H77.467L78.7622 34.0251C78.9884 34.5391 79.3173 34.9298 79.749 35.2381C80.2013 35.5465 80.6948 35.6904 81.2499 35.6904C82.0517 35.6904 82.7712 35.2998 83.2235 34.6419C83.6758 33.984 83.7581 33.1617 83.4702 32.4215L75.74 13.0548ZM75.3083 25.4314H69.0788L72.1833 17.5984L75.3083 25.4314Z" fill="url(#paint1_linear)"/>
<path d="M88.9188 10.6289C87.4591 10.6289 86.2461 11.8213 86.2461 13.3016V32.9972C86.2461 34.4569 87.4385 35.6699 88.9188 35.6699C90.399 35.6699 91.5915 34.4775 91.5915 32.9972V13.3016C91.5915 12.582 91.3242 11.9241 90.8102 11.4102C90.2962 10.8962 89.6384 10.6289 88.9188 10.6289Z" fill="url(#paint2_linear)"/>
<path d="M124.731 16.9202C123.621 15.0288 122.1 13.5074 120.188 12.3972C118.276 11.287 116.158 10.7319 113.917 10.7319H109.106C107.585 10.7319 106.352 11.9655 106.352 13.4869V32.9975C106.352 33.717 106.619 34.3544 107.133 34.8684C107.647 35.3823 108.284 35.6496 109.045 35.6496H113.938C116.343 35.6496 118.605 35.0123 120.62 33.7376C122.223 32.7302 123.58 31.3527 124.567 29.7697C125.8 27.7755 126.438 25.5551 126.438 23.1702C126.397 20.9293 125.842 18.8322 124.731 16.9202ZM121.072 23.2113C121.072 25.185 120.373 26.8709 118.975 28.2689C117.577 29.6669 115.87 30.3659 113.917 30.3659H111.676V16.0362H113.917C115.891 16.0362 117.577 16.7352 118.975 18.1332C120.352 19.5518 121.072 21.2582 121.072 23.2113Z" fill="url(#paint3_linear)"/>
<path d="M141.282 13.0548C140.706 11.5951 139.308 10.6494 137.746 10.6494C136.183 10.6494 134.785 11.5951 134.21 13.0548L126.5 32.401C126.212 33.1411 126.294 33.9635 126.747 34.6214C127.199 35.2793 127.919 35.6699 128.72 35.6699C129.275 35.6699 129.789 35.526 130.221 35.2176C130.673 34.9092 131.002 34.5186 131.229 34.0046L132.524 30.7151H143.029L144.325 34.0046C144.551 34.5186 144.88 34.9092 145.312 35.2176C145.764 35.526 146.257 35.6699 146.812 35.6699C147.614 35.6699 148.334 35.2793 148.786 34.6214C149.238 33.9635 149.321 33.1411 149.033 32.401L141.282 13.0548ZM140.85 25.4314H134.621L137.725 17.5984L140.85 25.4314Z" fill="url(#paint4_linear)"/>
<path d="M173.354 16.9612C172.244 15.0698 170.722 13.5484 168.81 12.4382C166.898 11.328 164.801 10.7729 162.54 10.7729C160.299 10.7729 158.181 11.328 156.269 12.4382C154.357 13.5484 152.836 15.0698 151.726 16.9612C150.616 18.8527 150.061 20.9703 150.061 23.2318C150.061 24.9176 150.389 26.5624 151.047 28.0837C151.705 29.6051 152.589 30.9415 153.7 32.0517C154.81 33.1618 156.146 34.0459 157.688 34.7038C159.23 35.3617 160.854 35.6906 162.519 35.6906C164.781 35.6906 166.898 35.1355 168.79 34.0253C170.702 32.9151 172.223 31.3938 173.333 29.4818C174.444 27.5698 174.999 25.4727 174.999 23.2112C175.019 20.9497 174.464 18.8527 173.354 16.9612ZM169.695 23.2112C169.695 25.1849 168.996 26.8708 167.597 28.2688C166.199 29.6668 164.493 30.3658 162.54 30.3658C160.566 30.3658 158.86 29.6668 157.462 28.2893C156.084 26.8913 155.385 25.1849 155.385 23.2112C155.385 21.2375 156.084 19.5517 157.482 18.1537C158.88 16.7557 160.587 16.0566 162.54 16.0566C164.514 16.0566 166.199 16.7557 167.597 18.1537C168.975 19.5517 169.695 21.2581 169.695 23.2112Z" fill="url(#paint5_linear)"/>
<path d="M32.7507 35.6084H17.8042C7.95638 35.6084 0 27.6315 0 17.8042C0 12.8906 1.99424 8.42924 5.22202 5.20146C8.4498 1.97368 12.8906 0 17.8042 0C22.7178 0 27.1792 1.99424 30.3864 5.20146C32.0106 6.82563 33.3058 8.73763 34.2104 10.8758C35.115 12.9934 35.6084 15.3371 35.6084 17.8042C35.6084 21.7104 34.3543 25.3289 32.1956 28.2688C31.7227 28.9267 31.1882 29.564 30.6125 30.1397L25.4316 24.9588C27.1997 23.0879 28.2688 20.5797 28.2688 17.8042C28.2688 14.9054 27.0969 12.2944 25.2055 10.4029C23.3141 8.51148 20.6825 7.33961 17.8042 7.33961C14.9259 7.33961 12.2944 8.51148 10.4029 10.4029C8.51148 12.2944 7.33961 14.9054 7.33961 17.8042C7.33961 23.5813 12.0271 28.2688 17.8042 28.2688V20.6619L32.7507 35.6084Z" fill="url(#paint6_linear)"/>
<defs>
<linearGradient id="paint0_linear" x1="48.7252" y1="10.4644" x2="48.7252" y2="35.5259" gradientUnits="userSpaceOnUse">
<stop stop-color="#085CB0"/>
<stop offset="1" stop-color="#0A3781"/>
</linearGradient>
<linearGradient id="paint1_linear" x1="72.2038" y1="10.6494" x2="72.2038" y2="35.6904" gradientUnits="userSpaceOnUse">
<stop stop-color="#085CB0"/>
<stop offset="1" stop-color="#0A3781"/>
</linearGradient>
<linearGradient id="paint2_linear" x1="88.9188" y1="10.6289" x2="88.9188" y2="35.6699" gradientUnits="userSpaceOnUse">
<stop stop-color="#085CB0"/>
<stop offset="1" stop-color="#0A3781"/>
</linearGradient>
<linearGradient id="paint3_linear" x1="116.395" y1="10.7319" x2="116.395" y2="35.6496" gradientUnits="userSpaceOnUse">
<stop stop-color="#085CB0"/>
<stop offset="1" stop-color="#0A3781"/>
</linearGradient>
<linearGradient id="paint4_linear" x1="137.766" y1="10.6494" x2="137.766" y2="35.6699" gradientUnits="userSpaceOnUse">
<stop stop-color="#085CB0"/>
<stop offset="1" stop-color="#0A3781"/>
</linearGradient>
<linearGradient id="paint5_linear" x1="162.53" y1="10.7729" x2="162.53" y2="35.6906" gradientUnits="userSpaceOnUse">
<stop stop-color="#085CB0"/>
<stop offset="1" stop-color="#0A3781"/>
</linearGradient>
<linearGradient id="paint6_linear" x1="12.9523" y1="38.5484" x2="37.6232" y2="-1.04108e-08" gradientUnits="userSpaceOnUse">
<stop stop-color="#74EAE8"/>
<stop offset="1" stop-color="#0394E8"/>
</linearGradient>
</defs>
</svg>
