<?xml version="1.0" standalone="no"?>
<!DOCTYPE svg PUBLIC "-//W3C//DTD SVG 20010904//EN"
 "http://www.w3.org/TR/2001/REC-SVG-20010904/DTD/svg10.dtd">
<svg  version="1.0" xmlns="http://www.w3.org/2000/svg"
 width="256.000000pt" height="256.000000pt" viewBox="0 0 256.000000 256.000000"
 preserveAspectRatio="xMidYMid meet">
<metadata>
Created by potrace 1.14, written by Peter Selinger 2001-2017
</metadata>
<g transform="translate(0.000000,256.000000) scale(0.100000,-0.100000)"
fill="#000000" stroke="none">
<path d="M1100 2530 c-25 -5 -57 -11 -72 -14 -16 -3 -39 -8 -53 -11 -46 -10
-200 -67 -260 -97 -177 -89 -358 -248 -483 -424 -22 -31 -83 -143 -100 -184
-6 -14 -20 -47 -31 -74 -56 -131 -81 -290 -77 -481 4 -158 18 -238 62 -371
105 -314 353 -593 654 -736 248 -118 546 -152 810 -92 92 20 204 57 212 69 4
5 8 6 8 2 0 -8 177 82 203 103 7 5 46 36 87 68 93 73 122 100 191 182 152 181
259 430 286 665 11 97 6 253 -11 351 -46 266 -161 488 -351 679 -183 184 -385
295 -638 351 -79 18 -361 27 -437 14z"/>
</g>
</svg>
