<svg width="49" height="49" viewBox="0 0 49 49" fill="none" xmlns="http://www.w3.org/2000/svg">
<g clip-path="url(#clip0)">
<path d="M28.1695 38.626H3.67934C1.64822 38.626 0 40.274 0 42.3054V48.9959H31.8487V42.3054C31.8487 40.274 30.2006 38.626 28.1695 38.626Z" fill="#6B6B6B"/>
<path d="M48.3398 39.1459L25.9845 16.7904L30.3024 12.4802C31.0143 13.108 32.1092 13.0773 32.7829 12.4036C33.4873 11.6916 33.4873 10.5508 32.7829 9.83887L23.4733 0.536901C22.769 -0.175061 21.6206 -0.175061 20.9163 0.536901C20.2043 1.24129 20.2043 2.38968 20.9163 3.09396L20.8397 3.01741L9.01887 14.8305L9.09543 14.9146C8.39104 14.2027 7.24265 14.2027 6.53837 14.9146C5.8264 15.619 5.8264 16.7674 6.53837 17.4718L15.8403 26.7813C16.5523 27.4857 17.7007 27.4857 18.4051 26.7813C19.1095 26.0694 19.1095 24.9286 18.4051 24.2168L18.4816 24.2931L22.7996 19.9829L45.1472 42.3306C46.0277 43.2111 47.4594 43.2111 48.3398 42.3306C49.2202 41.4502 49.2202 40.0262 48.3398 39.1459Z" fill="#6B6B6B"/>
</g>
<defs>
<clipPath id="clip0">
<rect width="49" height="49" fill="white"/>
</clipPath>
</defs>
</svg>
