<svg width="15" height="15" viewBox="0 0 15 15" fill="none" xmlns="http://www.w3.org/2000/svg">
<g clip-path="url(#clip0)">
<path d="M4.43611 3.78825C4.1767 3.78825 3.96643 3.57798 3.96643 3.31857V0.469675C3.96643 0.210267 4.1767 0 4.43611 0C4.69551 0 4.90578 0.210267 4.90578 0.469675V3.31857C4.90578 3.57798 4.69551 3.78825 4.43611 3.78825Z" fill="url(#paint0_linear)"/>
<path d="M10.5639 3.78825C10.3045 3.78825 10.0942 3.57798 10.0942 3.31857V0.469675C10.0942 0.210267 10.3045 0 10.5639 0C10.8233 0 11.0336 0.210267 11.0336 0.469675V3.31857C11.0336 3.57798 10.8233 3.78825 10.5639 3.78825Z" fill="url(#paint1_linear)"/>
<path d="M0.712036 6.51611V12.9967C0.712036 14.1014 1.61079 15.0001 2.71552 15.0001H12.2841C13.3889 15.0001 14.2876 14.1014 14.2876 12.9967V6.51611H0.712036Z" fill="url(#paint2_linear)"/>
<path d="M14.2876 5.57653V3.42783C14.2876 2.3231 13.3888 1.42435 12.2841 1.42435H11.9728V3.31845C11.9728 4.09541 11.3407 4.72748 10.5637 4.72748C9.78677 4.72748 9.1547 4.09541 9.1547 3.31845V1.42432H5.84494V3.31842C5.84494 4.09538 5.21287 4.72745 4.43591 4.72745C3.65895 4.72745 3.02689 4.09538 3.02689 3.31842V1.42432H2.71552C1.61079 1.42432 0.712036 2.32307 0.712036 3.4278V5.5765H14.2876V5.57653Z" fill="url(#paint3_linear)"/>
</g>
<defs>
<linearGradient id="paint0_linear" x1="4.43611" y1="0" x2="4.43611" y2="3.78825" gradientUnits="userSpaceOnUse">
<stop stop-color="#9806DF"/>
<stop offset="1" stop-color="#36A4FD"/>
</linearGradient>
<linearGradient id="paint1_linear" x1="10.5639" y1="0" x2="10.5639" y2="3.78825" gradientUnits="userSpaceOnUse">
<stop stop-color="#9806DF"/>
<stop offset="1" stop-color="#36A4FD"/>
</linearGradient>
<linearGradient id="paint2_linear" x1="7.49982" y1="6.51611" x2="7.49982" y2="15.0001" gradientUnits="userSpaceOnUse">
<stop stop-color="#9806DF"/>
<stop offset="1" stop-color="#36A4FD"/>
</linearGradient>
<linearGradient id="paint3_linear" x1="7.4998" y1="1.42432" x2="7.4998" y2="5.57653" gradientUnits="userSpaceOnUse">
<stop stop-color="#9806DF"/>
<stop offset="1" stop-color="#36A4FD"/>
</linearGradient>
<clipPath id="clip0">
<rect width="15" height="15" fill="white"/>
</clipPath>
</defs>
</svg>
