<svg width="20" height="20" viewBox="0 0 20 20" fill="none" xmlns="http://www.w3.org/2000/svg">
<path d="M18.7132 8.06682C18.4793 7.87756 18.09 7.56186 18.0413 7.41225C17.9917 7.25686 18.1198 6.75686 18.1966 6.45932C18.3809 5.74112 18.6107 4.84768 18.0958 4.14436C17.5834 3.446 16.6619 3.38483 15.9214 3.33522C15.6147 3.31374 15.1007 3.27983 14.9709 3.18561C14.8395 3.09057 14.642 2.60378 14.5238 2.31202C14.232 1.58885 13.8998 0.768972 13.089 0.5078C12.2824 0.244167 11.5452 0.71112 10.8964 1.12186C10.6104 1.30202 10.1798 1.57479 9.99965 1.57479C9.82691 1.57479 9.40129 1.29792 9.11863 1.11444C8.49465 0.70862 7.71445 0.20612 6.89211 0.485495C6.08297 0.76073 5.75406 1.57561 5.46231 2.293C5.34496 2.58225 5.14988 3.06491 5.01602 3.16327C4.88543 3.25995 4.36227 3.29467 4.04984 3.31534C3.26883 3.36823 2.38367 3.42776 1.88613 4.1319C1.3977 4.82366 1.61668 5.67659 1.81008 6.42952C1.88613 6.7287 2.01504 7.22956 1.96875 7.37913C1.91918 7.5221 1.53402 7.83866 1.30426 8.02792C0.723164 8.50737 0 9.10323 0 9.99585C0 10.8826 0.709141 11.4719 1.27855 11.9447C1.52566 12.1496 1.8984 12.4596 1.94883 12.6133C1.9984 12.7654 1.86949 13.2596 1.7918 13.5547C1.60336 14.2795 1.36781 15.182 1.90254 15.8911C2.42406 16.5804 3.34145 16.6415 4.07949 16.6912C4.38613 16.7126 4.89937 16.7457 5.02996 16.8408C5.16055 16.9358 5.35727 17.4218 5.47543 17.7135C5.76801 18.4367 6.09941 19.2566 6.91102 19.5186C7.07383 19.5723 7.235 19.5955 7.39203 19.5955C8.01355 19.5955 8.58711 19.2318 9.10449 18.9062C9.38961 18.726 9.81941 18.4532 9.99957 18.4532C10.1756 18.4532 10.5988 18.7227 10.8781 18.9012C11.498 19.2954 12.2716 19.7897 13.0923 19.5087C13.9005 19.2334 14.2295 18.4194 14.5212 17.7003C14.6386 17.4119 14.8337 16.9284 14.9675 16.8301C15.0989 16.7334 15.6188 16.6987 15.9296 16.678C16.7048 16.6251 17.5842 16.5664 18.0892 15.873C18.5975 15.1763 18.3793 14.3142 18.1867 13.5547C18.1115 13.258 17.9859 12.763 18.0313 12.6142C18.0809 12.4712 18.4661 12.1546 18.695 11.9654C19.2768 11.486 20 10.8893 20 9.99667C20 9.11151 19.2859 8.53214 18.7132 8.06682ZM17.6445 10.6909C17.1611 11.0885 16.661 11.5009 16.4643 12.0918C16.2635 12.6935 16.4271 13.3382 16.585 13.9613C16.6618 14.2655 16.7907 14.7737 16.7734 14.8787C16.6478 14.9729 16.1296 15.0085 15.8196 15.0283C15.2056 15.0696 14.5097 15.1159 13.9915 15.4961C13.4782 15.8721 13.2295 16.4862 12.9889 17.0796C12.8716 17.3722 12.6732 17.8623 12.5914 17.9367C12.441 17.9367 12.0203 17.6664 11.7682 17.5061C11.2484 17.1755 10.6591 16.7995 10.0004 16.7995C9.34086 16.7995 8.7466 17.1764 8.22098 17.5086C7.96641 17.669 7.53996 17.94 7.44906 17.9599C7.32098 17.8681 7.1259 17.3838 7.00855 17.0946C6.76559 16.4937 6.51434 15.873 5.99613 15.5003C5.48125 15.1292 4.825 15.0854 4.18945 15.0432C3.89109 15.0234 3.33488 14.9862 3.23402 14.9176C3.18277 14.7713 3.31254 14.2713 3.39105 13.9738C3.54395 13.3845 3.71836 12.7167 3.52164 12.1067C3.3241 11.4976 2.7993 11.0604 2.33562 10.6753C2.10918 10.4868 1.68684 10.1356 1.65129 10.0083C1.68848 9.85292 2.12238 9.49506 2.35543 9.30417C2.83891 8.90581 3.33895 8.49339 3.53566 7.90245C3.73816 7.29663 3.57121 6.64702 3.41086 6.01889C3.33316 5.71557 3.20258 5.20811 3.2125 5.11143C3.33895 5.02053 3.85301 4.98581 4.16047 4.96514C4.80594 4.92217 5.47457 4.87671 5.99277 4.49737C6.50602 4.12132 6.7548 3.50807 6.99531 2.91467C7.11266 2.62128 7.31188 2.13198 7.38789 2.05842C7.54078 2.06089 7.96559 2.33694 8.21934 2.50143C8.74332 2.84194 9.3384 3.22792 10.0004 3.22792C10.6591 3.22792 11.255 2.85104 11.779 2.51964C12.0336 2.35846 12.46 2.08823 12.5509 2.06839C12.6782 2.16014 12.8741 2.64444 12.9914 2.9337C13.2344 3.53374 13.4857 4.1544 14.0039 4.52714C14.5187 4.89905 15.1758 4.94284 15.8122 4.98499C16.1263 5.00647 16.6528 5.04202 16.7511 5.10151C16.8015 5.24698 16.6734 5.74948 16.5957 6.04866C16.4445 6.64042 16.2725 7.31069 16.4701 7.92229C16.6693 8.53803 17.2023 8.97026 17.6726 9.35128C17.8875 9.52647 18.2834 9.84635 18.3445 10.0001C18.2859 10.1612 17.8702 10.5041 17.6445 10.6909Z" fill="url(#paint0_linear)"/>
<path d="M13.6956 6.88255C13.3435 6.58833 12.8236 6.63626 12.5319 6.98587L8.84664 11.3918L7.27879 9.82485C6.95563 9.50169 6.43328 9.50169 6.11016 9.82485C5.78699 10.148 5.78699 10.6704 6.11016 10.9935L8.31688 13.2002C8.47141 13.3564 8.68219 13.4423 8.90121 13.4423C8.91278 13.4423 8.9252 13.4423 8.93676 13.4407C9.16981 13.4308 9.38555 13.3234 9.5343 13.1457L13.7989 8.04622C14.0915 7.69583 14.046 7.17513 13.6956 6.88255Z" fill="url(#paint1_linear)"/>
<defs>
<linearGradient id="paint0_linear" x1="10" y1="0.404663" x2="10" y2="19.5955" gradientUnits="userSpaceOnUse">
<stop stop-color="#65C9FF"/>
<stop offset="1" stop-color="#D21AFF"/>
</linearGradient>
<linearGradient id="paint1_linear" x1="9.92968" y1="6.68945" x2="9.92968" y2="13.4423" gradientUnits="userSpaceOnUse">
<stop stop-color="#65C9FF"/>
<stop offset="1" stop-color="#D21AFF"/>
</linearGradient>
</defs>
</svg>
