<svg width="149" height="129" viewBox="0 0 149 129" fill="none" xmlns="http://www.w3.org/2000/svg">
<path d="M1 39.5V46C1 47.1046 1.89543 48 3 48H43.5C44.6046 48 45.5 47.1046 45.5 46V39.5M1 39.5V3C1 1.89543 1.89543 1 3 1H43.5C44.6046 1 45.5 1.89543 45.5 3V14.5M1 39.5L15.0812 26.8269C15.6443 26.3201 16.4454 26.175 17.1505 26.452L28.7185 30.9965C29.4902 31.2997 30.369 31.0953 30.9277 30.4825L45.5 14.5M1 39.5H45.5M45.5 14.5V39.5" stroke="#D4D4D4" stroke-width="2"/>
<path d="M1 94.5V101C1 102.105 1.89543 103 3 103H43.5C44.6046 103 45.5 102.105 45.5 101V94.5M1 94.5V58C1 56.8954 1.89543 56 3 56H43.5C44.6046 56 45.5 56.8954 45.5 58V69.5M1 94.5L15.0812 81.8269C15.6443 81.3201 16.4454 81.175 17.1505 81.452L28.7185 85.9965C29.4902 86.2997 30.369 86.0953 30.9277 85.4825L45.5 69.5M1 94.5H45.5M45.5 69.5V94.5" stroke="#D4D4D4" stroke-width="2"/>
<path d="M103 94.5V101C103 102.105 103.895 103 105 103H145.5C146.605 103 147.5 102.105 147.5 101V94.5M103 94.5V58C103 56.8954 103.895 56 105 56H145.5C146.605 56 147.5 56.8954 147.5 58V69.5M103 94.5L117.081 81.8269C117.644 81.3201 118.445 81.175 119.15 81.452L130.718 85.9965C131.49 86.2997 132.369 86.0953 132.928 85.4825L147.5 69.5M103 94.5H147.5M147.5 69.5V94.5" stroke="#D4D4D4" stroke-width="2"/>
<path d="M52 94.5V101C52 102.105 52.8954 103 54 103H94.5C95.6046 103 96.5 102.105 96.5 101V94.5M52 94.5V58C52 56.8954 52.8954 56 54 56H94.5C95.6046 56 96.5 56.8954 96.5 58V69.5V94.5M52 94.5H96.5" stroke="#D4D4D4" stroke-width="2"/>
<path d="M52 39.5V46C52 47.1046 52.8954 48 54 48H94.5C95.6046 48 96.5 47.1046 96.5 46V39.5M52 39.5V3C52 1.89543 52.8954 1 54 1H94.5C95.6046 1 96.5 1.89543 96.5 3V14.5M52 39.5L66.0812 26.8269C66.6443 26.3201 67.4454 26.175 68.1505 26.452L79.7185 30.9965C80.4902 31.2997 81.369 31.0953 81.9277 30.4825L96.5 14.5M52 39.5H96.5M96.5 14.5V39.5" stroke="#D4D4D4" stroke-width="2"/>
<path d="M103 39.5V46C103 47.1046 103.895 48 105 48H145.5C146.605 48 147.5 47.1046 147.5 46V39.5M103 39.5V3C103 1.89543 103.895 1 105 1H145.5C146.605 1 147.5 1.89543 147.5 3V14.5M103 39.5L117.081 26.8269C117.644 26.3201 118.445 26.175 119.15 26.452L130.718 30.9965C131.49 31.2997 132.369 31.0953 132.928 30.4825L147.5 14.5M103 39.5H147.5M147.5 14.5V39.5" stroke="#D4D4D4" stroke-width="2"/>
<circle cx="13" cy="13" r="5" stroke="#D4D4D4" stroke-width="2"/>
<circle cx="13" cy="68" r="5" stroke="#D4D4D4" stroke-width="2"/>
<circle cx="115" cy="68" r="5" stroke="#D4D4D4" stroke-width="2"/>
<circle cx="64" cy="13" r="5" stroke="#D4D4D4" stroke-width="2"/>
<circle cx="115" cy="13" r="5" stroke="#D4D4D4" stroke-width="2"/>
<path d="M74 64.8939L77.1712 69.9943L77.3859 70.3397L77.7807 70.4372L83.6115 71.877L79.7406 76.4692L79.4785 76.7801L79.5078 77.1857L79.9402 83.176L74.3767 80.9137L74 80.7605L73.6233 80.9137L68.0598 83.176L68.4922 77.1857L68.5215 76.7801L68.2594 76.4692L64.3885 71.877L70.2193 70.4372L70.6141 70.3397L70.8288 69.9943L74 64.8939Z" stroke="#D4D4D4" stroke-width="2"/>
<rect y="111" width="76" height="4" rx="2" fill="#D5D5D5"/>
<rect y="118" width="34" height="4" rx="2" fill="#D5D5D5"/>
<rect y="125" width="63" height="4" rx="2" fill="#D5D5D5"/>
<rect x="40" y="118" width="52" height="4" rx="2" fill="#D5D5D5"/>
</svg>
