<svg width="49" height="49" viewBox="0 0 49 49" fill="none" xmlns="http://www.w3.org/2000/svg">
<g clip-path="url(#clip0)">
<path d="M38.2812 18.375H36.75V12.25C36.75 5.49412 31.2559 0 24.5 0C17.7441 0 12.25 5.49412 12.25 12.25V18.375H10.7188C8.18708 18.375 6.125 20.435 6.125 22.9688V44.4062C6.125 46.94 8.18708 49 10.7188 49H38.2812C40.8129 49 42.875 46.94 42.875 44.4062V22.9688C42.875 20.435 40.8129 18.375 38.2812 18.375ZM16.3333 12.25C16.3333 7.74608 19.9961 4.08333 24.5 4.08333C29.0039 4.08333 32.6667 7.74608 32.6667 12.25V18.375H16.3333V12.25Z" fill="white"/>
<path d="M26.8277 32.7898C26.1547 32.4179 25.4393 32.1346 24.731 31.8406C24.3201 31.6706 23.927 31.4723 23.5799 31.196C22.8964 30.6506 23.0274 29.7652 23.8278 29.4146C24.0545 29.3154 24.2918 29.2835 24.5326 29.2694C25.4606 29.2198 26.3424 29.3898 27.1818 29.7935C27.5998 29.9954 27.7379 29.9317 27.8796 29.496C28.0283 29.0356 28.1523 28.5681 28.2904 28.1041C28.3825 27.7925 28.2691 27.587 27.9752 27.456C27.4368 27.2187 26.8843 27.0487 26.3035 26.9566C25.5456 26.8397 25.5456 26.8362 25.542 26.0747C25.5385 25.0016 25.5385 25.0016 24.4618 25.0016C24.306 25.0016 24.1501 24.998 23.9943 25.0016C23.4914 25.0157 23.4064 25.1043 23.3922 25.6108C23.3851 25.8374 23.3922 26.0641 23.3887 26.2943C23.3851 26.9672 23.3816 26.9566 22.737 27.1904C21.1786 27.757 20.2153 28.8196 20.1126 30.5196C20.0205 32.0248 20.8067 33.0413 22.0428 33.7815C22.8043 34.2384 23.6472 34.5076 24.4547 34.8653C24.7699 35.0034 25.071 35.1628 25.3331 35.3824C26.1087 36.0234 25.967 37.0895 25.0462 37.4932C24.5539 37.7093 24.0332 37.7624 23.4984 37.6951C22.6732 37.5924 21.8834 37.3764 21.1397 36.9903C20.704 36.7636 20.5765 36.8238 20.4278 37.2949C20.3003 37.7022 20.1869 38.113 20.0736 38.5239C19.9213 39.0764 19.978 39.2074 20.5057 39.466C21.1786 39.7918 21.8976 39.9583 22.6307 40.0752C23.2045 40.1672 23.2222 40.192 23.2293 40.787C23.2328 41.0562 23.2328 41.3289 23.2364 41.5981C23.2399 41.9381 23.4028 42.1364 23.7534 42.1435C24.1501 42.1506 24.5503 42.1506 24.947 42.14C25.2728 42.1329 25.4393 41.9558 25.4393 41.6264C25.4393 41.2581 25.457 40.8862 25.4428 40.5179C25.4251 40.1424 25.5881 39.9512 25.9493 39.852C26.7816 39.6254 27.49 39.1791 28.0354 38.5133C29.5512 36.6716 28.9739 33.9763 26.8277 32.7898Z" fill="#141233"/>
</g>
<defs>
<clipPath id="clip0">
<rect width="49" height="49" fill="white"/>
</clipPath>
</defs>
</svg>
