<svg width="18" height="19" viewBox="0 0 18 19" fill="none" xmlns="http://www.w3.org/2000/svg">
<path d="M9.00002 16.5688C8.51627 16.1398 7.96952 15.6936 7.39127 15.2188H7.38377C5.34752 13.5538 3.03977 11.6698 2.02052 9.41234C1.68566 8.69363 1.5082 7.91168 1.50001 7.11884C1.49777 6.03095 1.9341 4.98808 2.71037 4.22591C3.48665 3.46375 4.53736 3.04663 5.62502 3.06884C6.51049 3.07023 7.37689 3.32615 8.12102 3.80609C8.44799 4.01831 8.74383 4.27503 9.00002 4.56884C9.25763 4.27618 9.55355 4.01962 9.87977 3.80609C10.6236 3.32605 11.4898 3.07013 12.375 3.06884C13.4627 3.04663 14.5134 3.46375 15.2897 4.22591C16.0659 4.98808 16.5023 6.03095 16.5 7.11884C16.4924 7.91295 16.3149 8.69623 15.9795 9.41609C14.9603 11.6736 12.6533 13.5568 10.617 15.2188L10.6095 15.2248C10.0305 15.6966 9.48452 16.1428 9.00077 16.5748L9.00002 16.5688ZM5.62502 4.56884C4.9264 4.56009 4.25257 4.82747 3.75002 5.31284C3.26581 5.78846 2.99518 6.44012 2.99995 7.11884C3.00851 7.69671 3.13939 8.26623 3.38402 8.78984C3.86515 9.76387 4.51435 10.6454 5.30177 11.3938C6.04502 12.1438 6.90002 12.8698 7.63952 13.4803C7.84427 13.6491 8.05277 13.8193 8.26127 13.9896L8.39252 14.0968C8.59277 14.2603 8.79977 14.4298 9.00002 14.5963L9.00977 14.5873L9.01427 14.5836H9.01877L9.02552 14.5783H9.02927H9.03302L9.04652 14.5671L9.07727 14.5423L9.08252 14.5378L9.09077 14.5318H9.09527L9.10202 14.5258L9.60002 14.1171L9.73052 14.0098C9.94127 13.8381 10.1498 13.6678 10.3545 13.4991C11.094 12.8886 11.9498 12.1633 12.693 11.4096C13.4805 10.6615 14.1298 9.78022 14.6108 8.80634C14.8598 8.27819 14.9926 7.70272 15 7.11884C15.0031 6.44222 14.7327 5.79306 14.25 5.31884C13.7484 4.83128 13.0745 4.5617 12.375 4.56884C11.5215 4.56158 10.7055 4.91936 10.1325 5.55209L9.00002 6.85709L7.86752 5.55209C7.29456 4.91936 6.47857 4.56158 5.62502 4.56884Z" fill="url(#paint0_linear)"/>
<defs>
<linearGradient id="paint0_linear" x1="9.00002" y1="3.06799" x2="9.00002" y2="16.5748" gradientUnits="userSpaceOnUse">
<stop stop-color="#55E0FF"/>
<stop offset="1" stop-color="#DC09FF"/>
</linearGradient>
</defs>
</svg>
