<svg width="29" height="29" viewBox="0 0 29 29" fill="none" xmlns="http://www.w3.org/2000/svg">
<g clip-path="url(#clip0)">
<path d="M14.5093 29C8.94479 29 4.41797 24.448 4.41797 18.8527C4.41797 16.4143 5.24855 14.7564 6.21056 12.8368C6.74444 11.7709 7.29668 10.6688 7.80667 9.26251L8.33723 7.79937C9.11958 7.99097 8.85452 7.92615 9.63665 8.11775L9.43089 9.66055C9.26251 10.9212 9.49261 12.3512 10.0619 13.5836C10.3033 14.1064 10.5947 14.5704 10.9181 14.956C10.806 12.909 11.0157 10.9358 11.5454 9.06892C12.1007 7.11194 12.9917 5.30762 14.1938 3.70576C15.6899 1.71249 17.4081 0.410645 18.2049 0.303558L20.463 0L18.9434 1.69789C18.2531 2.46896 17.873 3.46437 17.873 4.50072C17.873 6.50394 19.1018 7.92548 20.5245 9.5716C21.4367 10.6268 22.4704 11.8228 23.2534 13.2922C24.1599 14.9932 24.6004 16.8119 24.6004 18.8527C24.6004 24.448 20.0736 29 14.5093 29ZM8.03699 12.9424C7.92725 13.1647 7.81928 13.3802 7.71419 13.5902C6.81214 15.3903 6.09993 16.8121 6.09993 18.8527C6.09993 23.5205 9.87228 27.318 14.5093 27.318C19.1461 27.318 22.9187 23.5205 22.9187 18.8527C22.9187 14.9133 21.0546 12.757 19.2521 10.6714C17.6778 8.85032 16.191 7.13008 16.191 4.50072C16.191 4.29097 16.2021 4.08255 16.2242 3.8759C15.7499 4.41266 15.2518 5.06336 14.781 5.83133C13.4519 7.9996 12.0262 11.6381 12.7831 16.6601L13.0043 18.1296L11.6306 17.5628C10.369 17.042 9.26959 15.8793 8.53481 14.2887C8.33347 13.8526 8.16709 13.4015 8.03699 12.9424Z" fill="url(#paint0_linear)"/>
</g>
<defs>
<linearGradient id="paint0_linear" x1="14.5092" y1="0" x2="14.5092" y2="29" gradientUnits="userSpaceOnUse">
<stop stop-color="#5AD9FF"/>
<stop offset="1" stop-color="#D21BFF"/>
</linearGradient>
<clipPath id="clip0">
<rect width="29" height="29" fill="white"/>
</clipPath>
</defs>
</svg>
