<svg width="1091" height="113" viewBox="0 0 1091 113" fill="none" xmlns="http://www.w3.org/2000/svg">
<mask id="path-1-outside-1" maskUnits="userSpaceOnUse" x="0" y="0" width="1091" height="113" fill="black">
<rect fill="white" width="1091" height="113"/>
<path d="M89.4823 19.1974V108.121H67.283V63.7847L56.334 108.121H37.2487L26.2997 63.7847V108.121H4V19.1974H31.3222L46.9923 72.5766L62.2605 19.1974H89.4823ZM154.39 72.0742C154.39 74 154.289 75.8421 154.088 77.6005H118.228C118.563 83.7129 120.605 86.7691 124.355 86.7691C126.766 86.7691 128.507 85.3876 129.579 82.6244H153.184C152.381 87.6483 150.673 92.1699 148.061 96.189C145.517 100.124 142.269 103.264 138.318 105.609C134.434 107.87 130.148 109 125.46 109C119.835 109 114.813 107.535 110.393 104.604C106.04 101.673 102.625 97.4868 100.147 92.0443C97.7364 86.518 96.531 80.0706 96.531 72.7022C96.531 65.3337 97.7364 58.9282 100.147 53.4856C102.625 47.9593 106.04 43.7309 110.393 40.8002C114.813 37.8696 119.835 36.4043 125.46 36.4043C131.085 36.4043 136.074 37.8696 140.427 40.8002C144.847 43.6471 148.262 47.75 150.673 53.1089C153.151 58.4677 154.39 64.7895 154.39 72.0742ZM131.789 65.4175C131.789 63.073 131.186 61.3146 129.981 60.1423C128.775 58.8864 127.268 58.2584 125.46 58.2584C121.509 58.2584 119.199 60.6447 118.529 65.4175H131.789ZM158.429 72.7022C158.429 65.25 159.433 58.8026 161.442 53.3601C163.518 47.8337 166.331 43.6471 169.88 40.8002C173.429 37.8696 177.414 36.4043 181.834 36.4043C185.517 36.4043 188.664 37.3672 191.276 39.2931C193.954 41.1352 195.997 43.689 197.403 46.9546V15.1782H219.703V108.121H197.403V98.4498C195.997 101.715 193.954 104.311 191.276 106.237C188.664 108.079 185.517 109 181.834 109C177.414 109 173.429 107.577 169.88 104.73C166.331 101.799 163.518 97.6124 161.442 92.1699C159.433 86.6435 158.429 80.1543 158.429 72.7022ZM197.504 72.7022C197.504 68.9342 196.733 66.0036 195.193 63.9103C193.653 61.817 191.678 60.7703 189.267 60.7703C186.856 60.7703 184.88 61.817 183.34 63.9103C181.8 66.0036 181.03 68.9342 181.03 72.7022C181.03 76.4701 181.8 79.4007 183.34 81.494C184.88 83.5873 186.856 84.634 189.267 84.634C191.678 84.634 193.653 83.5873 195.193 81.494C196.733 79.4007 197.504 76.4701 197.504 72.7022ZM240.967 31.6316C237.083 31.6316 233.969 30.3337 231.625 27.738C229.281 25.1423 228.109 21.8768 228.109 17.9414C228.109 13.9223 229.281 10.6148 231.625 8.01914C233.969 5.33971 237.083 4 240.967 4C244.784 4 247.864 5.33971 250.208 8.01914C252.552 10.6148 253.724 13.9223 253.724 17.9414C253.724 21.8768 252.552 25.1423 250.208 27.738C247.864 30.3337 244.784 31.6316 240.967 31.6316ZM252.016 37.2835V108.121H229.716V37.2835H252.016ZM259.074 72.7022C259.074 65.25 260.079 58.8026 262.088 53.3601C264.164 47.8337 266.976 43.6471 270.525 40.8002C274.075 37.8696 278.059 36.4043 282.479 36.4043C286.162 36.4043 289.343 37.3672 292.022 39.2931C294.7 41.1352 296.743 43.689 298.149 46.9546V37.2835H320.348V108.121H298.149V98.4498C296.743 101.715 294.7 104.311 292.022 106.237C289.343 108.079 286.162 109 282.479 109C278.059 109 274.075 107.577 270.525 104.73C266.976 101.799 264.164 97.6124 262.088 92.1699C260.079 86.6435 259.074 80.1543 259.074 72.7022ZM298.149 72.7022C298.149 68.9342 297.379 66.0036 295.839 63.9103C294.298 61.817 292.323 60.7703 289.912 60.7703C287.501 60.7703 285.526 61.817 283.986 63.9103C282.445 66.0036 281.675 68.9342 281.675 72.7022C281.675 76.4701 282.445 79.4007 283.986 81.494C285.526 83.5873 287.501 84.634 289.912 84.634C292.323 84.634 294.298 83.5873 295.839 81.494C297.379 79.4007 298.149 76.4701 298.149 72.7022ZM402.276 72.0742C402.276 74 402.175 75.8421 401.974 77.6005H366.114C366.449 83.7129 368.491 86.7691 372.241 86.7691C374.652 86.7691 376.393 85.3876 377.465 82.6244H401.07C400.267 87.6483 398.559 92.1699 395.947 96.189C393.403 100.124 390.155 103.264 386.204 105.609C382.32 107.87 378.034 109 373.346 109C367.721 109 362.699 107.535 358.279 104.604C353.926 101.673 350.511 97.4868 348.033 92.0443C345.622 86.518 344.417 80.0706 344.417 72.7022C344.417 65.3337 345.622 58.9282 348.033 53.4856C350.511 47.9593 353.926 43.7309 358.279 40.8002C362.699 37.8696 367.721 36.4043 373.346 36.4043C378.971 36.4043 383.96 37.8696 388.313 40.8002C392.733 43.6471 396.148 47.75 398.559 53.1089C401.037 58.4677 402.276 64.7895 402.276 72.0742ZM379.674 65.4175C379.674 63.073 379.072 61.3146 377.866 60.1423C376.661 58.8864 375.154 58.2584 373.346 58.2584C369.395 58.2584 367.085 60.6447 366.415 65.4175H379.674ZM477.634 19.1974L452.12 81.1172V108.121H429.82V81.1172L404.306 19.1974H429.82L441.171 50.7225L452.521 19.1974H477.634ZM537.548 72.0742C537.548 74 537.448 75.8421 537.247 77.6005H501.387C501.722 83.7129 503.764 86.7691 507.514 86.7691C509.925 86.7691 511.666 85.3876 512.737 82.6244H536.343C535.539 87.6483 533.832 92.1699 531.22 96.189C528.675 100.124 525.428 103.264 521.477 105.609C517.593 107.87 513.307 109 508.619 109C502.994 109 497.971 107.535 493.552 104.604C489.199 101.673 485.784 97.4868 483.306 92.0443C480.895 86.518 479.69 80.0706 479.69 72.7022C479.69 65.3337 480.895 58.9282 483.306 53.4856C485.784 47.9593 489.199 43.7309 493.552 40.8002C497.971 37.8696 502.994 36.4043 508.619 36.4043C514.244 36.4043 519.233 37.8696 523.586 40.8002C528.006 43.6471 531.421 47.75 533.832 53.1089C536.31 58.4677 537.548 64.7895 537.548 72.0742ZM514.947 65.4175C514.947 63.073 514.345 61.3146 513.139 60.1423C511.934 58.8864 510.427 58.2584 508.619 58.2584C504.668 58.2584 502.358 60.6447 501.688 65.4175H514.947ZM629.875 108.121H607.575L583.969 63.4079V108.121H561.67V19.1974H583.969L607.575 64.6639V19.1974H629.875V108.121ZM690.174 19.1974V41.3026H662.249V53.6113H682.339V74.5861H662.249V108.121H639.949V19.1974H690.174ZM753.577 19.1974V41.3026H734.693V108.121H712.393V41.3026H693.709V19.1974H753.577ZM834.854 49.7177C834.854 55.3277 833.816 60.4354 831.74 65.0407C829.664 69.5622 826.583 73.1627 822.498 75.8421C818.48 78.5215 813.592 79.8613 807.833 79.8613H798.993V108.121H776.694V19.1974H807.833C816.538 19.1974 823.202 21.9605 827.822 27.4868C832.51 33.0132 834.854 40.4234 834.854 49.7177ZM805.322 57.8816C809.942 57.8816 812.253 55.1603 812.253 49.7177C812.253 44.2751 809.942 41.5538 805.322 41.5538H798.993V57.8816H805.322ZM868.847 109C863.155 109 858.032 107.535 853.478 104.604C848.925 101.673 845.342 97.4868 842.73 92.0443C840.186 86.518 838.913 80.0706 838.913 72.7022C838.913 65.3337 840.186 58.9282 842.73 53.4856C845.342 47.9593 848.925 43.7309 853.478 40.8002C858.032 37.8696 863.155 36.4043 868.847 36.4043C874.539 36.4043 879.662 37.8696 884.216 40.8002C888.77 43.7309 892.319 47.9593 894.863 53.4856C897.475 58.9282 898.781 65.3337 898.781 72.7022C898.781 80.0706 897.475 86.518 894.863 92.0443C892.319 97.4868 888.77 101.673 884.216 104.604C879.662 107.535 874.539 109 868.847 109ZM868.847 84.8852C870.923 84.8852 872.664 83.8804 874.07 81.8708C875.477 79.7775 876.18 76.7213 876.18 72.7022C876.18 68.683 875.477 65.6687 874.07 63.6591C872.664 61.5658 870.923 60.5191 868.847 60.5191C866.771 60.5191 865.03 61.5658 863.624 63.6591C862.217 65.6687 861.514 68.683 861.514 72.7022C861.514 76.7213 862.184 79.7775 863.523 81.8708C864.93 83.8804 866.704 84.8852 868.847 84.8852ZM928.086 50.3457C930.363 46.2428 933.142 42.9773 936.424 40.549C939.705 38.0371 943.12 36.7811 946.669 36.7811V66.5478H940.341C936.122 66.5478 933.008 67.4689 930.999 69.311C929.057 71.1531 928.086 74.4187 928.086 79.1077V108.121H905.786V37.2835H928.086V50.3457ZM987.934 84.3828V108.121H979.496C963.96 108.121 956.192 98.4498 956.192 79.1077V60.5191H949.16V37.2835H956.192V20.2022H978.491V37.2835H987.733V60.5191H978.491V79.6101C978.491 81.2847 978.793 82.4988 979.395 83.2524C980.065 84.006 981.136 84.3828 982.61 84.3828H987.934ZM993.413 72.7022C993.413 65.25 994.417 58.8026 996.426 53.3601C998.502 47.8337 1001.31 43.6471 1004.86 40.8002C1008.41 37.8696 1012.4 36.4043 1016.82 36.4043C1020.5 36.4043 1023.68 37.3672 1026.36 39.2931C1029.04 41.1352 1031.08 43.689 1032.49 46.9546V37.2835H1054.69V108.121H1032.49V98.4498C1031.08 101.715 1029.04 104.311 1026.36 106.237C1023.68 108.079 1020.5 109 1016.82 109C1012.4 109 1008.41 107.577 1004.86 104.73C1001.31 101.799 998.502 97.6124 996.426 92.1699C994.417 86.6435 993.413 80.1543 993.413 72.7022ZM1032.49 72.7022C1032.49 68.9342 1031.72 66.0036 1030.18 63.9103C1028.64 61.817 1026.66 60.7703 1024.25 60.7703C1021.84 60.7703 1019.86 61.817 1018.32 63.9103C1016.78 66.0036 1016.01 68.9342 1016.01 72.7022C1016.01 76.4701 1016.78 79.4007 1018.32 81.494C1019.86 83.5873 1021.84 84.634 1024.25 84.634C1026.66 84.634 1028.64 83.5873 1030.18 81.494C1031.72 79.4007 1032.49 76.4701 1032.49 72.7022ZM1087 15.1782V108.121H1064.7V15.1782H1087Z"/>
</mask>
<path d="M89.4823 19.1974V108.121H67.283V63.7847L56.334 108.121H37.2487L26.2997 63.7847V108.121H4V19.1974H31.3222L46.9923 72.5766L62.2605 19.1974H89.4823ZM154.39 72.0742C154.39 74 154.289 75.8421 154.088 77.6005H118.228C118.563 83.7129 120.605 86.7691 124.355 86.7691C126.766 86.7691 128.507 85.3876 129.579 82.6244H153.184C152.381 87.6483 150.673 92.1699 148.061 96.189C145.517 100.124 142.269 103.264 138.318 105.609C134.434 107.87 130.148 109 125.46 109C119.835 109 114.813 107.535 110.393 104.604C106.04 101.673 102.625 97.4868 100.147 92.0443C97.7364 86.518 96.531 80.0706 96.531 72.7022C96.531 65.3337 97.7364 58.9282 100.147 53.4856C102.625 47.9593 106.04 43.7309 110.393 40.8002C114.813 37.8696 119.835 36.4043 125.46 36.4043C131.085 36.4043 136.074 37.8696 140.427 40.8002C144.847 43.6471 148.262 47.75 150.673 53.1089C153.151 58.4677 154.39 64.7895 154.39 72.0742ZM131.789 65.4175C131.789 63.073 131.186 61.3146 129.981 60.1423C128.775 58.8864 127.268 58.2584 125.46 58.2584C121.509 58.2584 119.199 60.6447 118.529 65.4175H131.789ZM158.429 72.7022C158.429 65.25 159.433 58.8026 161.442 53.3601C163.518 47.8337 166.331 43.6471 169.88 40.8002C173.429 37.8696 177.414 36.4043 181.834 36.4043C185.517 36.4043 188.664 37.3672 191.276 39.2931C193.954 41.1352 195.997 43.689 197.403 46.9546V15.1782H219.703V108.121H197.403V98.4498C195.997 101.715 193.954 104.311 191.276 106.237C188.664 108.079 185.517 109 181.834 109C177.414 109 173.429 107.577 169.88 104.73C166.331 101.799 163.518 97.6124 161.442 92.1699C159.433 86.6435 158.429 80.1543 158.429 72.7022ZM197.504 72.7022C197.504 68.9342 196.733 66.0036 195.193 63.9103C193.653 61.817 191.678 60.7703 189.267 60.7703C186.856 60.7703 184.88 61.817 183.34 63.9103C181.8 66.0036 181.03 68.9342 181.03 72.7022C181.03 76.4701 181.8 79.4007 183.34 81.494C184.88 83.5873 186.856 84.634 189.267 84.634C191.678 84.634 193.653 83.5873 195.193 81.494C196.733 79.4007 197.504 76.4701 197.504 72.7022ZM240.967 31.6316C237.083 31.6316 233.969 30.3337 231.625 27.738C229.281 25.1423 228.109 21.8768 228.109 17.9414C228.109 13.9223 229.281 10.6148 231.625 8.01914C233.969 5.33971 237.083 4 240.967 4C244.784 4 247.864 5.33971 250.208 8.01914C252.552 10.6148 253.724 13.9223 253.724 17.9414C253.724 21.8768 252.552 25.1423 250.208 27.738C247.864 30.3337 244.784 31.6316 240.967 31.6316ZM252.016 37.2835V108.121H229.716V37.2835H252.016ZM259.074 72.7022C259.074 65.25 260.079 58.8026 262.088 53.3601C264.164 47.8337 266.976 43.6471 270.525 40.8002C274.075 37.8696 278.059 36.4043 282.479 36.4043C286.162 36.4043 289.343 37.3672 292.022 39.2931C294.7 41.1352 296.743 43.689 298.149 46.9546V37.2835H320.348V108.121H298.149V98.4498C296.743 101.715 294.7 104.311 292.022 106.237C289.343 108.079 286.162 109 282.479 109C278.059 109 274.075 107.577 270.525 104.73C266.976 101.799 264.164 97.6124 262.088 92.1699C260.079 86.6435 259.074 80.1543 259.074 72.7022ZM298.149 72.7022C298.149 68.9342 297.379 66.0036 295.839 63.9103C294.298 61.817 292.323 60.7703 289.912 60.7703C287.501 60.7703 285.526 61.817 283.986 63.9103C282.445 66.0036 281.675 68.9342 281.675 72.7022C281.675 76.4701 282.445 79.4007 283.986 81.494C285.526 83.5873 287.501 84.634 289.912 84.634C292.323 84.634 294.298 83.5873 295.839 81.494C297.379 79.4007 298.149 76.4701 298.149 72.7022ZM402.276 72.0742C402.276 74 402.175 75.8421 401.974 77.6005H366.114C366.449 83.7129 368.491 86.7691 372.241 86.7691C374.652 86.7691 376.393 85.3876 377.465 82.6244H401.07C400.267 87.6483 398.559 92.1699 395.947 96.189C393.403 100.124 390.155 103.264 386.204 105.609C382.32 107.87 378.034 109 373.346 109C367.721 109 362.699 107.535 358.279 104.604C353.926 101.673 350.511 97.4868 348.033 92.0443C345.622 86.518 344.417 80.0706 344.417 72.7022C344.417 65.3337 345.622 58.9282 348.033 53.4856C350.511 47.9593 353.926 43.7309 358.279 40.8002C362.699 37.8696 367.721 36.4043 373.346 36.4043C378.971 36.4043 383.96 37.8696 388.313 40.8002C392.733 43.6471 396.148 47.75 398.559 53.1089C401.037 58.4677 402.276 64.7895 402.276 72.0742ZM379.674 65.4175C379.674 63.073 379.072 61.3146 377.866 60.1423C376.661 58.8864 375.154 58.2584 373.346 58.2584C369.395 58.2584 367.085 60.6447 366.415 65.4175H379.674ZM477.634 19.1974L452.12 81.1172V108.121H429.82V81.1172L404.306 19.1974H429.82L441.171 50.7225L452.521 19.1974H477.634ZM537.548 72.0742C537.548 74 537.448 75.8421 537.247 77.6005H501.387C501.722 83.7129 503.764 86.7691 507.514 86.7691C509.925 86.7691 511.666 85.3876 512.737 82.6244H536.343C535.539 87.6483 533.832 92.1699 531.22 96.189C528.675 100.124 525.428 103.264 521.477 105.609C517.593 107.87 513.307 109 508.619 109C502.994 109 497.971 107.535 493.552 104.604C489.199 101.673 485.784 97.4868 483.306 92.0443C480.895 86.518 479.69 80.0706 479.69 72.7022C479.69 65.3337 480.895 58.9282 483.306 53.4856C485.784 47.9593 489.199 43.7309 493.552 40.8002C497.971 37.8696 502.994 36.4043 508.619 36.4043C514.244 36.4043 519.233 37.8696 523.586 40.8002C528.006 43.6471 531.421 47.75 533.832 53.1089C536.31 58.4677 537.548 64.7895 537.548 72.0742ZM514.947 65.4175C514.947 63.073 514.345 61.3146 513.139 60.1423C511.934 58.8864 510.427 58.2584 508.619 58.2584C504.668 58.2584 502.358 60.6447 501.688 65.4175H514.947ZM629.875 108.121H607.575L583.969 63.4079V108.121H561.67V19.1974H583.969L607.575 64.6639V19.1974H629.875V108.121ZM690.174 19.1974V41.3026H662.249V53.6113H682.339V74.5861H662.249V108.121H639.949V19.1974H690.174ZM753.577 19.1974V41.3026H734.693V108.121H712.393V41.3026H693.709V19.1974H753.577ZM834.854 49.7177C834.854 55.3277 833.816 60.4354 831.74 65.0407C829.664 69.5622 826.583 73.1627 822.498 75.8421C818.48 78.5215 813.592 79.8613 807.833 79.8613H798.993V108.121H776.694V19.1974H807.833C816.538 19.1974 823.202 21.9605 827.822 27.4868C832.51 33.0132 834.854 40.4234 834.854 49.7177ZM805.322 57.8816C809.942 57.8816 812.253 55.1603 812.253 49.7177C812.253 44.2751 809.942 41.5538 805.322 41.5538H798.993V57.8816H805.322ZM868.847 109C863.155 109 858.032 107.535 853.478 104.604C848.925 101.673 845.342 97.4868 842.73 92.0443C840.186 86.518 838.913 80.0706 838.913 72.7022C838.913 65.3337 840.186 58.9282 842.73 53.4856C845.342 47.9593 848.925 43.7309 853.478 40.8002C858.032 37.8696 863.155 36.4043 868.847 36.4043C874.539 36.4043 879.662 37.8696 884.216 40.8002C888.77 43.7309 892.319 47.9593 894.863 53.4856C897.475 58.9282 898.781 65.3337 898.781 72.7022C898.781 80.0706 897.475 86.518 894.863 92.0443C892.319 97.4868 888.77 101.673 884.216 104.604C879.662 107.535 874.539 109 868.847 109ZM868.847 84.8852C870.923 84.8852 872.664 83.8804 874.07 81.8708C875.477 79.7775 876.18 76.7213 876.18 72.7022C876.18 68.683 875.477 65.6687 874.07 63.6591C872.664 61.5658 870.923 60.5191 868.847 60.5191C866.771 60.5191 865.03 61.5658 863.624 63.6591C862.217 65.6687 861.514 68.683 861.514 72.7022C861.514 76.7213 862.184 79.7775 863.523 81.8708C864.93 83.8804 866.704 84.8852 868.847 84.8852ZM928.086 50.3457C930.363 46.2428 933.142 42.9773 936.424 40.549C939.705 38.0371 943.12 36.7811 946.669 36.7811V66.5478H940.341C936.122 66.5478 933.008 67.4689 930.999 69.311C929.057 71.1531 928.086 74.4187 928.086 79.1077V108.121H905.786V37.2835H928.086V50.3457ZM987.934 84.3828V108.121H979.496C963.96 108.121 956.192 98.4498 956.192 79.1077V60.5191H949.16V37.2835H956.192V20.2022H978.491V37.2835H987.733V60.5191H978.491V79.6101C978.491 81.2847 978.793 82.4988 979.395 83.2524C980.065 84.006 981.136 84.3828 982.61 84.3828H987.934ZM993.413 72.7022C993.413 65.25 994.417 58.8026 996.426 53.3601C998.502 47.8337 1001.31 43.6471 1004.86 40.8002C1008.41 37.8696 1012.4 36.4043 1016.82 36.4043C1020.5 36.4043 1023.68 37.3672 1026.36 39.2931C1029.04 41.1352 1031.08 43.689 1032.49 46.9546V37.2835H1054.69V108.121H1032.49V98.4498C1031.08 101.715 1029.04 104.311 1026.36 106.237C1023.68 108.079 1020.5 109 1016.82 109C1012.4 109 1008.41 107.577 1004.86 104.73C1001.31 101.799 998.502 97.6124 996.426 92.1699C994.417 86.6435 993.413 80.1543 993.413 72.7022ZM1032.49 72.7022C1032.49 68.9342 1031.72 66.0036 1030.18 63.9103C1028.64 61.817 1026.66 60.7703 1024.25 60.7703C1021.84 60.7703 1019.86 61.817 1018.32 63.9103C1016.78 66.0036 1016.01 68.9342 1016.01 72.7022C1016.01 76.4701 1016.78 79.4007 1018.32 81.494C1019.86 83.5873 1021.84 84.634 1024.25 84.634C1026.66 84.634 1028.64 83.5873 1030.18 81.494C1031.72 79.4007 1032.49 76.4701 1032.49 72.7022ZM1087 15.1782V108.121H1064.7V15.1782H1087Z" stroke="url(#paint0_linear)" stroke-width="8" mask="url(#path-1-outside-1)"/>
<defs>
<linearGradient id="paint0_linear" x1="43.7908" y1="63.6382" x2="994.919" y2="63.6382" gradientUnits="userSpaceOnUse">
<stop stop-color="#5409E3"/>
<stop offset="0.47777" stop-color="#37D5FF"/>
<stop offset="1" stop-color="#F1A7FF"/>
</linearGradient>
</defs>
</svg>
