<svg  width="1087" height="109" viewBox="0 0 1087 109" fill="none" xmlns="http://www.w3.org/2000/svg">
<mask id="path-1-outside-1" maskUnits="userSpaceOnUse" x="0" y="0" width="1087" height="109" fill="black">
<rect fill="white" width="1087" height="109"/>
<path d="M87.4823 17.1974V106.121H65.283V61.7847L54.334 106.121H35.2487L24.2997 61.7847V106.121H2V17.1974H29.3222L44.9923 70.5766L60.2605 17.1974H87.4823ZM152.39 70.0742C152.39 72 152.289 73.8421 152.088 75.6005H116.228C116.563 81.7129 118.605 84.7691 122.355 84.7691C124.766 84.7691 126.507 83.3876 127.579 80.6244H151.184C150.381 85.6483 148.673 90.1699 146.061 94.189C143.517 98.1244 140.269 101.264 136.318 103.609C132.434 105.87 128.148 107 123.46 107C117.835 107 112.813 105.535 108.393 102.604C104.04 99.6734 100.625 95.4868 98.1471 90.0443C95.7364 84.5179 94.531 78.0706 94.531 70.7022C94.531 63.3337 95.7364 56.9282 98.1471 51.4856C100.625 45.9593 104.04 41.7309 108.393 38.8002C112.813 35.8696 117.835 34.4043 123.46 34.4043C129.085 34.4043 134.074 35.8696 138.427 38.8002C142.847 41.6471 146.262 45.75 148.673 51.1089C151.151 56.4677 152.39 62.7895 152.39 70.0742ZM129.789 63.4175C129.789 61.073 129.186 59.3146 127.981 58.1423C126.775 56.8864 125.268 56.2584 123.46 56.2584C119.509 56.2584 117.199 58.6447 116.529 63.4175H129.789ZM156.429 70.7022C156.429 63.25 157.433 56.8026 159.442 51.3601C161.518 45.8337 164.331 41.6471 167.88 38.8002C171.429 35.8696 175.414 34.4043 179.834 34.4043C183.517 34.4043 186.664 35.3672 189.276 37.2931C191.954 39.1352 193.997 41.689 195.403 44.9546V13.1782H217.703V106.121H195.403V96.4498C193.997 99.7153 191.954 102.311 189.276 104.237C186.664 106.079 183.517 107 179.834 107C175.414 107 171.429 105.577 167.88 102.73C164.331 99.799 161.518 95.6124 159.442 90.1699C157.433 84.6435 156.429 78.1543 156.429 70.7022ZM195.504 70.7022C195.504 66.9342 194.733 64.0036 193.193 61.9103C191.653 59.817 189.678 58.7703 187.267 58.7703C184.856 58.7703 182.88 59.817 181.34 61.9103C179.8 64.0036 179.03 66.9342 179.03 70.7022C179.03 74.4701 179.8 77.4007 181.34 79.494C182.88 81.5873 184.856 82.634 187.267 82.634C189.678 82.634 191.653 81.5873 193.193 79.494C194.733 77.4007 195.504 74.4701 195.504 70.7022ZM238.967 29.6316C235.083 29.6316 231.969 28.3337 229.625 25.738C227.281 23.1423 226.109 19.8768 226.109 15.9414C226.109 11.9223 227.281 8.61483 229.625 6.01914C231.969 3.33971 235.083 2 238.967 2C242.784 2 245.864 3.33971 248.208 6.01914C250.552 8.61483 251.724 11.9223 251.724 15.9414C251.724 19.8768 250.552 23.1423 248.208 25.738C245.864 28.3337 242.784 29.6316 238.967 29.6316ZM250.016 35.2835V106.121H227.716V35.2835H250.016ZM257.074 70.7022C257.074 63.25 258.079 56.8026 260.088 51.3601C262.164 45.8337 264.976 41.6471 268.525 38.8002C272.075 35.8696 276.059 34.4043 280.479 34.4043C284.162 34.4043 287.343 35.3672 290.022 37.2931C292.7 39.1352 294.743 41.689 296.149 44.9546V35.2835H318.348V106.121H296.149V96.4498C294.743 99.7153 292.7 102.311 290.022 104.237C287.343 106.079 284.162 107 280.479 107C276.059 107 272.075 105.577 268.525 102.73C264.976 99.799 262.164 95.6124 260.088 90.1699C258.079 84.6435 257.074 78.1543 257.074 70.7022ZM296.149 70.7022C296.149 66.9342 295.379 64.0036 293.839 61.9103C292.298 59.817 290.323 58.7703 287.912 58.7703C285.501 58.7703 283.526 59.817 281.986 61.9103C280.445 64.0036 279.675 66.9342 279.675 70.7022C279.675 74.4701 280.445 77.4007 281.986 79.494C283.526 81.5873 285.501 82.634 287.912 82.634C290.323 82.634 292.298 81.5873 293.839 79.494C295.379 77.4007 296.149 74.4701 296.149 70.7022ZM400.276 70.0742C400.276 72 400.175 73.8421 399.974 75.6005H364.114C364.449 81.7129 366.491 84.7691 370.241 84.7691C372.652 84.7691 374.393 83.3876 375.465 80.6244H399.07C398.267 85.6483 396.559 90.1699 393.947 94.189C391.403 98.1244 388.155 101.264 384.204 103.609C380.32 105.87 376.034 107 371.346 107C365.721 107 360.699 105.535 356.279 102.604C351.926 99.6734 348.511 95.4868 346.033 90.0443C343.622 84.5179 342.417 78.0706 342.417 70.7022C342.417 63.3337 343.622 56.9282 346.033 51.4856C348.511 45.9593 351.926 41.7309 356.279 38.8002C360.699 35.8696 365.721 34.4043 371.346 34.4043C376.971 34.4043 381.96 35.8696 386.313 38.8002C390.733 41.6471 394.148 45.75 396.559 51.1089C399.037 56.4677 400.276 62.7895 400.276 70.0742ZM377.674 63.4175C377.674 61.073 377.072 59.3146 375.866 58.1423C374.661 56.8864 373.154 56.2584 371.346 56.2584C367.395 56.2584 365.085 58.6447 364.415 63.4175H377.674ZM475.634 17.1974L450.12 79.1172V106.121H427.82V79.1172L402.306 17.1974H427.82L439.171 48.7225L450.521 17.1974H475.634ZM535.548 70.0742C535.548 72 535.448 73.8421 535.247 75.6005H499.387C499.722 81.7129 501.764 84.7691 505.514 84.7691C507.925 84.7691 509.666 83.3876 510.737 80.6244H534.343C533.539 85.6483 531.832 90.1699 529.22 94.189C526.675 98.1244 523.428 101.264 519.477 103.609C515.593 105.87 511.307 107 506.619 107C500.994 107 495.971 105.535 491.552 102.604C487.199 99.6734 483.784 95.4868 481.306 90.0443C478.895 84.5179 477.69 78.0706 477.69 70.7022C477.69 63.3337 478.895 56.9282 481.306 51.4856C483.784 45.9593 487.199 41.7309 491.552 38.8002C495.971 35.8696 500.994 34.4043 506.619 34.4043C512.244 34.4043 517.233 35.8696 521.586 38.8002C526.006 41.6471 529.421 45.75 531.832 51.1089C534.31 56.4677 535.548 62.7895 535.548 70.0742ZM512.947 63.4175C512.947 61.073 512.345 59.3146 511.139 58.1423C509.934 56.8864 508.427 56.2584 506.619 56.2584C502.668 56.2584 500.358 58.6447 499.688 63.4175H512.947ZM627.875 106.121H605.575L581.969 61.4079V106.121H559.67V17.1974H581.969L605.575 62.6639V17.1974H627.875V106.121ZM688.174 17.1974V39.3026H660.249V51.6113H680.339V72.5861H660.249V106.121H637.949V17.1974H688.174ZM751.577 17.1974V39.3026H732.693V106.121H710.393V39.3026H691.709V17.1974H751.577ZM832.854 47.7177C832.854 53.3278 831.816 58.4354 829.74 63.0407C827.664 67.5622 824.583 71.1627 820.498 73.8421C816.48 76.5215 811.592 77.8613 805.833 77.8613H796.993V106.121H774.694V17.1974H805.833C814.538 17.1974 821.202 19.9605 825.822 25.4868C830.51 31.0132 832.854 38.4234 832.854 47.7177ZM803.322 55.8816C807.942 55.8816 810.253 53.1603 810.253 47.7177C810.253 42.2751 807.942 39.5538 803.322 39.5538H796.993V55.8816H803.322ZM866.847 107C861.155 107 856.032 105.535 851.478 102.604C846.925 99.6734 843.342 95.4868 840.73 90.0443C838.186 84.5179 836.913 78.0706 836.913 70.7022C836.913 63.3337 838.186 56.9282 840.73 51.4856C843.342 45.9593 846.925 41.7309 851.478 38.8002C856.032 35.8696 861.155 34.4043 866.847 34.4043C872.539 34.4043 877.662 35.8696 882.216 38.8002C886.77 41.7309 890.319 45.9593 892.863 51.4856C895.475 56.9282 896.781 63.3337 896.781 70.7022C896.781 78.0706 895.475 84.5179 892.863 90.0443C890.319 95.4868 886.77 99.6734 882.216 102.604C877.662 105.535 872.539 107 866.847 107ZM866.847 82.8852C868.923 82.8852 870.664 81.8804 872.07 79.8708C873.477 77.7775 874.18 74.7213 874.18 70.7022C874.18 66.683 873.477 63.6687 872.07 61.6591C870.664 59.5658 868.923 58.5191 866.847 58.5191C864.771 58.5191 863.03 59.5658 861.624 61.6591C860.217 63.6687 859.514 66.683 859.514 70.7022C859.514 74.7213 860.184 77.7775 861.523 79.8708C862.93 81.8804 864.704 82.8852 866.847 82.8852ZM926.086 48.3457C928.363 44.2428 931.142 40.9773 934.424 38.549C937.705 36.0371 941.12 34.7811 944.669 34.7811V64.5478H938.341C934.122 64.5478 931.008 65.4689 928.999 67.311C927.057 69.1531 926.086 72.4187 926.086 77.1077V106.121H903.786V35.2835H926.086V48.3457ZM985.934 82.3828V106.121H977.496C961.96 106.121 954.192 96.4498 954.192 77.1077V58.5191H947.16V35.2835H954.192V18.2022H976.491V35.2835H985.733V58.5191H976.491V77.6101C976.491 79.2847 976.793 80.4988 977.395 81.2524C978.065 82.006 979.137 82.3828 980.61 82.3828H985.934ZM991.413 70.7022C991.413 63.25 992.417 56.8026 994.426 51.3601C996.502 45.8337 999.315 41.6471 1002.86 38.8002C1006.41 35.8696 1010.4 34.4043 1014.82 34.4043C1018.5 34.4043 1021.68 35.3672 1024.36 37.2931C1027.04 39.1352 1029.08 41.689 1030.49 44.9546V35.2835H1052.69V106.121H1030.49V96.4498C1029.08 99.7153 1027.04 102.311 1024.36 104.237C1021.68 106.079 1018.5 107 1014.82 107C1010.4 107 1006.41 105.577 1002.86 102.73C999.315 99.799 996.502 95.6124 994.426 90.1699C992.417 84.6435 991.413 78.1543 991.413 70.7022ZM1030.49 70.7022C1030.49 66.9342 1029.72 64.0036 1028.18 61.9103C1026.64 59.817 1024.66 58.7703 1022.25 58.7703C1019.84 58.7703 1017.86 59.817 1016.32 61.9103C1014.78 64.0036 1014.01 66.9342 1014.01 70.7022C1014.01 74.4701 1014.78 77.4007 1016.32 79.494C1017.86 81.5873 1019.84 82.634 1022.25 82.634C1024.66 82.634 1026.64 81.5873 1028.18 79.494C1029.72 77.4007 1030.49 74.4701 1030.49 70.7022ZM1085 13.1782V106.121H1062.7V13.1782H1085Z"/>
</mask>
<path d="M87.4823 17.1974V106.121H65.283V61.7847L54.334 106.121H35.2487L24.2997 61.7847V106.121H2V17.1974H29.3222L44.9923 70.5766L60.2605 17.1974H87.4823ZM152.39 70.0742C152.39 72 152.289 73.8421 152.088 75.6005H116.228C116.563 81.7129 118.605 84.7691 122.355 84.7691C124.766 84.7691 126.507 83.3876 127.579 80.6244H151.184C150.381 85.6483 148.673 90.1699 146.061 94.189C143.517 98.1244 140.269 101.264 136.318 103.609C132.434 105.87 128.148 107 123.46 107C117.835 107 112.813 105.535 108.393 102.604C104.04 99.6734 100.625 95.4868 98.1471 90.0443C95.7364 84.5179 94.531 78.0706 94.531 70.7022C94.531 63.3337 95.7364 56.9282 98.1471 51.4856C100.625 45.9593 104.04 41.7309 108.393 38.8002C112.813 35.8696 117.835 34.4043 123.46 34.4043C129.085 34.4043 134.074 35.8696 138.427 38.8002C142.847 41.6471 146.262 45.75 148.673 51.1089C151.151 56.4677 152.39 62.7895 152.39 70.0742ZM129.789 63.4175C129.789 61.073 129.186 59.3146 127.981 58.1423C126.775 56.8864 125.268 56.2584 123.46 56.2584C119.509 56.2584 117.199 58.6447 116.529 63.4175H129.789ZM156.429 70.7022C156.429 63.25 157.433 56.8026 159.442 51.3601C161.518 45.8337 164.331 41.6471 167.88 38.8002C171.429 35.8696 175.414 34.4043 179.834 34.4043C183.517 34.4043 186.664 35.3672 189.276 37.2931C191.954 39.1352 193.997 41.689 195.403 44.9546V13.1782H217.703V106.121H195.403V96.4498C193.997 99.7153 191.954 102.311 189.276 104.237C186.664 106.079 183.517 107 179.834 107C175.414 107 171.429 105.577 167.88 102.73C164.331 99.799 161.518 95.6124 159.442 90.1699C157.433 84.6435 156.429 78.1543 156.429 70.7022ZM195.504 70.7022C195.504 66.9342 194.733 64.0036 193.193 61.9103C191.653 59.817 189.678 58.7703 187.267 58.7703C184.856 58.7703 182.88 59.817 181.34 61.9103C179.8 64.0036 179.03 66.9342 179.03 70.7022C179.03 74.4701 179.8 77.4007 181.34 79.494C182.88 81.5873 184.856 82.634 187.267 82.634C189.678 82.634 191.653 81.5873 193.193 79.494C194.733 77.4007 195.504 74.4701 195.504 70.7022ZM238.967 29.6316C235.083 29.6316 231.969 28.3337 229.625 25.738C227.281 23.1423 226.109 19.8768 226.109 15.9414C226.109 11.9223 227.281 8.61483 229.625 6.01914C231.969 3.33971 235.083 2 238.967 2C242.784 2 245.864 3.33971 248.208 6.01914C250.552 8.61483 251.724 11.9223 251.724 15.9414C251.724 19.8768 250.552 23.1423 248.208 25.738C245.864 28.3337 242.784 29.6316 238.967 29.6316ZM250.016 35.2835V106.121H227.716V35.2835H250.016ZM257.074 70.7022C257.074 63.25 258.079 56.8026 260.088 51.3601C262.164 45.8337 264.976 41.6471 268.525 38.8002C272.075 35.8696 276.059 34.4043 280.479 34.4043C284.162 34.4043 287.343 35.3672 290.022 37.2931C292.7 39.1352 294.743 41.689 296.149 44.9546V35.2835H318.348V106.121H296.149V96.4498C294.743 99.7153 292.7 102.311 290.022 104.237C287.343 106.079 284.162 107 280.479 107C276.059 107 272.075 105.577 268.525 102.73C264.976 99.799 262.164 95.6124 260.088 90.1699C258.079 84.6435 257.074 78.1543 257.074 70.7022ZM296.149 70.7022C296.149 66.9342 295.379 64.0036 293.839 61.9103C292.298 59.817 290.323 58.7703 287.912 58.7703C285.501 58.7703 283.526 59.817 281.986 61.9103C280.445 64.0036 279.675 66.9342 279.675 70.7022C279.675 74.4701 280.445 77.4007 281.986 79.494C283.526 81.5873 285.501 82.634 287.912 82.634C290.323 82.634 292.298 81.5873 293.839 79.494C295.379 77.4007 296.149 74.4701 296.149 70.7022ZM400.276 70.0742C400.276 72 400.175 73.8421 399.974 75.6005H364.114C364.449 81.7129 366.491 84.7691 370.241 84.7691C372.652 84.7691 374.393 83.3876 375.465 80.6244H399.07C398.267 85.6483 396.559 90.1699 393.947 94.189C391.403 98.1244 388.155 101.264 384.204 103.609C380.32 105.87 376.034 107 371.346 107C365.721 107 360.699 105.535 356.279 102.604C351.926 99.6734 348.511 95.4868 346.033 90.0443C343.622 84.5179 342.417 78.0706 342.417 70.7022C342.417 63.3337 343.622 56.9282 346.033 51.4856C348.511 45.9593 351.926 41.7309 356.279 38.8002C360.699 35.8696 365.721 34.4043 371.346 34.4043C376.971 34.4043 381.96 35.8696 386.313 38.8002C390.733 41.6471 394.148 45.75 396.559 51.1089C399.037 56.4677 400.276 62.7895 400.276 70.0742ZM377.674 63.4175C377.674 61.073 377.072 59.3146 375.866 58.1423C374.661 56.8864 373.154 56.2584 371.346 56.2584C367.395 56.2584 365.085 58.6447 364.415 63.4175H377.674ZM475.634 17.1974L450.12 79.1172V106.121H427.82V79.1172L402.306 17.1974H427.82L439.171 48.7225L450.521 17.1974H475.634ZM535.548 70.0742C535.548 72 535.448 73.8421 535.247 75.6005H499.387C499.722 81.7129 501.764 84.7691 505.514 84.7691C507.925 84.7691 509.666 83.3876 510.737 80.6244H534.343C533.539 85.6483 531.832 90.1699 529.22 94.189C526.675 98.1244 523.428 101.264 519.477 103.609C515.593 105.87 511.307 107 506.619 107C500.994 107 495.971 105.535 491.552 102.604C487.199 99.6734 483.784 95.4868 481.306 90.0443C478.895 84.5179 477.69 78.0706 477.69 70.7022C477.69 63.3337 478.895 56.9282 481.306 51.4856C483.784 45.9593 487.199 41.7309 491.552 38.8002C495.971 35.8696 500.994 34.4043 506.619 34.4043C512.244 34.4043 517.233 35.8696 521.586 38.8002C526.006 41.6471 529.421 45.75 531.832 51.1089C534.31 56.4677 535.548 62.7895 535.548 70.0742ZM512.947 63.4175C512.947 61.073 512.345 59.3146 511.139 58.1423C509.934 56.8864 508.427 56.2584 506.619 56.2584C502.668 56.2584 500.358 58.6447 499.688 63.4175H512.947ZM627.875 106.121H605.575L581.969 61.4079V106.121H559.67V17.1974H581.969L605.575 62.6639V17.1974H627.875V106.121ZM688.174 17.1974V39.3026H660.249V51.6113H680.339V72.5861H660.249V106.121H637.949V17.1974H688.174ZM751.577 17.1974V39.3026H732.693V106.121H710.393V39.3026H691.709V17.1974H751.577ZM832.854 47.7177C832.854 53.3278 831.816 58.4354 829.74 63.0407C827.664 67.5622 824.583 71.1627 820.498 73.8421C816.48 76.5215 811.592 77.8613 805.833 77.8613H796.993V106.121H774.694V17.1974H805.833C814.538 17.1974 821.202 19.9605 825.822 25.4868C830.51 31.0132 832.854 38.4234 832.854 47.7177ZM803.322 55.8816C807.942 55.8816 810.253 53.1603 810.253 47.7177C810.253 42.2751 807.942 39.5538 803.322 39.5538H796.993V55.8816H803.322ZM866.847 107C861.155 107 856.032 105.535 851.478 102.604C846.925 99.6734 843.342 95.4868 840.73 90.0443C838.186 84.5179 836.913 78.0706 836.913 70.7022C836.913 63.3337 838.186 56.9282 840.73 51.4856C843.342 45.9593 846.925 41.7309 851.478 38.8002C856.032 35.8696 861.155 34.4043 866.847 34.4043C872.539 34.4043 877.662 35.8696 882.216 38.8002C886.77 41.7309 890.319 45.9593 892.863 51.4856C895.475 56.9282 896.781 63.3337 896.781 70.7022C896.781 78.0706 895.475 84.5179 892.863 90.0443C890.319 95.4868 886.77 99.6734 882.216 102.604C877.662 105.535 872.539 107 866.847 107ZM866.847 82.8852C868.923 82.8852 870.664 81.8804 872.07 79.8708C873.477 77.7775 874.18 74.7213 874.18 70.7022C874.18 66.683 873.477 63.6687 872.07 61.6591C870.664 59.5658 868.923 58.5191 866.847 58.5191C864.771 58.5191 863.03 59.5658 861.624 61.6591C860.217 63.6687 859.514 66.683 859.514 70.7022C859.514 74.7213 860.184 77.7775 861.523 79.8708C862.93 81.8804 864.704 82.8852 866.847 82.8852ZM926.086 48.3457C928.363 44.2428 931.142 40.9773 934.424 38.549C937.705 36.0371 941.12 34.7811 944.669 34.7811V64.5478H938.341C934.122 64.5478 931.008 65.4689 928.999 67.311C927.057 69.1531 926.086 72.4187 926.086 77.1077V106.121H903.786V35.2835H926.086V48.3457ZM985.934 82.3828V106.121H977.496C961.96 106.121 954.192 96.4498 954.192 77.1077V58.5191H947.16V35.2835H954.192V18.2022H976.491V35.2835H985.733V58.5191H976.491V77.6101C976.491 79.2847 976.793 80.4988 977.395 81.2524C978.065 82.006 979.137 82.3828 980.61 82.3828H985.934ZM991.413 70.7022C991.413 63.25 992.417 56.8026 994.426 51.3601C996.502 45.8337 999.315 41.6471 1002.86 38.8002C1006.41 35.8696 1010.4 34.4043 1014.82 34.4043C1018.5 34.4043 1021.68 35.3672 1024.36 37.2931C1027.04 39.1352 1029.08 41.689 1030.49 44.9546V35.2835H1052.69V106.121H1030.49V96.4498C1029.08 99.7153 1027.04 102.311 1024.36 104.237C1021.68 106.079 1018.5 107 1014.82 107C1010.4 107 1006.41 105.577 1002.86 102.73C999.315 99.799 996.502 95.6124 994.426 90.1699C992.417 84.6435 991.413 78.1543 991.413 70.7022ZM1030.49 70.7022C1030.49 66.9342 1029.72 64.0036 1028.18 61.9103C1026.64 59.817 1024.66 58.7703 1022.25 58.7703C1019.84 58.7703 1017.86 59.817 1016.32 61.9103C1014.78 64.0036 1014.01 66.9342 1014.01 70.7022C1014.01 74.4701 1014.78 77.4007 1016.32 79.494C1017.86 81.5873 1019.84 82.634 1022.25 82.634C1024.66 82.634 1026.64 81.5873 1028.18 79.494C1029.72 77.4007 1030.49 74.4701 1030.49 70.7022ZM1085 13.1782V106.121H1062.7V13.1782H1085Z" stroke="url(#paint0_linear)" strokeWidth="4" mask="url(#path-1-outside-1)"/>
<defs>
<linearGradient id="paint0_linear" x1="41.7908" y1="61.6382" x2="992.919" y2="61.6382" gradientUnits="userSpaceOnUse">
<stop stopColor="#5409E3"/>
<stop offset="0.47777" stopColor="#37D5FF"/>
<stop offset="1" stopColor="#F1A7FF"/>
</linearGradient>
</defs>
</svg>
