<svg width="833" height="110" viewBox="0 0 833 110" fill="none" xmlns="http://www.w3.org/2000/svg">
<mask id="path-1-outside-1" maskUnits="userSpaceOnUse" x="0" y="0" width="833" height="110" fill="black">
<rect fill="white" width="833" height="110"/>
<path d="M80.608 16.474V104.926H59.062V68.512H25.546V104.926H4V16.474H25.546V51.124H59.062V16.474H80.608ZM128.166 105.934C121.278 105.934 115.062 104.464 109.518 101.524C104.058 98.584 99.7321 94.384 96.5401 88.924C93.4321 83.464 91.8781 77.08 91.8781 69.772C91.8781 62.548 93.4741 56.206 96.6661 50.746C99.8581 45.202 104.226 40.96 109.77 38.02C115.314 35.08 121.53 33.61 128.418 33.61C135.306 33.61 141.522 35.08 147.066 38.02C152.61 40.96 156.978 45.202 160.17 50.746C163.362 56.206 164.958 62.548 164.958 69.772C164.958 76.996 163.32 83.38 160.044 88.924C156.852 94.384 152.442 98.584 146.814 101.524C141.27 104.464 135.054 105.934 128.166 105.934ZM128.166 87.286C132.282 87.286 135.768 85.774 138.624 82.75C141.564 79.726 143.034 75.4 143.034 69.772C143.034 64.144 141.606 59.818 138.75 56.794C135.978 53.77 132.534 52.258 128.418 52.258C124.218 52.258 120.732 53.77 117.96 56.794C115.188 59.734 113.802 64.06 113.802 69.772C113.802 75.4 115.146 79.726 117.834 82.75C120.606 85.774 124.05 87.286 128.166 87.286ZM277.315 34.618L258.289 104.926H234.475L223.387 59.314L211.921 104.926H188.233L169.081 34.618H190.627L200.581 84.892L212.425 34.618H235.231L247.201 84.64L257.029 34.618H277.315ZM323.068 27.31C319.288 27.31 316.18 26.218 313.744 24.034C311.392 21.766 310.216 18.994 310.216 15.718C310.216 12.358 311.392 9.586 313.744 7.402C316.18 5.134 319.288 4 323.068 4C326.764 4 329.788 5.134 332.14 7.402C334.576 9.586 335.794 12.358 335.794 15.718C335.794 18.994 334.576 21.766 332.14 24.034C329.788 26.218 326.764 27.31 323.068 27.31ZM333.778 34.618V104.926H312.232V34.618H333.778ZM388.579 86.656V104.926H377.617C369.805 104.926 363.715 103.036 359.347 99.256C354.979 95.392 352.795 89.134 352.795 80.482V52.51H344.227V34.618H352.795V17.482H374.341V34.618H388.453V52.51H374.341V80.734C374.341 82.834 374.845 84.346 375.853 85.27C376.861 86.194 378.541 86.656 380.893 86.656H388.579ZM548.997 16.474L525.939 104.926H499.857L485.745 46.714L471.129 104.926H445.047L422.619 16.474H445.677L458.403 80.86L474.153 16.474H497.841L512.961 80.86L525.813 16.474H548.997ZM591.807 105.934C584.919 105.934 578.703 104.464 573.159 101.524C567.699 98.584 563.373 94.384 560.181 88.924C557.073 83.464 555.519 77.08 555.519 69.772C555.519 62.548 557.115 56.206 560.307 50.746C563.499 45.202 567.867 40.96 573.411 38.02C578.955 35.08 585.171 33.61 592.059 33.61C598.947 33.61 605.163 35.08 610.707 38.02C616.251 40.96 620.619 45.202 623.811 50.746C627.003 56.206 628.599 62.548 628.599 69.772C628.599 76.996 626.961 83.38 623.685 88.924C620.493 94.384 616.083 98.584 610.455 101.524C604.911 104.464 598.695 105.934 591.807 105.934ZM591.807 87.286C595.923 87.286 599.409 85.774 602.265 82.75C605.205 79.726 606.675 75.4 606.675 69.772C606.675 64.144 605.247 59.818 602.391 56.794C599.619 53.77 596.175 52.258 592.059 52.258C587.859 52.258 584.373 53.77 581.601 56.794C578.829 59.734 577.443 64.06 577.443 69.772C577.443 75.4 578.787 79.726 581.475 82.75C584.247 85.774 587.691 87.286 591.807 87.286ZM661.575 46.336C664.095 42.472 667.245 39.448 671.025 37.264C674.805 34.996 679.005 33.862 683.625 33.862V56.668H677.703C672.327 56.668 668.295 57.844 665.607 60.196C662.919 62.464 661.575 66.496 661.575 72.292V104.926H640.029V34.618H661.575V46.336ZM736.89 104.926L715.47 75.442V104.926H693.924V11.686H715.47V63.22L736.764 34.618H763.35L734.118 69.898L763.602 104.926H736.89ZM800.414 105.934C794.282 105.934 788.823 104.884 784.034 102.784C779.246 100.684 775.466 97.828 772.695 94.216C769.923 90.52 768.368 86.404 768.032 81.868H789.326C789.578 84.304 790.713 86.278 792.729 87.79C794.745 89.302 797.222 90.058 800.162 90.058C802.85 90.058 804.909 89.554 806.336 88.546C807.849 87.454 808.604 86.068 808.604 84.388C808.604 82.372 807.555 80.902 805.455 79.978C803.355 78.97 799.952 77.878 795.248 76.702C790.208 75.526 786.008 74.308 782.648 73.048C779.289 71.704 776.391 69.646 773.955 66.874C771.519 64.018 770.3 60.196 770.3 55.408C770.3 51.376 771.392 47.722 773.576 44.446C775.844 41.086 779.12 38.44 783.404 36.508C787.772 34.576 792.939 33.61 798.903 33.61C807.723 33.61 814.653 35.794 819.693 40.162C824.817 44.53 827.757 50.326 828.513 57.55H808.604C808.268 55.114 807.177 53.182 805.328 51.754C803.565 50.326 801.213 49.612 798.273 49.612C795.753 49.612 793.82 50.116 792.477 51.124C791.133 52.048 790.461 53.35 790.461 55.03C790.461 57.046 791.51 58.558 793.61 59.566C795.794 60.574 799.154 61.582 803.69 62.59C808.898 63.934 813.141 65.278 816.417 66.622C819.693 67.882 822.549 69.982 824.984 72.922C827.505 75.778 828.807 79.642 828.891 84.514C828.891 88.63 827.714 92.326 825.362 95.602C823.094 98.794 819.776 101.314 815.409 103.162C811.125 105.01 806.126 105.934 800.414 105.934Z"/>
</mask>
<path d="M80.608 16.474V104.926H59.062V68.512H25.546V104.926H4V16.474H25.546V51.124H59.062V16.474H80.608ZM128.166 105.934C121.278 105.934 115.062 104.464 109.518 101.524C104.058 98.584 99.7321 94.384 96.5401 88.924C93.4321 83.464 91.8781 77.08 91.8781 69.772C91.8781 62.548 93.4741 56.206 96.6661 50.746C99.8581 45.202 104.226 40.96 109.77 38.02C115.314 35.08 121.53 33.61 128.418 33.61C135.306 33.61 141.522 35.08 147.066 38.02C152.61 40.96 156.978 45.202 160.17 50.746C163.362 56.206 164.958 62.548 164.958 69.772C164.958 76.996 163.32 83.38 160.044 88.924C156.852 94.384 152.442 98.584 146.814 101.524C141.27 104.464 135.054 105.934 128.166 105.934ZM128.166 87.286C132.282 87.286 135.768 85.774 138.624 82.75C141.564 79.726 143.034 75.4 143.034 69.772C143.034 64.144 141.606 59.818 138.75 56.794C135.978 53.77 132.534 52.258 128.418 52.258C124.218 52.258 120.732 53.77 117.96 56.794C115.188 59.734 113.802 64.06 113.802 69.772C113.802 75.4 115.146 79.726 117.834 82.75C120.606 85.774 124.05 87.286 128.166 87.286ZM277.315 34.618L258.289 104.926H234.475L223.387 59.314L211.921 104.926H188.233L169.081 34.618H190.627L200.581 84.892L212.425 34.618H235.231L247.201 84.64L257.029 34.618H277.315ZM323.068 27.31C319.288 27.31 316.18 26.218 313.744 24.034C311.392 21.766 310.216 18.994 310.216 15.718C310.216 12.358 311.392 9.586 313.744 7.402C316.18 5.134 319.288 4 323.068 4C326.764 4 329.788 5.134 332.14 7.402C334.576 9.586 335.794 12.358 335.794 15.718C335.794 18.994 334.576 21.766 332.14 24.034C329.788 26.218 326.764 27.31 323.068 27.31ZM333.778 34.618V104.926H312.232V34.618H333.778ZM388.579 86.656V104.926H377.617C369.805 104.926 363.715 103.036 359.347 99.256C354.979 95.392 352.795 89.134 352.795 80.482V52.51H344.227V34.618H352.795V17.482H374.341V34.618H388.453V52.51H374.341V80.734C374.341 82.834 374.845 84.346 375.853 85.27C376.861 86.194 378.541 86.656 380.893 86.656H388.579ZM548.997 16.474L525.939 104.926H499.857L485.745 46.714L471.129 104.926H445.047L422.619 16.474H445.677L458.403 80.86L474.153 16.474H497.841L512.961 80.86L525.813 16.474H548.997ZM591.807 105.934C584.919 105.934 578.703 104.464 573.159 101.524C567.699 98.584 563.373 94.384 560.181 88.924C557.073 83.464 555.519 77.08 555.519 69.772C555.519 62.548 557.115 56.206 560.307 50.746C563.499 45.202 567.867 40.96 573.411 38.02C578.955 35.08 585.171 33.61 592.059 33.61C598.947 33.61 605.163 35.08 610.707 38.02C616.251 40.96 620.619 45.202 623.811 50.746C627.003 56.206 628.599 62.548 628.599 69.772C628.599 76.996 626.961 83.38 623.685 88.924C620.493 94.384 616.083 98.584 610.455 101.524C604.911 104.464 598.695 105.934 591.807 105.934ZM591.807 87.286C595.923 87.286 599.409 85.774 602.265 82.75C605.205 79.726 606.675 75.4 606.675 69.772C606.675 64.144 605.247 59.818 602.391 56.794C599.619 53.77 596.175 52.258 592.059 52.258C587.859 52.258 584.373 53.77 581.601 56.794C578.829 59.734 577.443 64.06 577.443 69.772C577.443 75.4 578.787 79.726 581.475 82.75C584.247 85.774 587.691 87.286 591.807 87.286ZM661.575 46.336C664.095 42.472 667.245 39.448 671.025 37.264C674.805 34.996 679.005 33.862 683.625 33.862V56.668H677.703C672.327 56.668 668.295 57.844 665.607 60.196C662.919 62.464 661.575 66.496 661.575 72.292V104.926H640.029V34.618H661.575V46.336ZM736.89 104.926L715.47 75.442V104.926H693.924V11.686H715.47V63.22L736.764 34.618H763.35L734.118 69.898L763.602 104.926H736.89ZM800.414 105.934C794.282 105.934 788.823 104.884 784.034 102.784C779.246 100.684 775.466 97.828 772.695 94.216C769.923 90.52 768.368 86.404 768.032 81.868H789.326C789.578 84.304 790.713 86.278 792.729 87.79C794.745 89.302 797.222 90.058 800.162 90.058C802.85 90.058 804.909 89.554 806.336 88.546C807.849 87.454 808.604 86.068 808.604 84.388C808.604 82.372 807.555 80.902 805.455 79.978C803.355 78.97 799.952 77.878 795.248 76.702C790.208 75.526 786.008 74.308 782.648 73.048C779.289 71.704 776.391 69.646 773.955 66.874C771.519 64.018 770.3 60.196 770.3 55.408C770.3 51.376 771.392 47.722 773.576 44.446C775.844 41.086 779.12 38.44 783.404 36.508C787.772 34.576 792.939 33.61 798.903 33.61C807.723 33.61 814.653 35.794 819.693 40.162C824.817 44.53 827.757 50.326 828.513 57.55H808.604C808.268 55.114 807.177 53.182 805.328 51.754C803.565 50.326 801.213 49.612 798.273 49.612C795.753 49.612 793.82 50.116 792.477 51.124C791.133 52.048 790.461 53.35 790.461 55.03C790.461 57.046 791.51 58.558 793.61 59.566C795.794 60.574 799.154 61.582 803.69 62.59C808.898 63.934 813.141 65.278 816.417 66.622C819.693 67.882 822.549 69.982 824.984 72.922C827.505 75.778 828.807 79.642 828.891 84.514C828.891 88.63 827.714 92.326 825.362 95.602C823.094 98.794 819.776 101.314 815.409 103.162C811.125 105.01 806.126 105.934 800.414 105.934Z" stroke="url(#paint0_linear)" stroke-width="8" mask="url(#path-1-outside-1)"/>
<defs>
<linearGradient id="paint0_linear" x1="34.2241" y1="54.926" x2="794.724" y2="54.9261" gradientUnits="userSpaceOnUse">
<stop stop-color="#511EE6"/>
<stop offset="0.524741" stop-color="#60CBFF"/>
<stop offset="1" stop-color="#511EE6"/>
</linearGradient>
</defs>
</svg>
