<svg width="829" height="106" viewBox="0 0 829 106" fill="none" xmlns="http://www.w3.org/2000/svg">
<mask id="path-1-outside-1" maskUnits="userSpaceOnUse" x="0" y="0" width="829" height="106" fill="black">
<rect fill="white" width="829" height="106"/>
<path d="M78.608 14.474V102.926H57.062V66.512H23.546V102.926H2V14.474H23.546V49.124H57.062V14.474H78.608ZM126.166 103.934C119.278 103.934 113.062 102.464 107.518 99.524C102.058 96.584 97.7321 92.384 94.5401 86.924C91.4321 81.464 89.8781 75.08 89.8781 67.772C89.8781 60.548 91.4741 54.206 94.6661 48.746C97.8581 43.202 102.226 38.96 107.77 36.02C113.314 33.08 119.53 31.61 126.418 31.61C133.306 31.61 139.522 33.08 145.066 36.02C150.61 38.96 154.978 43.202 158.17 48.746C161.362 54.206 162.958 60.548 162.958 67.772C162.958 74.996 161.32 81.38 158.044 86.924C154.852 92.384 150.442 96.584 144.814 99.524C139.27 102.464 133.054 103.934 126.166 103.934ZM126.166 85.286C130.282 85.286 133.768 83.774 136.624 80.75C139.564 77.726 141.034 73.4 141.034 67.772C141.034 62.144 139.606 57.818 136.75 54.794C133.978 51.77 130.534 50.258 126.418 50.258C122.218 50.258 118.732 51.77 115.96 54.794C113.188 57.734 111.802 62.06 111.802 67.772C111.802 73.4 113.146 77.726 115.834 80.75C118.606 83.774 122.05 85.286 126.166 85.286ZM275.315 32.618L256.289 102.926H232.475L221.387 57.314L209.921 102.926H186.233L167.081 32.618H188.627L198.581 82.892L210.425 32.618H233.231L245.201 82.64L255.029 32.618H275.315ZM321.068 25.31C317.288 25.31 314.18 24.218 311.744 22.034C309.392 19.766 308.216 16.994 308.216 13.718C308.216 10.358 309.392 7.586 311.744 5.402C314.18 3.134 317.288 2 321.068 2C324.764 2 327.788 3.134 330.14 5.402C332.576 7.586 333.794 10.358 333.794 13.718C333.794 16.994 332.576 19.766 330.14 22.034C327.788 24.218 324.764 25.31 321.068 25.31ZM331.778 32.618V102.926H310.232V32.618H331.778ZM386.579 84.656V102.926H375.617C367.805 102.926 361.715 101.036 357.347 97.256C352.979 93.392 350.795 87.134 350.795 78.482V50.51H342.227V32.618H350.795V15.482H372.341V32.618H386.453V50.51H372.341V78.734C372.341 80.834 372.845 82.346 373.853 83.27C374.861 84.194 376.541 84.656 378.893 84.656H386.579ZM546.997 14.474L523.939 102.926H497.857L483.745 44.714L469.129 102.926H443.047L420.619 14.474H443.677L456.403 78.86L472.153 14.474H495.841L510.961 78.86L523.813 14.474H546.997ZM589.807 103.934C582.919 103.934 576.703 102.464 571.159 99.524C565.699 96.584 561.373 92.384 558.181 86.924C555.073 81.464 553.519 75.08 553.519 67.772C553.519 60.548 555.115 54.206 558.307 48.746C561.499 43.202 565.867 38.96 571.411 36.02C576.955 33.08 583.171 31.61 590.059 31.61C596.947 31.61 603.163 33.08 608.707 36.02C614.251 38.96 618.619 43.202 621.811 48.746C625.003 54.206 626.599 60.548 626.599 67.772C626.599 74.996 624.961 81.38 621.685 86.924C618.493 92.384 614.083 96.584 608.455 99.524C602.911 102.464 596.695 103.934 589.807 103.934ZM589.807 85.286C593.923 85.286 597.409 83.774 600.265 80.75C603.205 77.726 604.675 73.4 604.675 67.772C604.675 62.144 603.247 57.818 600.391 54.794C597.619 51.77 594.175 50.258 590.059 50.258C585.859 50.258 582.373 51.77 579.601 54.794C576.829 57.734 575.443 62.06 575.443 67.772C575.443 73.4 576.787 77.726 579.475 80.75C582.247 83.774 585.691 85.286 589.807 85.286ZM659.575 44.336C662.095 40.472 665.245 37.448 669.025 35.264C672.805 32.996 677.005 31.862 681.625 31.862V54.668H675.703C670.327 54.668 666.295 55.844 663.607 58.196C660.919 60.464 659.575 64.496 659.575 70.292V102.926H638.029V32.618H659.575V44.336ZM734.89 102.926L713.47 73.442V102.926H691.924V9.68601H713.47V61.22L734.764 32.618H761.35L732.118 67.898L761.602 102.926H734.89ZM798.414 103.934C792.282 103.934 786.823 102.884 782.034 100.784C777.246 98.684 773.466 95.828 770.695 92.216C767.923 88.52 766.368 84.404 766.032 79.868H787.326C787.578 82.304 788.713 84.278 790.729 85.79C792.745 87.302 795.222 88.058 798.162 88.058C800.85 88.058 802.909 87.554 804.336 86.546C805.849 85.454 806.604 84.068 806.604 82.388C806.604 80.372 805.555 78.902 803.455 77.978C801.355 76.97 797.952 75.878 793.248 74.702C788.208 73.526 784.008 72.308 780.648 71.048C777.289 69.704 774.391 67.646 771.955 64.874C769.519 62.018 768.3 58.196 768.3 53.408C768.3 49.376 769.392 45.722 771.576 42.446C773.844 39.086 777.12 36.44 781.404 34.508C785.772 32.576 790.939 31.61 796.903 31.61C805.723 31.61 812.653 33.794 817.693 38.162C822.817 42.53 825.757 48.326 826.513 55.55H806.604C806.268 53.114 805.177 51.182 803.328 49.754C801.565 48.326 799.213 47.612 796.273 47.612C793.753 47.612 791.82 48.116 790.477 49.124C789.133 50.048 788.461 51.35 788.461 53.03C788.461 55.046 789.51 56.558 791.61 57.566C793.794 58.574 797.154 59.582 801.69 60.59C806.898 61.934 811.141 63.278 814.417 64.622C817.693 65.882 820.549 67.982 822.984 70.922C825.505 73.778 826.807 77.642 826.891 82.514C826.891 86.63 825.714 90.326 823.362 93.602C821.094 96.794 817.776 99.314 813.409 101.162C809.125 103.01 804.126 103.934 798.414 103.934Z"/>
</mask>
<path d="M78.608 14.474V102.926H57.062V66.512H23.546V102.926H2V14.474H23.546V49.124H57.062V14.474H78.608ZM126.166 103.934C119.278 103.934 113.062 102.464 107.518 99.524C102.058 96.584 97.7321 92.384 94.5401 86.924C91.4321 81.464 89.8781 75.08 89.8781 67.772C89.8781 60.548 91.4741 54.206 94.6661 48.746C97.8581 43.202 102.226 38.96 107.77 36.02C113.314 33.08 119.53 31.61 126.418 31.61C133.306 31.61 139.522 33.08 145.066 36.02C150.61 38.96 154.978 43.202 158.17 48.746C161.362 54.206 162.958 60.548 162.958 67.772C162.958 74.996 161.32 81.38 158.044 86.924C154.852 92.384 150.442 96.584 144.814 99.524C139.27 102.464 133.054 103.934 126.166 103.934ZM126.166 85.286C130.282 85.286 133.768 83.774 136.624 80.75C139.564 77.726 141.034 73.4 141.034 67.772C141.034 62.144 139.606 57.818 136.75 54.794C133.978 51.77 130.534 50.258 126.418 50.258C122.218 50.258 118.732 51.77 115.96 54.794C113.188 57.734 111.802 62.06 111.802 67.772C111.802 73.4 113.146 77.726 115.834 80.75C118.606 83.774 122.05 85.286 126.166 85.286ZM275.315 32.618L256.289 102.926H232.475L221.387 57.314L209.921 102.926H186.233L167.081 32.618H188.627L198.581 82.892L210.425 32.618H233.231L245.201 82.64L255.029 32.618H275.315ZM321.068 25.31C317.288 25.31 314.18 24.218 311.744 22.034C309.392 19.766 308.216 16.994 308.216 13.718C308.216 10.358 309.392 7.586 311.744 5.402C314.18 3.134 317.288 2 321.068 2C324.764 2 327.788 3.134 330.14 5.402C332.576 7.586 333.794 10.358 333.794 13.718C333.794 16.994 332.576 19.766 330.14 22.034C327.788 24.218 324.764 25.31 321.068 25.31ZM331.778 32.618V102.926H310.232V32.618H331.778ZM386.579 84.656V102.926H375.617C367.805 102.926 361.715 101.036 357.347 97.256C352.979 93.392 350.795 87.134 350.795 78.482V50.51H342.227V32.618H350.795V15.482H372.341V32.618H386.453V50.51H372.341V78.734C372.341 80.834 372.845 82.346 373.853 83.27C374.861 84.194 376.541 84.656 378.893 84.656H386.579ZM546.997 14.474L523.939 102.926H497.857L483.745 44.714L469.129 102.926H443.047L420.619 14.474H443.677L456.403 78.86L472.153 14.474H495.841L510.961 78.86L523.813 14.474H546.997ZM589.807 103.934C582.919 103.934 576.703 102.464 571.159 99.524C565.699 96.584 561.373 92.384 558.181 86.924C555.073 81.464 553.519 75.08 553.519 67.772C553.519 60.548 555.115 54.206 558.307 48.746C561.499 43.202 565.867 38.96 571.411 36.02C576.955 33.08 583.171 31.61 590.059 31.61C596.947 31.61 603.163 33.08 608.707 36.02C614.251 38.96 618.619 43.202 621.811 48.746C625.003 54.206 626.599 60.548 626.599 67.772C626.599 74.996 624.961 81.38 621.685 86.924C618.493 92.384 614.083 96.584 608.455 99.524C602.911 102.464 596.695 103.934 589.807 103.934ZM589.807 85.286C593.923 85.286 597.409 83.774 600.265 80.75C603.205 77.726 604.675 73.4 604.675 67.772C604.675 62.144 603.247 57.818 600.391 54.794C597.619 51.77 594.175 50.258 590.059 50.258C585.859 50.258 582.373 51.77 579.601 54.794C576.829 57.734 575.443 62.06 575.443 67.772C575.443 73.4 576.787 77.726 579.475 80.75C582.247 83.774 585.691 85.286 589.807 85.286ZM659.575 44.336C662.095 40.472 665.245 37.448 669.025 35.264C672.805 32.996 677.005 31.862 681.625 31.862V54.668H675.703C670.327 54.668 666.295 55.844 663.607 58.196C660.919 60.464 659.575 64.496 659.575 70.292V102.926H638.029V32.618H659.575V44.336ZM734.89 102.926L713.47 73.442V102.926H691.924V9.68601H713.47V61.22L734.764 32.618H761.35L732.118 67.898L761.602 102.926H734.89ZM798.414 103.934C792.282 103.934 786.823 102.884 782.034 100.784C777.246 98.684 773.466 95.828 770.695 92.216C767.923 88.52 766.368 84.404 766.032 79.868H787.326C787.578 82.304 788.713 84.278 790.729 85.79C792.745 87.302 795.222 88.058 798.162 88.058C800.85 88.058 802.909 87.554 804.336 86.546C805.849 85.454 806.604 84.068 806.604 82.388C806.604 80.372 805.555 78.902 803.455 77.978C801.355 76.97 797.952 75.878 793.248 74.702C788.208 73.526 784.008 72.308 780.648 71.048C777.289 69.704 774.391 67.646 771.955 64.874C769.519 62.018 768.3 58.196 768.3 53.408C768.3 49.376 769.392 45.722 771.576 42.446C773.844 39.086 777.12 36.44 781.404 34.508C785.772 32.576 790.939 31.61 796.903 31.61C805.723 31.61 812.653 33.794 817.693 38.162C822.817 42.53 825.757 48.326 826.513 55.55H806.604C806.268 53.114 805.177 51.182 803.328 49.754C801.565 48.326 799.213 47.612 796.273 47.612C793.753 47.612 791.82 48.116 790.477 49.124C789.133 50.048 788.461 51.35 788.461 53.03C788.461 55.046 789.51 56.558 791.61 57.566C793.794 58.574 797.154 59.582 801.69 60.59C806.898 61.934 811.141 63.278 814.417 64.622C817.693 65.882 820.549 67.982 822.984 70.922C825.505 73.778 826.807 77.642 826.891 82.514C826.891 86.63 825.714 90.326 823.362 93.602C821.094 96.794 817.776 99.314 813.409 101.162C809.125 103.01 804.126 103.934 798.414 103.934Z" stroke="url(#paint0_linear)" stroke-width="4" mask="url(#path-1-outside-1)"/>
<defs>
<linearGradient id="paint0_linear" x1="32.2241" y1="52.926" x2="792.724" y2="52.9261" gradientUnits="userSpaceOnUse">
<stop stop-color="#511EE6"/>
<stop offset="0.524741" stop-color="#60CBFF"/>
<stop offset="1" stop-color="#F1A7FF"/>
</linearGradient>
</defs>
</svg>
