<svg width="253" height="287" viewBox="0 0 253 287" fill="none" xmlns="http://www.w3.org/2000/svg">
<g filter="url(#filter0_b)">
<path d="M106.5 191.501L106.5 262.209L77.5205 286.501L0.500008 286.501L0.500001 214.662L25.6712 191.501L106.5 191.501Z" stroke="url(#paint0_linear)"/>
</g>
<g filter="url(#filter1_b)">
<path d="M111.5 0.500481L111.5 71.209L82.5205 95.5005L5.50001 95.5005L5.5 23.6617L30.6712 0.500488L111.5 0.500481Z" stroke="url(#paint1_linear)"/>
</g>
<mask id="mask0" mask-type="alpha" maskUnits="userSpaceOnUse" x="106" y="16" width="148" height="242">
<path d="M239.832 199.746L212.35 199.746L162.538 249.558L141.926 249.558" stroke="white"/>
<path d="M239.258 192.876L210.058 192.876L168.262 234.672L106.999 234.672" stroke="white"/>
<path d="M239.258 186.578L204.905 187.15L171.697 220.931L137.917 220.931" stroke="white"/>
<path d="M244.412 163.103L215.785 163.103L173.416 206.617L125.894 206.617" stroke="white"/>
<path d="M247.848 155.66L212.35 155.66L191.165 175.699L143.644 175.699" stroke="white"/>
<path d="M249.564 159.668L213.494 159.668L187.157 186.005L179.141 186.005L173.415 191.731L125.894 191.731" stroke="white"/>
<circle cx="134.483" cy="249.558" r="7.44314" transform="rotate(180 134.483 249.558)" fill="white"/>
<circle cx="138.489" cy="175.699" r="5.72549" transform="rotate(180 138.489 175.699)" fill="white"/>
<circle cx="133.338" cy="220.931" r="3.50784" transform="rotate(180 133.338 220.931)" stroke="white"/>
<circle cx="121.887" cy="206.044" r="3.50784" transform="rotate(180 121.887 206.044)" stroke="white"/>
<circle cx="121.887" cy="191.158" r="3.50784" transform="rotate(180 121.887 191.158)" stroke="white"/>
<path d="M243.385 72.5991L216.234 72.5991L167.022 23.3875L146.659 23.3875" stroke="white"/>
<path d="M242.818 79.387L213.97 79.387L172.678 38.0945L112.153 38.0945" stroke="white"/>
<path d="M242.818 85.609L208.879 85.0433L176.072 51.6699L142.698 51.6699" stroke="white"/>
<path d="M247.908 108.801L219.626 108.801L177.768 65.8117L130.819 65.8117" stroke="white"/>
<path d="M251.303 116.154L216.232 116.154L195.303 96.3565L148.354 96.3565" stroke="white"/>
<path d="M253 112.195L217.364 112.195L191.344 86.175L183.425 86.175L177.768 80.5185L130.819 80.5185" stroke="white"/>
<circle r="7.35346" transform="matrix(-1 8.74228e-08 8.74228e-08 1 139.305 23.3875)" fill="white"/>
<circle r="5.65651" transform="matrix(-1 8.74228e-08 8.74228e-08 1 143.263 96.3565)" fill="white"/>
<circle r="3.45955" transform="matrix(-1 8.74228e-08 8.74228e-08 1 138.173 51.67)" stroke="white"/>
<circle r="3.45955" transform="matrix(-1 8.74228e-08 8.74228e-08 1 126.861 66.3768)" stroke="white"/>
<circle r="3.45955" transform="matrix(-1 8.74228e-08 8.74228e-08 1 126.861 81.0841)" stroke="white"/>
</mask>
<g mask="url(#mask0)">
<rect x="253" y="263.001" width="155" height="247" transform="rotate(180 253 263.001)" fill="url(#paint2_linear)"/>
</g>
<path d="M42.7661 239.018H52.4516V232.383H42.1055C42.1526 234.608 42.3735 236.827 42.7661 239.018Z" fill="url(#paint3_linear)"/>
<path d="M52.4507 222.3C49.3449 222.264 46.2442 222.039 43.1657 221.626C42.5197 224.43 42.1664 227.294 42.1113 230.172H52.4507V222.3Z" fill="url(#paint4_linear)"/>
<path d="M52.4511 208.167C48.8945 208.911 45.5858 213.194 43.7188 219.467C46.6148 219.845 49.5306 220.053 52.4511 220.088V208.167Z" fill="url(#paint5_linear)"/>
<path d="M46.8361 209.065C42.0524 210.504 37.8622 213.451 34.8906 217.467C37.0433 218.226 39.2604 218.788 41.5145 219.147C42.4571 215.409 44.2819 211.952 46.8361 209.065Z" fill="url(#paint6_linear)"/>
<path d="M30.3633 232.383C30.4778 234.945 31.0232 237.469 31.9766 239.849C32.6796 239.143 33.5367 238.61 34.4805 238.291C36.4331 237.762 38.4981 237.819 40.4187 238.454C40.1078 236.444 39.9315 234.416 39.891 232.383H30.3633Z" fill="url(#paint7_linear)"/>
<path d="M33.6409 219.361C31.6723 222.638 30.5499 226.353 30.375 230.172H39.9006C39.9561 227.185 40.3159 224.212 40.9745 221.299C38.4722 220.896 36.0158 220.247 33.6409 219.361Z" fill="url(#paint8_linear)"/>
<path d="M66.1406 221.298C66.7992 224.212 67.1588 227.185 67.214 230.172H76.7394C76.5645 226.353 75.4422 222.638 73.4735 219.361C71.0989 220.247 68.6427 220.895 66.1406 221.298Z" fill="url(#paint9_linear)"/>
<path d="M72.6298 238.291C73.5739 238.61 74.4312 239.143 75.1346 239.849C76.0882 237.468 76.6337 234.944 76.7481 232.383H67.2204C67.1793 234.464 66.996 236.54 66.6719 238.596C68.5708 237.844 70.664 237.737 72.6298 238.291Z" fill="url(#paint10_linear)"/>
<path d="M60.2695 209.056C62.8279 211.945 64.6558 215.405 65.5996 219.146C67.8538 218.788 70.0708 218.226 72.2235 217.467C69.2501 213.447 65.0569 210.497 60.2695 209.056Z" fill="url(#paint11_linear)"/>
<path d="M54.6621 239.018H64.3514C64.7423 236.827 64.962 234.608 65.0085 232.383H54.6621V239.018Z" fill="url(#paint12_linear)"/>
<path d="M54.6621 230.172H65.0015C64.9465 227.294 64.5931 224.43 63.9469 221.625C60.8686 222.039 57.7679 222.264 54.6621 222.3V230.172Z" fill="url(#paint13_linear)"/>
<path d="M54.6621 208.167V220.089C57.5825 220.053 60.4984 219.845 63.3944 219.467C61.525 213.189 58.2152 208.908 54.6621 208.167Z" fill="url(#paint14_linear)"/>
<path d="M44.7035 255.605C43.3614 255.603 42.1503 256.41 41.6351 257.649C41.1199 258.889 41.4022 260.316 42.3502 261.266C43.2982 262.216 44.7252 262.501 45.9655 261.989C47.2059 261.476 48.0152 260.267 48.0159 258.925V258.923V258.921C48.0144 257.092 46.5328 255.609 44.7035 255.605Z" fill="url(#paint15_linear)"/>
<path d="M62.3966 255.605C61.0544 255.603 59.8433 256.41 59.3282 257.65C58.8132 258.889 59.0959 260.317 60.0443 261.267C60.9927 262.217 62.4199 262.501 63.6602 261.988C64.9004 261.475 65.7092 260.265 65.7092 258.923C65.7086 257.093 64.2267 255.609 62.3966 255.605Z" fill="url(#paint16_linear)"/>
<path d="M77.9339 254.095C77.4901 251.762 77.03 249.351 76.3669 247.064C76.1369 246.277 75.8914 245.54 75.615 244.813C74.629 242.271 73.493 240.905 71.9358 240.391C70.0384 239.766 68.0249 240.386 66.1334 241.149C66.0022 241.203 65.8618 241.23 65.7202 241.23H41.8759C41.7342 241.23 41.5937 241.203 41.4624 241.149L41.4402 241.141L41.4338 241.138C39.9852 240.558 37.2736 239.701 35.1749 240.391C33.6188 240.905 32.4832 242.271 31.4941 244.82C31.2161 245.554 30.9703 246.29 30.7462 247.064C30.0837 249.345 29.6248 251.752 29.1815 254.079L28.9169 255.456C28.2863 258.315 28.042 261.245 28.1906 264.168C28.3701 266.339 29.1628 269.981 32.463 269.981C34.8847 269.981 37.4019 266.282 39.1962 260.087C39.2198 260.03 39.2483 259.975 39.2816 259.923C38.6999 256.931 40.654 254.034 43.6461 253.452C46.6383 252.871 49.5354 254.825 50.1171 257.817H56.9853C57.5625 254.824 60.4563 252.866 63.4488 253.443C66.4414 254.021 68.3995 256.914 67.8224 259.907C67.8594 259.964 67.8909 260.024 67.9163 260.087C69.7104 266.282 72.2272 269.981 74.6488 269.981C77.949 269.981 78.7428 266.339 78.9209 264.167C79.0705 261.243 78.8261 258.312 78.1942 255.454L77.9339 254.095ZM35.863 245.653C35.863 245.042 36.3581 244.547 36.9689 244.547C37.5796 244.547 38.0747 245.042 38.0747 245.653V246.759C38.0747 247.37 37.5796 247.865 36.9689 247.865C36.3581 247.865 35.863 247.37 35.863 246.759V245.653ZM34.7572 250.076H33.6514C33.0407 250.076 32.5456 249.581 32.5456 248.97C32.5456 248.36 33.0407 247.865 33.6514 247.865H34.7572C35.368 247.865 35.863 248.36 35.863 248.97C35.863 249.581 35.368 250.076 34.7572 250.076ZM38.0747 252.288C38.0747 252.899 37.5796 253.394 36.9689 253.394C36.3581 253.394 35.863 252.899 35.863 252.288V251.182C35.863 250.571 36.3581 250.076 36.9689 250.076C37.5796 250.076 38.0747 250.571 38.0747 251.182V252.288ZM40.2863 250.076H39.1805C38.5698 250.076 38.0747 249.581 38.0747 248.97C38.0747 248.36 38.5698 247.865 39.1805 247.865H40.2863C40.8971 247.865 41.3921 248.36 41.3921 248.97C41.3921 249.581 40.8971 250.076 40.2863 250.076ZM50.2387 250.076H48.0271C47.4163 250.076 46.9212 249.581 46.9212 248.97C46.9212 248.36 47.4163 247.865 48.0271 247.865H50.2387C50.8494 247.865 51.3445 248.36 51.3445 248.97C51.3445 249.581 50.8494 250.076 50.2387 250.076ZM59.0853 250.076H56.8736C56.2629 250.076 55.7678 249.581 55.7678 248.97C55.7678 248.36 56.2629 247.865 56.8736 247.865H59.0853C59.696 247.865 60.1911 248.36 60.1911 248.97C60.1911 249.581 59.696 250.076 59.0853 250.076ZM66.826 250.076C66.2153 250.076 65.7202 249.581 65.7202 248.97C65.7202 248.36 66.2153 247.865 66.826 247.865C67.4367 247.865 67.9318 248.36 67.9318 248.97C67.9318 249.581 67.4367 250.076 66.826 250.076ZM70.1435 253.394C69.5327 253.394 69.0376 252.899 69.0376 252.288C69.0376 251.677 69.5327 251.182 70.1435 251.182C70.7542 251.182 71.2493 251.677 71.2493 252.288C71.2493 252.899 70.7542 253.394 70.1435 253.394ZM70.1435 246.759C69.5327 246.759 69.0376 246.264 69.0376 245.653C69.0376 245.042 69.5327 244.547 70.1435 244.547C70.7542 244.547 71.2493 245.042 71.2493 245.653C71.2493 246.264 70.7542 246.759 70.1435 246.759ZM73.4609 250.076C72.8502 250.076 72.3551 249.581 72.3551 248.97C72.3551 248.36 72.8502 247.865 73.4609 247.865C74.0717 247.865 74.5667 248.36 74.5667 248.97C74.5667 249.581 74.0717 250.076 73.4609 250.076Z" fill="url(#paint17_linear)"/>
<g clip-path="url(#clip0)">
<path d="M59 23.0001C45.1944 23.0001 34 34.1945 34 48.0001C34 61.8057 45.1944 73.0001 59 73.0001C61.3056 73.0001 63.1667 71.1391 63.1667 68.8335C63.1667 67.7501 62.7639 66.7779 62.0833 66.0418C61.4306 65.3057 61.0417 64.3474 61.0417 63.2779C61.0417 60.9723 62.9027 59.1112 65.2083 59.1112H70.1111C77.7777 59.1112 84 52.8889 84 45.2223C84 32.9445 72.8056 23.0001 59 23.0001ZM43.7223 48.0001C41.4167 48.0001 39.5556 46.1391 39.5556 43.8335C39.5556 41.5279 41.4167 39.6668 43.7223 39.6668C46.0279 39.6668 47.8889 41.5279 47.8889 43.8335C47.8889 46.1391 46.0277 48.0001 43.7223 48.0001ZM52.0556 36.8891C49.75 36.8891 47.8889 35.028 47.8889 32.7224C47.8889 30.4168 49.75 28.5557 52.0556 28.5557C54.3612 28.5557 56.2223 30.4168 56.2223 32.7224C56.2223 35.028 54.3611 36.8891 52.0556 36.8891ZM65.9444 36.8891C63.6388 36.8891 61.7777 35.028 61.7777 32.7224C61.7777 30.4168 63.6388 28.5557 65.9444 28.5557C68.25 28.5557 70.1111 30.4168 70.1111 32.7224C70.1111 35.028 68.25 36.8891 65.9444 36.8891ZM74.2777 48.0001C71.9721 48.0001 70.1111 46.1391 70.1111 43.8335C70.1111 41.5279 71.9721 39.6668 74.2777 39.6668C76.5833 39.6668 78.4444 41.5279 78.4444 43.8335C78.4444 46.1391 76.5833 48.0001 74.2777 48.0001Z" fill="url(#paint18_linear)"/>
</g>
<defs>
<filter id="filter0_b" x="-22" y="169.001" width="151" height="140" filterUnits="userSpaceOnUse" color-interpolation-filters="sRGB">
<feFlood flood-opacity="0" result="BackgroundImageFix"/>
<feGaussianBlur in="BackgroundImage" stdDeviation="11"/>
<feComposite in2="SourceAlpha" operator="in" result="effect1_backgroundBlur"/>
<feBlend mode="normal" in="SourceGraphic" in2="effect1_backgroundBlur" result="shape"/>
</filter>
<filter id="filter1_b" x="-17" y="-21.9995" width="151" height="140" filterUnits="userSpaceOnUse" color-interpolation-filters="sRGB">
<feFlood flood-opacity="0" result="BackgroundImageFix"/>
<feGaussianBlur in="BackgroundImage" stdDeviation="11"/>
<feComposite in2="SourceAlpha" operator="in" result="effect1_backgroundBlur"/>
<feBlend mode="normal" in="SourceGraphic" in2="effect1_backgroundBlur" result="shape"/>
</filter>
<linearGradient id="paint0_linear" x1="53.5" y1="287.001" x2="53.5" y2="191.001" gradientUnits="userSpaceOnUse">
<stop stop-color="#035EC9"/>
<stop offset="1" stop-color="#2FE7FB"/>
</linearGradient>
<linearGradient id="paint1_linear" x1="58.5" y1="96.0005" x2="58.5" y2="0.000485329" gradientUnits="userSpaceOnUse">
<stop stop-color="#035EC9"/>
<stop offset="1" stop-color="#2FE7FB"/>
</linearGradient>
<linearGradient id="paint2_linear" x1="401" y1="393.501" x2="253" y2="394.501" gradientUnits="userSpaceOnUse">
<stop stop-color="#5409E3"/>
<stop offset="0.501217" stop-color="#37D5FF"/>
<stop offset="1" stop-color="#F1A7FF"/>
</linearGradient>
<linearGradient id="paint3_linear" x1="47.2786" y1="232.383" x2="47.2786" y2="239.018" gradientUnits="userSpaceOnUse">
<stop stop-color="#045FCA"/>
<stop offset="1" stop-color="#2FE6FB"/>
</linearGradient>
<linearGradient id="paint4_linear" x1="47.281" y1="221.626" x2="47.281" y2="230.172" gradientUnits="userSpaceOnUse">
<stop stop-color="#045FCA"/>
<stop offset="1" stop-color="#2FE6FB"/>
</linearGradient>
<linearGradient id="paint5_linear" x1="48.0849" y1="208.167" x2="48.0849" y2="220.088" gradientUnits="userSpaceOnUse">
<stop stop-color="#045FCA"/>
<stop offset="1" stop-color="#2FE6FB"/>
</linearGradient>
<linearGradient id="paint6_linear" x1="40.8634" y1="209.065" x2="40.8634" y2="219.147" gradientUnits="userSpaceOnUse">
<stop stop-color="#045FCA"/>
<stop offset="1" stop-color="#2FE6FB"/>
</linearGradient>
<linearGradient id="paint7_linear" x1="35.391" y1="232.383" x2="35.391" y2="239.849" gradientUnits="userSpaceOnUse">
<stop stop-color="#045FCA"/>
<stop offset="1" stop-color="#2FE6FB"/>
</linearGradient>
<linearGradient id="paint8_linear" x1="35.6748" y1="219.361" x2="35.6748" y2="230.172" gradientUnits="userSpaceOnUse">
<stop stop-color="#045FCA"/>
<stop offset="1" stop-color="#2FE6FB"/>
</linearGradient>
<linearGradient id="paint9_linear" x1="71.44" y1="219.361" x2="71.44" y2="230.172" gradientUnits="userSpaceOnUse">
<stop stop-color="#045FCA"/>
<stop offset="1" stop-color="#2FE6FB"/>
</linearGradient>
<linearGradient id="paint10_linear" x1="71.71" y1="232.383" x2="71.71" y2="239.849" gradientUnits="userSpaceOnUse">
<stop stop-color="#045FCA"/>
<stop offset="1" stop-color="#2FE6FB"/>
</linearGradient>
<linearGradient id="paint11_linear" x1="66.2465" y1="209.056" x2="66.2465" y2="219.146" gradientUnits="userSpaceOnUse">
<stop stop-color="#045FCA"/>
<stop offset="1" stop-color="#2FE6FB"/>
</linearGradient>
<linearGradient id="paint12_linear" x1="59.8353" y1="232.383" x2="59.8353" y2="239.018" gradientUnits="userSpaceOnUse">
<stop stop-color="#045FCA"/>
<stop offset="1" stop-color="#2FE6FB"/>
</linearGradient>
<linearGradient id="paint13_linear" x1="59.8318" y1="221.625" x2="59.8318" y2="230.172" gradientUnits="userSpaceOnUse">
<stop stop-color="#045FCA"/>
<stop offset="1" stop-color="#2FE6FB"/>
</linearGradient>
<linearGradient id="paint14_linear" x1="59.0283" y1="208.167" x2="59.0283" y2="220.089" gradientUnits="userSpaceOnUse">
<stop stop-color="#045FCA"/>
<stop offset="1" stop-color="#2FE6FB"/>
</linearGradient>
<linearGradient id="paint15_linear" x1="44.6984" y1="255.605" x2="44.6984" y2="262.24" gradientUnits="userSpaceOnUse">
<stop stop-color="#045FCA"/>
<stop offset="1" stop-color="#2FE6FB"/>
</linearGradient>
<linearGradient id="paint16_linear" x1="62.3917" y1="255.605" x2="62.3917" y2="262.24" gradientUnits="userSpaceOnUse">
<stop stop-color="#045FCA"/>
<stop offset="1" stop-color="#2FE6FB"/>
</linearGradient>
<linearGradient id="paint17_linear" x1="53.556" y1="240.134" x2="53.556" y2="269.981" gradientUnits="userSpaceOnUse">
<stop stop-color="#045FCA"/>
<stop offset="1" stop-color="#2FE6FB"/>
</linearGradient>
<linearGradient id="paint18_linear" x1="59" y1="23.0001" x2="59" y2="73.0001" gradientUnits="userSpaceOnUse">
<stop stop-color="#1085D8"/>
<stop offset="1" stop-color="#28D1F3"/>
</linearGradient>
<clipPath id="clip0">
<rect width="50" height="50" fill="white" transform="translate(34 23.0001)"/>
</clipPath>
</defs>
</svg>
