<svg width="253" height="287" viewBox="0 0 253 287" fill="none" xmlns="http://www.w3.org/2000/svg">
<g filter="url(#filter0_b)">
<path d="M106.5 191.5L106.5 262.209L77.5205 286.5L0.500008 286.5L0.500001 214.661L25.6712 191.5L106.5 191.5Z" stroke="url(#paint0_linear)"/>
</g>
<g filter="url(#filter1_b)">
<path d="M111.5 0.499992L111.5 71.2086L82.5205 95.5L5.50001 95.5L5.5 23.6612L30.6712 0.499999L111.5 0.499992Z" stroke="url(#paint1_linear)"/>
</g>
<mask id="mask0" style="mask-type:alpha" maskUnits="userSpaceOnUse" x="106" y="16" width="148" height="242">
<path d="M239.832 199.746L212.35 199.746L162.538 249.558L141.926 249.558" stroke="white"/>
<path d="M239.258 192.875L210.058 192.875L168.262 234.671L106.999 234.671" stroke="white"/>
<path d="M239.258 186.577L204.905 187.15L171.697 220.93L137.917 220.93" stroke="white"/>
<path d="M244.412 163.103L215.785 163.103L173.416 206.616L125.894 206.616" stroke="white"/>
<path d="M247.848 155.66L212.35 155.66L191.165 175.699L143.644 175.699" stroke="white"/>
<path d="M249.564 159.667L213.494 159.667L187.157 186.005L179.141 186.005L173.415 191.73L125.894 191.73" stroke="white"/>
<circle cx="134.483" cy="249.558" r="7.44314" transform="rotate(180 134.483 249.558)" fill="white"/>
<circle cx="138.489" cy="175.699" r="5.72549" transform="rotate(180 138.489 175.699)" fill="white"/>
<circle cx="133.338" cy="220.93" r="3.50784" transform="rotate(180 133.338 220.93)" stroke="white"/>
<circle cx="121.887" cy="206.044" r="3.50784" transform="rotate(180 121.887 206.044)" stroke="white"/>
<circle cx="121.887" cy="191.158" r="3.50784" transform="rotate(180 121.887 191.158)" stroke="white"/>
<path d="M243.385 72.5986L216.234 72.5986L167.022 23.387L146.659 23.387" stroke="white"/>
<path d="M242.818 79.3865L213.97 79.3865L172.678 38.094L112.153 38.094" stroke="white"/>
<path d="M242.818 85.6085L208.879 85.0428L176.072 51.6694L142.698 51.6694" stroke="white"/>
<path d="M247.908 108.8L219.626 108.8L177.768 65.811L130.819 65.811" stroke="white"/>
<path d="M251.303 116.153L216.232 116.153L195.303 96.3557L148.354 96.3557" stroke="white"/>
<path d="M253 112.194L217.364 112.194L191.344 86.1743L183.425 86.1743L177.768 80.5178L130.819 80.5178" stroke="white"/>
<circle r="7.35346" transform="matrix(-1 8.74228e-08 8.74228e-08 1 139.305 23.3869)" fill="white"/>
<circle r="5.65651" transform="matrix(-1 8.74228e-08 8.74228e-08 1 143.263 96.356)" fill="white"/>
<circle r="3.45955" transform="matrix(-1 8.74228e-08 8.74228e-08 1 138.173 51.6695)" stroke="white"/>
<circle r="3.45955" transform="matrix(-1 8.74228e-08 8.74228e-08 1 126.861 66.3763)" stroke="white"/>
<circle r="3.45955" transform="matrix(-1 8.74228e-08 8.74228e-08 1 126.861 81.0836)" stroke="white"/>
</mask>
<g mask="url(#mask0)">
<path d="M253 263.001L98 263.001L98 16.0007L253 16.0007L253 263.001Z" fill="url(#paint2_linear)"/>
</g>
<path d="M42.7661 239.017H52.4516V232.382H42.1055C42.1526 234.608 42.3735 236.826 42.7661 239.017Z" fill="url(#paint3_linear)"/>
<path d="M52.4507 222.3C49.3449 222.264 46.2442 222.039 43.1657 221.625C42.5197 224.43 42.1664 227.294 42.1113 230.171H52.4507V222.3Z" fill="url(#paint4_linear)"/>
<path d="M52.4511 208.167C48.8945 208.91 45.5858 213.194 43.7188 219.467C46.6148 219.845 49.5306 220.052 52.4511 220.088V208.167Z" fill="url(#paint5_linear)"/>
<path d="M46.8361 209.064C42.0524 210.503 37.8622 213.451 34.8906 217.466C37.0433 218.225 39.2604 218.787 41.5145 219.146C42.4571 215.409 44.2819 211.951 46.8361 209.064Z" fill="url(#paint6_linear)"/>
<path d="M30.3633 232.382C30.4778 234.944 31.0232 237.468 31.9766 239.848C32.6796 239.142 33.5367 238.609 34.4805 238.29C36.4331 237.761 38.4981 237.818 40.4187 238.453C40.1078 236.444 39.9315 234.416 39.891 232.382H30.3633Z" fill="url(#paint7_linear)"/>
<path d="M33.6409 219.361C31.6723 222.637 30.5499 226.352 30.375 230.171H39.9006C39.9561 227.184 40.3159 224.211 40.9745 221.298C38.4722 220.895 36.0158 220.246 33.6409 219.361Z" fill="url(#paint8_linear)"/>
<path d="M66.1406 221.298C66.7992 224.211 67.1588 227.184 67.214 230.171H76.7394C76.5645 226.352 75.4422 222.637 73.4735 219.361C71.0989 220.246 68.6427 220.895 66.1406 221.298Z" fill="url(#paint9_linear)"/>
<path d="M72.6298 238.29C73.5739 238.609 74.4312 239.142 75.1346 239.848C76.0882 237.468 76.6337 234.944 76.7481 232.382H67.2204C67.1793 234.463 66.996 236.539 66.6719 238.595C68.5708 237.844 70.664 237.737 72.6298 238.29Z" fill="url(#paint10_linear)"/>
<path d="M60.2695 209.056C62.8279 211.944 64.6558 215.404 65.5996 219.146C67.8538 218.787 70.0708 218.225 72.2235 217.466C69.2501 213.447 65.0569 210.497 60.2695 209.056Z" fill="url(#paint11_linear)"/>
<path d="M54.6621 239.017H64.3514C64.7423 236.826 64.962 234.608 65.0085 232.382H54.6621V239.017Z" fill="url(#paint12_linear)"/>
<path d="M54.6621 230.171H65.0015C64.9465 227.293 64.5931 224.429 63.9469 221.625C60.8686 222.038 57.7679 222.264 54.6621 222.3V230.171Z" fill="url(#paint13_linear)"/>
<path d="M54.6621 208.167V220.088C57.5825 220.053 60.4984 219.845 63.3944 219.467C61.525 213.189 58.2152 208.907 54.6621 208.167Z" fill="url(#paint14_linear)"/>
<path d="M44.7035 255.605C43.3614 255.603 42.1503 256.41 41.6351 257.649C41.1199 258.888 41.4022 260.316 42.3502 261.266C43.2982 262.216 44.7252 262.501 45.9655 261.988C47.2059 261.476 48.0152 260.266 48.0159 258.924V258.922V258.921C48.0144 257.091 46.5328 255.608 44.7035 255.605Z" fill="url(#paint15_linear)"/>
<path d="M62.3966 255.605C61.0544 255.603 59.8433 256.41 59.3282 257.65C58.8132 258.889 59.0959 260.317 60.0443 261.267C60.9927 262.216 62.4199 262.501 63.6602 261.988C64.9004 261.475 65.7092 260.265 65.7092 258.922C65.7086 257.092 64.2267 255.608 62.3966 255.605Z" fill="url(#paint16_linear)"/>
<path d="M77.9339 254.094C77.4901 251.761 77.03 249.35 76.3669 247.064C76.1369 246.276 75.8914 245.539 75.615 244.813C74.629 242.271 73.493 240.905 71.9358 240.391C70.0384 239.765 68.0249 240.385 66.1334 241.149C66.0022 241.202 65.8618 241.229 65.7202 241.229H41.8759C41.7342 241.229 41.5937 241.202 41.4624 241.149L41.4402 241.14L41.4338 241.138C39.9852 240.557 37.2736 239.7 35.1749 240.391C33.6188 240.905 32.4832 242.27 31.4941 244.82C31.2161 245.553 30.9703 246.289 30.7462 247.063C30.0837 249.345 29.6248 251.751 29.1815 254.078L28.9169 255.456C28.2863 258.314 28.042 261.244 28.1906 264.167C28.3701 266.338 29.1628 269.98 32.463 269.98C34.8847 269.98 37.4019 266.282 39.1962 260.087C39.2198 260.03 39.2483 259.975 39.2816 259.923C38.6999 256.931 40.654 254.033 43.6461 253.452C46.6383 252.87 49.5354 254.824 50.1171 257.816H56.9853C57.5625 254.824 60.4563 252.866 63.4488 253.443C66.4414 254.02 68.3995 256.914 67.8224 259.906C67.8594 259.963 67.8909 260.024 67.9163 260.086C69.7104 266.282 72.2272 269.98 74.6488 269.98C77.949 269.98 78.7428 266.338 78.9209 264.167C79.0705 261.243 78.8261 258.312 78.1942 255.453L77.9339 254.094ZM35.863 245.652C35.863 245.042 36.3581 244.547 36.9689 244.547C37.5796 244.547 38.0747 245.042 38.0747 245.652V246.758C38.0747 247.369 37.5796 247.864 36.9689 247.864C36.3581 247.864 35.863 247.369 35.863 246.758V245.652ZM34.7572 250.076H33.6514C33.0407 250.076 32.5456 249.581 32.5456 248.97C32.5456 248.359 33.0407 247.864 33.6514 247.864H34.7572C35.368 247.864 35.863 248.359 35.863 248.97C35.863 249.581 35.368 250.076 34.7572 250.076ZM38.0747 252.287C38.0747 252.898 37.5796 253.393 36.9689 253.393C36.3581 253.393 35.863 252.898 35.863 252.287V251.181C35.863 250.571 36.3581 250.076 36.9689 250.076C37.5796 250.076 38.0747 250.571 38.0747 251.181V252.287ZM40.2863 250.076H39.1805C38.5698 250.076 38.0747 249.581 38.0747 248.97C38.0747 248.359 38.5698 247.864 39.1805 247.864H40.2863C40.8971 247.864 41.3921 248.359 41.3921 248.97C41.3921 249.581 40.8971 250.076 40.2863 250.076ZM50.2387 250.076H48.0271C47.4163 250.076 46.9212 249.581 46.9212 248.97C46.9212 248.359 47.4163 247.864 48.0271 247.864H50.2387C50.8494 247.864 51.3445 248.359 51.3445 248.97C51.3445 249.581 50.8494 250.076 50.2387 250.076ZM59.0853 250.076H56.8736C56.2629 250.076 55.7678 249.581 55.7678 248.97C55.7678 248.359 56.2629 247.864 56.8736 247.864H59.0853C59.696 247.864 60.1911 248.359 60.1911 248.97C60.1911 249.581 59.696 250.076 59.0853 250.076ZM66.826 250.076C66.2153 250.076 65.7202 249.581 65.7202 248.97C65.7202 248.359 66.2153 247.864 66.826 247.864C67.4367 247.864 67.9318 248.359 67.9318 248.97C67.9318 249.581 67.4367 250.076 66.826 250.076ZM70.1435 253.393C69.5327 253.393 69.0376 252.898 69.0376 252.287C69.0376 251.677 69.5327 251.181 70.1435 251.181C70.7542 251.181 71.2493 251.677 71.2493 252.287C71.2493 252.898 70.7542 253.393 70.1435 253.393ZM70.1435 246.758C69.5327 246.758 69.0376 246.263 69.0376 245.652C69.0376 245.042 69.5327 244.547 70.1435 244.547C70.7542 244.547 71.2493 245.042 71.2493 245.652C71.2493 246.263 70.7542 246.758 70.1435 246.758ZM73.4609 250.076C72.8502 250.076 72.3551 249.581 72.3551 248.97C72.3551 248.359 72.8502 247.864 73.4609 247.864C74.0717 247.864 74.5667 248.359 74.5667 248.97C74.5667 249.581 74.0717 250.076 73.4609 250.076Z" fill="url(#paint17_linear)"/>
<g clip-path="url(#clip0)">
<path d="M59 22.9995C45.1944 22.9995 34 34.1939 34 47.9995C34 61.8051 45.1944 72.9995 59 72.9995C61.3056 72.9995 63.1667 71.1384 63.1667 68.8328C63.1667 67.7495 62.7639 66.7772 62.0833 66.0412C61.4306 65.3051 61.0417 64.3468 61.0417 63.2772C61.0417 60.9716 62.9027 59.1106 65.2083 59.1106H70.1111C77.7777 59.1106 84 52.8883 84 45.2216C84 32.9439 72.8056 22.9995 59 22.9995ZM43.7223 47.9995C41.4167 47.9995 39.5556 46.1384 39.5556 43.8328C39.5556 41.5272 41.4167 39.6662 43.7223 39.6662C46.0279 39.6662 47.8889 41.5272 47.8889 43.8328C47.8889 46.1384 46.0277 47.9995 43.7223 47.9995ZM52.0556 36.8884C49.75 36.8884 47.8889 35.0274 47.8889 32.7218C47.8889 30.4162 49.75 28.5551 52.0556 28.5551C54.3612 28.5551 56.2223 30.4162 56.2223 32.7218C56.2223 35.0274 54.3611 36.8884 52.0556 36.8884ZM65.9444 36.8884C63.6388 36.8884 61.7777 35.0274 61.7777 32.7218C61.7777 30.4162 63.6388 28.5551 65.9444 28.5551C68.25 28.5551 70.1111 30.4162 70.1111 32.7218C70.1111 35.0274 68.25 36.8884 65.9444 36.8884ZM74.2777 47.9995C71.9721 47.9995 70.1111 46.1384 70.1111 43.8328C70.1111 41.5272 71.9721 39.6662 74.2777 39.6662C76.5833 39.6662 78.4444 41.5272 78.4444 43.8328C78.4444 46.1384 76.5833 47.9995 74.2777 47.9995Z" fill="url(#paint18_linear)"/>
</g>
<defs>
<filter id="filter0_b" x="-22" y="169" width="151" height="140" filterUnits="userSpaceOnUse" color-interpolation-filters="sRGB">
<feFlood flood-opacity="0" result="BackgroundImageFix"/>
<feGaussianBlur in="BackgroundImage" stdDeviation="11"/>
<feComposite in2="SourceAlpha" operator="in" result="effect1_backgroundBlur"/>
<feBlend mode="normal" in="SourceGraphic" in2="effect1_backgroundBlur" result="shape"/>
</filter>
<filter id="filter1_b" x="-17" y="-22" width="151" height="140" filterUnits="userSpaceOnUse" color-interpolation-filters="sRGB">
<feFlood flood-opacity="0" result="BackgroundImageFix"/>
<feGaussianBlur in="BackgroundImage" stdDeviation="11"/>
<feComposite in2="SourceAlpha" operator="in" result="effect1_backgroundBlur"/>
<feBlend mode="normal" in="SourceGraphic" in2="effect1_backgroundBlur" result="shape"/>
</filter>
<linearGradient id="paint0_linear" x1="53.5" y1="287" x2="53.5" y2="191" gradientUnits="userSpaceOnUse">
<stop stop-color="#035EC9"/>
<stop offset="1" stop-color="#2FE7FB"/>
</linearGradient>
<linearGradient id="paint1_linear" x1="58.5" y1="96" x2="58.5" y2="-2.95228e-06" gradientUnits="userSpaceOnUse">
<stop stop-color="#035EC9"/>
<stop offset="1" stop-color="#2FE7FB"/>
</linearGradient>
<linearGradient id="paint2_linear" x1="105" y1="132.501" x2="253" y2="131.501" gradientUnits="userSpaceOnUse">
<stop stop-color="#5409E3"/>
<stop offset="0.501217" stop-color="#37D5FF"/>
<stop offset="1" stop-color="#F1A7FF"/>
</linearGradient>
<linearGradient id="paint3_linear" x1="47.2786" y1="232.382" x2="47.2786" y2="239.017" gradientUnits="userSpaceOnUse">
<stop stop-color="#045FCA"/>
<stop offset="1" stop-color="#2FE6FB"/>
</linearGradient>
<linearGradient id="paint4_linear" x1="47.281" y1="221.625" x2="47.281" y2="230.171" gradientUnits="userSpaceOnUse">
<stop stop-color="#045FCA"/>
<stop offset="1" stop-color="#2FE6FB"/>
</linearGradient>
<linearGradient id="paint5_linear" x1="48.0849" y1="208.167" x2="48.0849" y2="220.088" gradientUnits="userSpaceOnUse">
<stop stop-color="#045FCA"/>
<stop offset="1" stop-color="#2FE6FB"/>
</linearGradient>
<linearGradient id="paint6_linear" x1="40.8634" y1="209.064" x2="40.8634" y2="219.146" gradientUnits="userSpaceOnUse">
<stop stop-color="#045FCA"/>
<stop offset="1" stop-color="#2FE6FB"/>
</linearGradient>
<linearGradient id="paint7_linear" x1="35.391" y1="232.382" x2="35.391" y2="239.848" gradientUnits="userSpaceOnUse">
<stop stop-color="#045FCA"/>
<stop offset="1" stop-color="#2FE6FB"/>
</linearGradient>
<linearGradient id="paint8_linear" x1="35.6748" y1="219.361" x2="35.6748" y2="230.171" gradientUnits="userSpaceOnUse">
<stop stop-color="#045FCA"/>
<stop offset="1" stop-color="#2FE6FB"/>
</linearGradient>
<linearGradient id="paint9_linear" x1="71.44" y1="219.361" x2="71.44" y2="230.171" gradientUnits="userSpaceOnUse">
<stop stop-color="#045FCA"/>
<stop offset="1" stop-color="#2FE6FB"/>
</linearGradient>
<linearGradient id="paint10_linear" x1="71.71" y1="232.382" x2="71.71" y2="239.848" gradientUnits="userSpaceOnUse">
<stop stop-color="#045FCA"/>
<stop offset="1" stop-color="#2FE6FB"/>
</linearGradient>
<linearGradient id="paint11_linear" x1="66.2465" y1="209.056" x2="66.2465" y2="219.146" gradientUnits="userSpaceOnUse">
<stop stop-color="#045FCA"/>
<stop offset="1" stop-color="#2FE6FB"/>
</linearGradient>
<linearGradient id="paint12_linear" x1="59.8353" y1="232.382" x2="59.8353" y2="239.017" gradientUnits="userSpaceOnUse">
<stop stop-color="#045FCA"/>
<stop offset="1" stop-color="#2FE6FB"/>
</linearGradient>
<linearGradient id="paint13_linear" x1="59.8318" y1="221.625" x2="59.8318" y2="230.171" gradientUnits="userSpaceOnUse">
<stop stop-color="#045FCA"/>
<stop offset="1" stop-color="#2FE6FB"/>
</linearGradient>
<linearGradient id="paint14_linear" x1="59.0283" y1="208.167" x2="59.0283" y2="220.088" gradientUnits="userSpaceOnUse">
<stop stop-color="#045FCA"/>
<stop offset="1" stop-color="#2FE6FB"/>
</linearGradient>
<linearGradient id="paint15_linear" x1="44.6984" y1="255.605" x2="44.6984" y2="262.24" gradientUnits="userSpaceOnUse">
<stop stop-color="#045FCA"/>
<stop offset="1" stop-color="#2FE6FB"/>
</linearGradient>
<linearGradient id="paint16_linear" x1="62.3917" y1="255.605" x2="62.3917" y2="262.24" gradientUnits="userSpaceOnUse">
<stop stop-color="#045FCA"/>
<stop offset="1" stop-color="#2FE6FB"/>
</linearGradient>
<linearGradient id="paint17_linear" x1="53.556" y1="240.134" x2="53.556" y2="269.98" gradientUnits="userSpaceOnUse">
<stop stop-color="#045FCA"/>
<stop offset="1" stop-color="#2FE6FB"/>
</linearGradient>
<linearGradient id="paint18_linear" x1="59" y1="22.9995" x2="59" y2="72.9995" gradientUnits="userSpaceOnUse">
<stop stop-color="#1085D8"/>
<stop offset="1" stop-color="#28D1F3"/>
</linearGradient>
<clipPath id="clip0">
<rect width="50" height="50" fill="white" transform="translate(34 22.9995)"/>
</clipPath>
</defs>
</svg>
