<svg width="261" height="295" viewBox="0 0 261 295" fill="none" xmlns="http://www.w3.org/2000/svg">
<g filter="url(#filter0_d)">
<g filter="url(#filter1_b)">
<path d="M111 262.442L81.7024 287L4.00001 287L4 214.442L29.4762 191L111 191L111 262.442Z" fill="white"/>
<path d="M110.5 191.5L110.5 262.209L81.5205 286.5L4.50001 286.5L4.5 214.661L29.6712 191.5L110.5 191.5Z" stroke="url(#paint0_linear)"/>
</g>
<g filter="url(#filter2_b)">
<path d="M116 71.4419L86.7024 96L9.00001 96L9 23.4419L34.4762 -5.02357e-07L116 -7.62939e-06L116 71.4419Z" fill="white"/>
<path d="M115.5 0.499992L115.5 71.2086L86.5205 95.5L9.50001 95.5L9.5 23.6612L34.6712 0.499999L115.5 0.499992Z" stroke="url(#paint1_linear)"/>
</g>
<mask id="mask0" style="mask-type:alpha" maskUnits="userSpaceOnUse" x="110" y="16" width="148" height="242">
<path d="M243.832 199.746L216.35 199.746L166.538 249.558L145.926 249.558" stroke="white"/>
<path d="M243.258 192.875L214.058 192.875L172.262 234.671L110.999 234.671" stroke="white"/>
<path d="M243.258 186.577L208.905 187.15L175.697 220.93L141.917 220.93" stroke="white"/>
<path d="M248.412 163.103L219.785 163.103L177.416 206.616L129.894 206.616" stroke="white"/>
<path d="M251.848 155.66L216.35 155.66L195.165 175.699L147.644 175.699" stroke="white"/>
<path d="M253.564 159.667L217.494 159.667L191.157 186.005L183.141 186.005L177.415 191.73L129.894 191.73" stroke="white"/>
<circle cx="138.483" cy="249.558" r="7.44314" transform="rotate(180 138.483 249.558)" fill="white"/>
<circle cx="142.489" cy="175.699" r="5.72549" transform="rotate(180 142.489 175.699)" fill="white"/>
<circle cx="137.338" cy="220.93" r="3.50784" transform="rotate(180 137.338 220.93)" stroke="white"/>
<circle cx="125.887" cy="206.044" r="3.50784" transform="rotate(180 125.887 206.044)" stroke="white"/>
<circle cx="125.887" cy="191.158" r="3.50784" transform="rotate(180 125.887 191.158)" stroke="white"/>
<path d="M247.385 72.5986L220.234 72.5986L171.022 23.387L150.659 23.387" stroke="white"/>
<path d="M246.818 79.3865L217.97 79.3865L176.678 38.094L116.153 38.094" stroke="white"/>
<path d="M246.818 85.6085L212.879 85.0428L180.072 51.6694L146.698 51.6694" stroke="white"/>
<path d="M251.908 108.8L223.626 108.8L181.768 65.811L134.819 65.811" stroke="white"/>
<path d="M255.303 116.153L220.232 116.153L199.303 96.3557L152.354 96.3557" stroke="white"/>
<path d="M257 112.194L221.364 112.194L195.344 86.1743L187.425 86.1743L181.768 80.5178L134.819 80.5178" stroke="white"/>
<circle r="7.35346" transform="matrix(-1 8.74228e-08 8.74228e-08 1 143.305 23.3869)" fill="white"/>
<circle r="5.65651" transform="matrix(-1 8.74228e-08 8.74228e-08 1 147.263 96.356)" fill="white"/>
<circle r="3.45955" transform="matrix(-1 8.74228e-08 8.74228e-08 1 142.173 51.6695)" stroke="white"/>
<circle r="3.45955" transform="matrix(-1 8.74228e-08 8.74228e-08 1 130.861 66.3763)" stroke="white"/>
<circle r="3.45955" transform="matrix(-1 8.74228e-08 8.74228e-08 1 130.861 81.0836)" stroke="white"/>
</mask>
<g mask="url(#mask0)">
<path d="M257 263.001L102 263.001L102 16.0007L257 16.0007L257 263.001Z" fill="url(#paint2_linear)"/>
</g>
<path d="M46.7661 239.017H56.4516V232.382H46.1055C46.1526 234.608 46.3735 236.826 46.7661 239.017Z" fill="url(#paint3_linear)"/>
<path d="M56.4507 222.3C53.3449 222.264 50.2442 222.039 47.1657 221.625C46.5197 224.43 46.1664 227.294 46.1113 230.171H56.4507V222.3Z" fill="url(#paint4_linear)"/>
<path d="M56.4511 208.167C52.8945 208.91 49.5858 213.194 47.7188 219.467C50.6148 219.845 53.5306 220.052 56.4511 220.088V208.167Z" fill="url(#paint5_linear)"/>
<path d="M50.8361 209.064C46.0524 210.503 41.8622 213.451 38.8906 217.466C41.0433 218.225 43.2604 218.787 45.5145 219.146C46.4571 215.409 48.2819 211.951 50.8361 209.064Z" fill="url(#paint6_linear)"/>
<path d="M34.3633 232.382C34.4778 234.944 35.0232 237.468 35.9766 239.848C36.6796 239.142 37.5367 238.609 38.4805 238.29C40.4331 237.761 42.4981 237.818 44.4187 238.453C44.1078 236.444 43.9315 234.416 43.891 232.382H34.3633Z" fill="url(#paint7_linear)"/>
<path d="M37.6409 219.361C35.6723 222.637 34.5499 226.352 34.375 230.171H43.9006C43.9561 227.184 44.3159 224.211 44.9745 221.298C42.4722 220.895 40.0158 220.246 37.6409 219.361Z" fill="url(#paint8_linear)"/>
<path d="M70.1406 221.298C70.7992 224.211 71.1588 227.184 71.214 230.171H80.7394C80.5645 226.352 79.4422 222.637 77.4735 219.361C75.0989 220.246 72.6427 220.895 70.1406 221.298Z" fill="url(#paint9_linear)"/>
<path d="M76.6298 238.29C77.5739 238.609 78.4312 239.142 79.1346 239.848C80.0882 237.468 80.6337 234.944 80.7481 232.382H71.2204C71.1793 234.463 70.996 236.539 70.6719 238.595C72.5708 237.844 74.664 237.737 76.6298 238.29Z" fill="url(#paint10_linear)"/>
<path d="M64.2695 209.056C66.8279 211.944 68.6558 215.404 69.5996 219.146C71.8538 218.787 74.0708 218.225 76.2235 217.466C73.2501 213.447 69.0569 210.497 64.2695 209.056Z" fill="url(#paint11_linear)"/>
<path d="M58.6621 239.017H68.3514C68.7423 236.826 68.962 234.608 69.0085 232.382H58.6621V239.017Z" fill="url(#paint12_linear)"/>
<path d="M58.6621 230.171H69.0015C68.9465 227.293 68.5931 224.429 67.9469 221.625C64.8686 222.038 61.7679 222.264 58.6621 222.3V230.171Z" fill="url(#paint13_linear)"/>
<path d="M58.6621 208.167V220.088C61.5825 220.053 64.4984 219.845 67.3944 219.467C65.525 213.189 62.2152 208.907 58.6621 208.167Z" fill="url(#paint14_linear)"/>
<path d="M48.7035 255.605C47.3614 255.603 46.1503 256.41 45.6351 257.649C45.1199 258.888 45.4022 260.316 46.3502 261.266C47.2982 262.216 48.7252 262.501 49.9655 261.988C51.2059 261.476 52.0152 260.266 52.0159 258.924V258.922V258.921C52.0144 257.091 50.5328 255.608 48.7035 255.605Z" fill="url(#paint15_linear)"/>
<path d="M66.3966 255.605C65.0544 255.603 63.8433 256.41 63.3282 257.65C62.8132 258.889 63.0959 260.317 64.0443 261.267C64.9927 262.216 66.4199 262.501 67.6602 261.988C68.9004 261.475 69.7092 260.265 69.7092 258.922C69.7086 257.092 68.2267 255.608 66.3966 255.605Z" fill="url(#paint16_linear)"/>
<path d="M81.9339 254.094C81.4901 251.761 81.03 249.35 80.3669 247.064C80.1369 246.276 79.8914 245.539 79.615 244.813C78.629 242.271 77.493 240.905 75.9358 240.391C74.0384 239.765 72.0249 240.385 70.1334 241.149C70.0022 241.202 69.8618 241.229 69.7202 241.229H45.8759C45.7342 241.229 45.5937 241.202 45.4624 241.149L45.4402 241.14L45.4338 241.138C43.9852 240.557 41.2736 239.7 39.1749 240.391C37.6188 240.905 36.4832 242.27 35.4941 244.82C35.2161 245.553 34.9703 246.289 34.7462 247.063C34.0837 249.345 33.6248 251.751 33.1815 254.078L32.9169 255.456C32.2863 258.314 32.042 261.244 32.1906 264.167C32.3701 266.338 33.1628 269.98 36.463 269.98C38.8847 269.98 41.4019 266.282 43.1962 260.087C43.2198 260.03 43.2483 259.975 43.2816 259.923C42.6999 256.931 44.654 254.033 47.6461 253.452C50.6383 252.87 53.5354 254.824 54.1171 257.816H60.9853C61.5625 254.824 64.4563 252.866 67.4488 253.443C70.4414 254.02 72.3995 256.914 71.8224 259.906C71.8594 259.963 71.8909 260.024 71.9163 260.086C73.7104 266.282 76.2272 269.98 78.6488 269.98C81.949 269.98 82.7428 266.338 82.9209 264.167C83.0705 261.243 82.8261 258.312 82.1942 255.453L81.9339 254.094ZM39.863 245.652C39.863 245.042 40.3581 244.547 40.9689 244.547C41.5796 244.547 42.0747 245.042 42.0747 245.652V246.758C42.0747 247.369 41.5796 247.864 40.9689 247.864C40.3581 247.864 39.863 247.369 39.863 246.758V245.652ZM38.7572 250.076H37.6514C37.0407 250.076 36.5456 249.581 36.5456 248.97C36.5456 248.359 37.0407 247.864 37.6514 247.864H38.7572C39.368 247.864 39.863 248.359 39.863 248.97C39.863 249.581 39.368 250.076 38.7572 250.076ZM42.0747 252.287C42.0747 252.898 41.5796 253.393 40.9689 253.393C40.3581 253.393 39.863 252.898 39.863 252.287V251.181C39.863 250.571 40.3581 250.076 40.9689 250.076C41.5796 250.076 42.0747 250.571 42.0747 251.181V252.287ZM44.2863 250.076H43.1805C42.5698 250.076 42.0747 249.581 42.0747 248.97C42.0747 248.359 42.5698 247.864 43.1805 247.864H44.2863C44.8971 247.864 45.3921 248.359 45.3921 248.97C45.3921 249.581 44.8971 250.076 44.2863 250.076ZM54.2387 250.076H52.0271C51.4163 250.076 50.9212 249.581 50.9212 248.97C50.9212 248.359 51.4163 247.864 52.0271 247.864H54.2387C54.8494 247.864 55.3445 248.359 55.3445 248.97C55.3445 249.581 54.8494 250.076 54.2387 250.076ZM63.0853 250.076H60.8736C60.2629 250.076 59.7678 249.581 59.7678 248.97C59.7678 248.359 60.2629 247.864 60.8736 247.864H63.0853C63.696 247.864 64.1911 248.359 64.1911 248.97C64.1911 249.581 63.696 250.076 63.0853 250.076ZM70.826 250.076C70.2153 250.076 69.7202 249.581 69.7202 248.97C69.7202 248.359 70.2153 247.864 70.826 247.864C71.4367 247.864 71.9318 248.359 71.9318 248.97C71.9318 249.581 71.4367 250.076 70.826 250.076ZM74.1435 253.393C73.5327 253.393 73.0376 252.898 73.0376 252.287C73.0376 251.677 73.5327 251.181 74.1435 251.181C74.7542 251.181 75.2493 251.677 75.2493 252.287C75.2493 252.898 74.7542 253.393 74.1435 253.393ZM74.1435 246.758C73.5327 246.758 73.0376 246.263 73.0376 245.652C73.0376 245.042 73.5327 244.547 74.1435 244.547C74.7542 244.547 75.2493 245.042 75.2493 245.652C75.2493 246.263 74.7542 246.758 74.1435 246.758ZM77.4609 250.076C76.8502 250.076 76.3551 249.581 76.3551 248.97C76.3551 248.359 76.8502 247.864 77.4609 247.864C78.0717 247.864 78.5667 248.359 78.5667 248.97C78.5667 249.581 78.0717 250.076 77.4609 250.076Z" fill="url(#paint17_linear)"/>
<g clip-path="url(#clip0)">
<path d="M63 22.9995C49.1944 22.9995 38 34.1939 38 47.9995C38 61.8051 49.1944 72.9995 63 72.9995C65.3056 72.9995 67.1667 71.1384 67.1667 68.8328C67.1667 67.7495 66.7639 66.7772 66.0833 66.0412C65.4306 65.3051 65.0417 64.3468 65.0417 63.2772C65.0417 60.9716 66.9027 59.1106 69.2083 59.1106H74.1111C81.7777 59.1106 88 52.8883 88 45.2216C88 32.9439 76.8056 22.9995 63 22.9995ZM47.7223 47.9995C45.4167 47.9995 43.5556 46.1384 43.5556 43.8328C43.5556 41.5272 45.4167 39.6662 47.7223 39.6662C50.0279 39.6662 51.8889 41.5272 51.8889 43.8328C51.8889 46.1384 50.0277 47.9995 47.7223 47.9995ZM56.0556 36.8884C53.75 36.8884 51.8889 35.0274 51.8889 32.7218C51.8889 30.4162 53.75 28.5551 56.0556 28.5551C58.3612 28.5551 60.2223 30.4162 60.2223 32.7218C60.2223 35.0274 58.3611 36.8884 56.0556 36.8884ZM69.9444 36.8884C67.6388 36.8884 65.7777 35.0274 65.7777 32.7218C65.7777 30.4162 67.6388 28.5551 69.9444 28.5551C72.25 28.5551 74.1111 30.4162 74.1111 32.7218C74.1111 35.0274 72.25 36.8884 69.9444 36.8884ZM78.2777 47.9995C75.9721 47.9995 74.1111 46.1384 74.1111 43.8328C74.1111 41.5272 75.9721 39.6662 78.2777 39.6662C80.5833 39.6662 82.4444 41.5272 82.4444 43.8328C82.4444 46.1384 80.5833 47.9995 78.2777 47.9995Z" fill="url(#paint18_linear)"/>
</g>
</g>
<defs>
<filter id="filter0_d" x="0" y="0" width="261" height="295" filterUnits="userSpaceOnUse" color-interpolation-filters="sRGB">
<feFlood flood-opacity="0" result="BackgroundImageFix"/>
<feColorMatrix in="SourceAlpha" type="matrix" values="0 0 0 0 0 0 0 0 0 0 0 0 0 0 0 0 0 0 127 0" result="hardAlpha"/>
<feOffset dy="4"/>
<feGaussianBlur stdDeviation="2"/>
<feComposite in2="hardAlpha" operator="out"/>
<feColorMatrix type="matrix" values="0 0 0 0 0 0 0 0 0 0 0 0 0 0 0 0 0 0 0.25 0"/>
<feBlend mode="normal" in2="BackgroundImageFix" result="effect1_dropShadow"/>
<feBlend mode="normal" in="SourceGraphic" in2="effect1_dropShadow" result="shape"/>
</filter>
<filter id="filter1_b" x="-18" y="169" width="151" height="140" filterUnits="userSpaceOnUse" color-interpolation-filters="sRGB">
<feFlood flood-opacity="0" result="BackgroundImageFix"/>
<feGaussianBlur in="BackgroundImage" stdDeviation="11"/>
<feComposite in2="SourceAlpha" operator="in" result="effect1_backgroundBlur"/>
<feBlend mode="normal" in="SourceGraphic" in2="effect1_backgroundBlur" result="shape"/>
</filter>
<filter id="filter2_b" x="-13" y="-22" width="151" height="140" filterUnits="userSpaceOnUse" color-interpolation-filters="sRGB">
<feFlood flood-opacity="0" result="BackgroundImageFix"/>
<feGaussianBlur in="BackgroundImage" stdDeviation="11"/>
<feComposite in2="SourceAlpha" operator="in" result="effect1_backgroundBlur"/>
<feBlend mode="normal" in="SourceGraphic" in2="effect1_backgroundBlur" result="shape"/>
</filter>
<linearGradient id="paint0_linear" x1="57.5" y1="287" x2="57.5" y2="191" gradientUnits="userSpaceOnUse">
<stop stop-color="#035EC9"/>
<stop offset="1" stop-color="#2FE7FB"/>
</linearGradient>
<linearGradient id="paint1_linear" x1="62.5" y1="96" x2="62.5" y2="-2.95228e-06" gradientUnits="userSpaceOnUse">
<stop stop-color="#035EC9"/>
<stop offset="1" stop-color="#2FE7FB"/>
</linearGradient>
<linearGradient id="paint2_linear" x1="109" y1="132.501" x2="257" y2="131.501" gradientUnits="userSpaceOnUse">
<stop stop-color="#5409E3"/>
<stop offset="0.501217" stop-color="#37D5FF"/>
<stop offset="1" stop-color="#F1A7FF"/>
</linearGradient>
<linearGradient id="paint3_linear" x1="51.2786" y1="232.382" x2="51.2786" y2="239.017" gradientUnits="userSpaceOnUse">
<stop stop-color="#045FCA"/>
<stop offset="1" stop-color="#2FE6FB"/>
</linearGradient>
<linearGradient id="paint4_linear" x1="51.281" y1="221.625" x2="51.281" y2="230.171" gradientUnits="userSpaceOnUse">
<stop stop-color="#045FCA"/>
<stop offset="1" stop-color="#2FE6FB"/>
</linearGradient>
<linearGradient id="paint5_linear" x1="52.0849" y1="208.167" x2="52.0849" y2="220.088" gradientUnits="userSpaceOnUse">
<stop stop-color="#045FCA"/>
<stop offset="1" stop-color="#2FE6FB"/>
</linearGradient>
<linearGradient id="paint6_linear" x1="44.8634" y1="209.064" x2="44.8634" y2="219.146" gradientUnits="userSpaceOnUse">
<stop stop-color="#045FCA"/>
<stop offset="1" stop-color="#2FE6FB"/>
</linearGradient>
<linearGradient id="paint7_linear" x1="39.391" y1="232.382" x2="39.391" y2="239.848" gradientUnits="userSpaceOnUse">
<stop stop-color="#045FCA"/>
<stop offset="1" stop-color="#2FE6FB"/>
</linearGradient>
<linearGradient id="paint8_linear" x1="39.6748" y1="219.361" x2="39.6748" y2="230.171" gradientUnits="userSpaceOnUse">
<stop stop-color="#045FCA"/>
<stop offset="1" stop-color="#2FE6FB"/>
</linearGradient>
<linearGradient id="paint9_linear" x1="75.44" y1="219.361" x2="75.44" y2="230.171" gradientUnits="userSpaceOnUse">
<stop stop-color="#045FCA"/>
<stop offset="1" stop-color="#2FE6FB"/>
</linearGradient>
<linearGradient id="paint10_linear" x1="75.71" y1="232.382" x2="75.71" y2="239.848" gradientUnits="userSpaceOnUse">
<stop stop-color="#045FCA"/>
<stop offset="1" stop-color="#2FE6FB"/>
</linearGradient>
<linearGradient id="paint11_linear" x1="70.2465" y1="209.056" x2="70.2465" y2="219.146" gradientUnits="userSpaceOnUse">
<stop stop-color="#045FCA"/>
<stop offset="1" stop-color="#2FE6FB"/>
</linearGradient>
<linearGradient id="paint12_linear" x1="63.8353" y1="232.382" x2="63.8353" y2="239.017" gradientUnits="userSpaceOnUse">
<stop stop-color="#045FCA"/>
<stop offset="1" stop-color="#2FE6FB"/>
</linearGradient>
<linearGradient id="paint13_linear" x1="63.8318" y1="221.625" x2="63.8318" y2="230.171" gradientUnits="userSpaceOnUse">
<stop stop-color="#045FCA"/>
<stop offset="1" stop-color="#2FE6FB"/>
</linearGradient>
<linearGradient id="paint14_linear" x1="63.0283" y1="208.167" x2="63.0283" y2="220.088" gradientUnits="userSpaceOnUse">
<stop stop-color="#045FCA"/>
<stop offset="1" stop-color="#2FE6FB"/>
</linearGradient>
<linearGradient id="paint15_linear" x1="48.6984" y1="255.605" x2="48.6984" y2="262.24" gradientUnits="userSpaceOnUse">
<stop stop-color="#045FCA"/>
<stop offset="1" stop-color="#2FE6FB"/>
</linearGradient>
<linearGradient id="paint16_linear" x1="66.3917" y1="255.605" x2="66.3917" y2="262.24" gradientUnits="userSpaceOnUse">
<stop stop-color="#045FCA"/>
<stop offset="1" stop-color="#2FE6FB"/>
</linearGradient>
<linearGradient id="paint17_linear" x1="57.556" y1="240.134" x2="57.556" y2="269.98" gradientUnits="userSpaceOnUse">
<stop stop-color="#045FCA"/>
<stop offset="1" stop-color="#2FE6FB"/>
</linearGradient>
<linearGradient id="paint18_linear" x1="63" y1="22.9995" x2="63" y2="72.9995" gradientUnits="userSpaceOnUse">
<stop stop-color="#1085D8"/>
<stop offset="1" stop-color="#28D1F3"/>
</linearGradient>
<clipPath id="clip0">
<rect width="50" height="50" fill="white" transform="translate(38 22.9995)"/>
</clipPath>
</defs>
</svg>
