<svg width="16" height="16" viewBox="0 0 16 16" fill="none" xmlns="http://www.w3.org/2000/svg">
<path d="M10.7979 7.78847C11.7493 7.05347 12.3633 5.90188 12.3633 4.60938C12.3633 2.39516 10.5619 0.59375 8.34766 0.59375C6.13344 0.59375 4.33203 2.39516 4.33203 4.60938C4.33203 5.90184 4.94597 7.05347 5.89738 7.78847C3.07556 8.77478 0.941406 11.4821 0.941406 14.7812C0.941406 15.1264 1.22122 15.4062 1.56641 15.4062H15.1289C15.4741 15.4062 15.7539 15.1264 15.7539 14.7812C15.7539 11.4813 13.6182 8.77422 10.7979 7.78847ZM5.58203 4.60938C5.58203 3.08441 6.82269 1.84375 8.34766 1.84375C9.87263 1.84375 11.1133 3.08441 11.1133 4.60938C11.1133 6.13434 9.87263 7.375 8.34766 7.375C6.82269 7.375 5.58203 6.13434 5.58203 4.60938ZM2.22291 14.1562C2.53706 11.0541 5.164 8.625 8.34766 8.625C11.5313 8.625 14.1582 11.0541 14.4724 14.1562H2.22291Z" fill="url(#paint0_linear)"/>
<defs>
<linearGradient id="paint0_linear" x1="8.34766" y1="0.59375" x2="8.34766" y2="15.4062" gradientUnits="userSpaceOnUse">
<stop stop-color="#6FB7FF"/>
<stop offset="1" stop-color="#CC24FF"/>
</linearGradient>
</defs>
</svg>
