<svg width="1051" height="121" viewBox="0 0 1051 121" fill="none" xmlns="http://www.w3.org/2000/svg">
<mask id="path-1-outside-1" maskUnits="userSpaceOnUse" x="0" y="0" width="1051" height="121" fill="black">
<rect fill="white" width="1051" height="121"/>
<path d="M145.361 17.8282L119.935 115.883H91.173L75.6112 51.3511L59.4937 115.883H30.7321L6 17.8282H31.4269L45.4603 89.204L62.8283 17.8282H88.9499L105.623 89.204L119.796 17.8282H145.361ZM204.935 37.1038C213.827 37.1038 220.96 40.0836 226.332 46.0433C231.705 51.9098 234.391 60.0111 234.391 70.3473V115.883H210.771V73.56C210.771 68.3453 209.428 64.2946 206.741 61.4079C204.055 58.5212 200.442 57.0779 195.904 57.0779C191.365 57.0779 187.752 58.5212 185.066 61.4079C182.38 64.2946 181.037 68.3453 181.037 73.56V115.883H157.277V12.5204H181.037V48.4178C183.445 44.9724 186.733 42.2254 190.902 40.1768C195.07 38.1281 199.748 37.1038 204.935 37.1038ZM246.178 76.7726C246.178 68.7643 247.66 61.7338 250.624 55.6811C253.681 49.6284 257.803 44.9724 262.99 41.7132C268.177 38.4541 273.967 36.8245 280.358 36.8245C285.823 36.8245 290.594 37.9419 294.669 40.1768C298.838 42.4116 302.033 45.3449 304.257 48.9765V37.9419H328.016V115.883H304.257V104.848C301.941 108.48 298.699 111.413 294.53 113.648C290.455 115.883 285.684 117 280.219 117C273.92 117 268.177 115.37 262.99 112.111C257.803 108.759 253.681 104.056 250.624 98.0037C247.66 91.8578 246.178 84.7808 246.178 76.7726ZM304.257 76.9122C304.257 70.9526 302.589 66.2501 299.254 62.8047C296.012 59.3593 292.029 57.6366 287.305 57.6366C282.581 57.6366 278.552 59.3593 275.217 62.8047C271.975 66.157 270.354 70.8129 270.354 76.7726C270.354 82.7322 271.975 87.4812 275.217 91.0198C278.552 94.4652 282.581 96.1879 287.305 96.1879C292.029 96.1879 296.012 94.4652 299.254 91.0198C302.589 87.5744 304.257 82.8719 304.257 76.9122ZM388.417 95.6292V115.883H376.329C367.714 115.883 360.998 113.787 356.182 109.597C351.365 105.314 348.957 98.3762 348.957 88.7849V57.7763H339.508V37.9419H348.957V18.9456H372.716V37.9419H388.278V57.7763H372.716V89.0643C372.716 91.3923 373.272 93.0684 374.383 94.0927C375.495 95.117 377.348 95.6292 379.941 95.6292H388.417ZM443.045 29.8405C438.876 29.8405 435.449 28.63 432.763 26.2089C430.169 23.6947 428.872 20.6218 428.872 16.9901C428.872 13.2654 430.169 10.1924 432.763 7.77132C435.449 5.25711 438.876 4 443.045 4C447.12 4 450.455 5.25711 453.049 7.77132C455.735 10.1924 457.078 13.2654 457.078 16.9901C457.078 20.6218 455.735 23.6947 453.049 26.2089C450.455 28.63 447.12 29.8405 443.045 29.8405ZM454.855 37.9419V115.883H431.096V37.9419H454.855ZM503.614 117C496.852 117 490.831 115.836 485.551 113.508C480.271 111.18 476.103 108.014 473.046 104.01C469.989 99.9127 468.276 95.3498 467.905 90.3214H491.387C491.665 93.0218 492.915 95.2101 495.138 96.8863C497.361 98.5624 500.094 99.4005 503.336 99.4005C506.3 99.4005 508.569 98.8418 510.144 97.7243C511.811 96.5138 512.645 94.9773 512.645 93.115C512.645 90.8801 511.487 89.2505 509.172 88.2262C506.856 87.1088 503.104 85.8982 497.917 84.5946C492.359 83.2909 487.728 81.9407 484.023 80.5439C480.317 79.054 477.122 76.7726 474.435 73.6996C471.749 70.5336 470.406 66.2967 470.406 60.9889C470.406 56.5192 471.61 52.4685 474.019 48.8368C476.52 45.1121 480.132 42.1788 484.856 40.0371C489.673 37.8953 495.37 36.8245 501.946 36.8245C511.673 36.8245 519.315 39.2456 524.872 44.0878C530.523 48.93 533.765 55.3552 534.598 63.3634H512.645C512.275 60.663 511.07 58.5212 509.033 56.9382C507.087 55.3552 504.494 54.5637 501.252 54.5637C498.473 54.5637 496.342 55.1224 494.86 56.2398C493.378 57.2641 492.637 58.7075 492.637 60.5698C492.637 62.8047 493.795 64.4808 496.111 65.5983C498.519 66.7157 502.224 67.8331 507.226 68.9506C512.969 70.4405 517.647 71.9304 521.26 73.4203C524.872 74.8171 528.022 77.145 530.708 80.4042C533.487 83.5703 534.923 87.8537 535.015 93.2546C535.015 97.8175 533.718 101.915 531.125 105.546C528.624 109.085 524.965 111.878 520.148 113.927C515.424 115.976 509.913 117 503.614 117ZM574.271 76.7726C574.271 68.7643 575.753 61.7338 578.718 55.6811C581.774 49.6284 585.896 44.9724 591.084 41.7132C596.271 38.4541 602.06 36.8245 608.452 36.8245C613.917 36.8245 618.687 37.9419 622.763 40.1768C626.931 42.4116 630.127 45.3449 632.35 48.9765V37.9419H656.11V115.883H632.35V104.848C630.035 108.48 626.792 111.413 622.624 113.648C618.548 115.883 613.778 117 608.313 117C602.014 117 596.271 115.37 591.084 112.111C585.896 108.759 581.774 104.056 578.718 98.0037C575.753 91.8578 574.271 84.7808 574.271 76.7726ZM632.35 76.9122C632.35 70.9526 630.683 66.2501 627.348 62.8047C624.106 59.3593 620.123 57.6366 615.399 57.6366C610.675 57.6366 606.646 59.3593 603.311 62.8047C600.069 66.157 598.448 70.8129 598.448 76.7726C598.448 82.7322 600.069 87.4812 603.311 91.0198C606.646 94.4652 610.675 96.1879 615.399 96.1879C620.123 96.1879 624.106 94.4652 627.348 91.0198C630.683 87.5744 632.35 82.8719 632.35 76.9122ZM720.54 37.1038C729.618 37.1038 736.843 40.0836 742.215 46.0433C747.68 51.9098 750.413 60.0111 750.413 70.3473V115.883H726.792V73.56C726.792 68.3453 725.449 64.2946 722.763 61.4079C720.077 58.5212 716.464 57.0779 711.925 57.0779C707.386 57.0779 703.774 58.5212 701.088 61.4079C698.401 64.2946 697.058 68.3453 697.058 73.56V115.883H673.299V37.9419H697.058V48.2781C699.467 44.8327 702.709 42.1323 706.784 40.1768C710.86 38.1281 715.445 37.1038 720.54 37.1038ZM883.625 115.883H859.865L820.127 55.4017V115.883H796.368V17.8282H820.127L859.865 78.5884V17.8282H883.625V115.883ZM964.345 17.8282V36.9642H924.607V57.6366H954.341V76.2138H924.607V115.883H900.848V17.8282H964.345ZM1047 17.8282V36.9642H1021.16V115.883H997.397V36.9642H971.553V17.8282H1047Z"/>
</mask>
<path d="M145.361 17.8282L119.935 115.883H91.173L75.6112 51.3511L59.4937 115.883H30.7321L6 17.8282H31.4269L45.4603 89.204L62.8283 17.8282H88.9499L105.623 89.204L119.796 17.8282H145.361ZM204.935 37.1038C213.827 37.1038 220.96 40.0836 226.332 46.0433C231.705 51.9098 234.391 60.0111 234.391 70.3473V115.883H210.771V73.56C210.771 68.3453 209.428 64.2946 206.741 61.4079C204.055 58.5212 200.442 57.0779 195.904 57.0779C191.365 57.0779 187.752 58.5212 185.066 61.4079C182.38 64.2946 181.037 68.3453 181.037 73.56V115.883H157.277V12.5204H181.037V48.4178C183.445 44.9724 186.733 42.2254 190.902 40.1768C195.07 38.1281 199.748 37.1038 204.935 37.1038ZM246.178 76.7726C246.178 68.7643 247.66 61.7338 250.624 55.6811C253.681 49.6284 257.803 44.9724 262.99 41.7132C268.177 38.4541 273.967 36.8245 280.358 36.8245C285.823 36.8245 290.594 37.9419 294.669 40.1768C298.838 42.4116 302.033 45.3449 304.257 48.9765V37.9419H328.016V115.883H304.257V104.848C301.941 108.48 298.699 111.413 294.53 113.648C290.455 115.883 285.684 117 280.219 117C273.92 117 268.177 115.37 262.99 112.111C257.803 108.759 253.681 104.056 250.624 98.0037C247.66 91.8578 246.178 84.7808 246.178 76.7726ZM304.257 76.9122C304.257 70.9526 302.589 66.2501 299.254 62.8047C296.012 59.3593 292.029 57.6366 287.305 57.6366C282.581 57.6366 278.552 59.3593 275.217 62.8047C271.975 66.157 270.354 70.8129 270.354 76.7726C270.354 82.7322 271.975 87.4812 275.217 91.0198C278.552 94.4652 282.581 96.1879 287.305 96.1879C292.029 96.1879 296.012 94.4652 299.254 91.0198C302.589 87.5744 304.257 82.8719 304.257 76.9122ZM388.417 95.6292V115.883H376.329C367.714 115.883 360.998 113.787 356.182 109.597C351.365 105.314 348.957 98.3762 348.957 88.7849V57.7763H339.508V37.9419H348.957V18.9456H372.716V37.9419H388.278V57.7763H372.716V89.0643C372.716 91.3923 373.272 93.0684 374.383 94.0927C375.495 95.117 377.348 95.6292 379.941 95.6292H388.417ZM443.045 29.8405C438.876 29.8405 435.449 28.63 432.763 26.2089C430.169 23.6947 428.872 20.6218 428.872 16.9901C428.872 13.2654 430.169 10.1924 432.763 7.77132C435.449 5.25711 438.876 4 443.045 4C447.12 4 450.455 5.25711 453.049 7.77132C455.735 10.1924 457.078 13.2654 457.078 16.9901C457.078 20.6218 455.735 23.6947 453.049 26.2089C450.455 28.63 447.12 29.8405 443.045 29.8405ZM454.855 37.9419V115.883H431.096V37.9419H454.855ZM503.614 117C496.852 117 490.831 115.836 485.551 113.508C480.271 111.18 476.103 108.014 473.046 104.01C469.989 99.9127 468.276 95.3498 467.905 90.3214H491.387C491.665 93.0218 492.915 95.2101 495.138 96.8863C497.361 98.5624 500.094 99.4005 503.336 99.4005C506.3 99.4005 508.569 98.8418 510.144 97.7243C511.811 96.5138 512.645 94.9773 512.645 93.115C512.645 90.8801 511.487 89.2505 509.172 88.2262C506.856 87.1088 503.104 85.8982 497.917 84.5946C492.359 83.2909 487.728 81.9407 484.023 80.5439C480.317 79.054 477.122 76.7726 474.435 73.6996C471.749 70.5336 470.406 66.2967 470.406 60.9889C470.406 56.5192 471.61 52.4685 474.019 48.8368C476.52 45.1121 480.132 42.1788 484.856 40.0371C489.673 37.8953 495.37 36.8245 501.946 36.8245C511.673 36.8245 519.315 39.2456 524.872 44.0878C530.523 48.93 533.765 55.3552 534.598 63.3634H512.645C512.275 60.663 511.07 58.5212 509.033 56.9382C507.087 55.3552 504.494 54.5637 501.252 54.5637C498.473 54.5637 496.342 55.1224 494.86 56.2398C493.378 57.2641 492.637 58.7075 492.637 60.5698C492.637 62.8047 493.795 64.4808 496.111 65.5983C498.519 66.7157 502.224 67.8331 507.226 68.9506C512.969 70.4405 517.647 71.9304 521.26 73.4203C524.872 74.8171 528.022 77.145 530.708 80.4042C533.487 83.5703 534.923 87.8537 535.015 93.2546C535.015 97.8175 533.718 101.915 531.125 105.546C528.624 109.085 524.965 111.878 520.148 113.927C515.424 115.976 509.913 117 503.614 117ZM574.271 76.7726C574.271 68.7643 575.753 61.7338 578.718 55.6811C581.774 49.6284 585.896 44.9724 591.084 41.7132C596.271 38.4541 602.06 36.8245 608.452 36.8245C613.917 36.8245 618.687 37.9419 622.763 40.1768C626.931 42.4116 630.127 45.3449 632.35 48.9765V37.9419H656.11V115.883H632.35V104.848C630.035 108.48 626.792 111.413 622.624 113.648C618.548 115.883 613.778 117 608.313 117C602.014 117 596.271 115.37 591.084 112.111C585.896 108.759 581.774 104.056 578.718 98.0037C575.753 91.8578 574.271 84.7808 574.271 76.7726ZM632.35 76.9122C632.35 70.9526 630.683 66.2501 627.348 62.8047C624.106 59.3593 620.123 57.6366 615.399 57.6366C610.675 57.6366 606.646 59.3593 603.311 62.8047C600.069 66.157 598.448 70.8129 598.448 76.7726C598.448 82.7322 600.069 87.4812 603.311 91.0198C606.646 94.4652 610.675 96.1879 615.399 96.1879C620.123 96.1879 624.106 94.4652 627.348 91.0198C630.683 87.5744 632.35 82.8719 632.35 76.9122ZM720.54 37.1038C729.618 37.1038 736.843 40.0836 742.215 46.0433C747.68 51.9098 750.413 60.0111 750.413 70.3473V115.883H726.792V73.56C726.792 68.3453 725.449 64.2946 722.763 61.4079C720.077 58.5212 716.464 57.0779 711.925 57.0779C707.386 57.0779 703.774 58.5212 701.088 61.4079C698.401 64.2946 697.058 68.3453 697.058 73.56V115.883H673.299V37.9419H697.058V48.2781C699.467 44.8327 702.709 42.1323 706.784 40.1768C710.86 38.1281 715.445 37.1038 720.54 37.1038ZM883.625 115.883H859.865L820.127 55.4017V115.883H796.368V17.8282H820.127L859.865 78.5884V17.8282H883.625V115.883ZM964.345 17.8282V36.9642H924.607V57.6366H954.341V76.2138H924.607V115.883H900.848V17.8282H964.345ZM1047 17.8282V36.9642H1021.16V115.883H997.397V36.9642H971.553V17.8282H1047Z" stroke="url(#paint0_linear)" stroke-width="8" mask="url(#path-1-outside-1)"/>
<defs>
<linearGradient id="paint0_linear" x1="38.11" y1="60.1048" x2="1070.39" y2="60.1048" gradientUnits="userSpaceOnUse">
<stop stop-color="#663DFC"/>
<stop offset="0.449556" stop-color="#3AD5FF"/>
<stop offset="1" stop-color="#F8A6FF"/>
</linearGradient>
</defs>
</svg>
