<svg  width="631" height="131" viewBox="0 0 631 131" fill="none" xmlns="http://www.w3.org/2000/svg">
<mask id="path-1-outside-1" maskUnits="userSpaceOnUse" x="0" y="0" width="631" height="131" fill="black">
<rect fill="white" width="631" height="131"/>
<path d="M46.3682 95.0495L29.7925 63.1109H29.6678V95.0495H2V6.02376H43.1278C50.2733 6.02376 56.3801 7.3231 61.4484 9.92178C66.5167 12.4366 70.2971 15.9155 72.7897 20.3584C75.3654 24.7175 76.6533 29.6634 76.6533 35.196C76.6533 41.1479 74.9915 46.429 71.6681 51.0396C68.4277 55.6502 63.7333 58.9614 57.5849 60.9733L76.7779 95.0495H46.3682ZM29.6678 44.501H40.6353C43.294 44.501 45.2881 43.9142 46.6175 42.7406C47.9469 41.4832 48.6116 39.5551 48.6116 36.9564C48.6116 34.6092 47.9053 32.765 46.4928 31.4238C45.1635 30.0825 43.2109 29.4119 40.6353 29.4119H29.6678V44.501ZM118.893 95.9297C111.831 95.9297 105.475 94.4627 99.8247 91.5287C94.1748 88.5947 89.7297 84.4033 86.4893 78.9545C83.332 73.4218 81.7534 66.967 81.7534 59.5901C81.7534 52.2132 83.332 45.8003 86.4893 40.3515C89.7297 34.8188 94.1748 30.5855 99.8247 27.6515C105.475 24.7175 111.831 23.2505 118.893 23.2505C125.955 23.2505 132.312 24.7175 137.961 27.6515C143.611 30.5855 148.015 34.8188 151.172 40.3515C154.413 45.8003 156.033 52.2132 156.033 59.5901C156.033 66.967 154.413 73.4218 151.172 78.9545C148.015 84.4033 143.611 88.5947 137.961 91.5287C132.312 94.4627 125.955 95.9297 118.893 95.9297ZM118.893 71.7871C121.469 71.7871 123.629 70.7812 125.374 68.7693C127.119 66.6736 127.991 63.6139 127.991 59.5901C127.991 55.5663 127.119 52.5485 125.374 50.5366C123.629 48.4409 121.469 47.3931 118.893 47.3931C116.317 47.3931 114.157 48.4409 112.412 50.5366C110.667 52.5485 109.795 55.5663 109.795 59.5901C109.795 63.6139 110.626 66.6736 112.288 68.7693C114.032 70.7812 116.234 71.7871 118.893 71.7871ZM160.986 59.5901C160.986 52.1294 162.232 45.6746 164.725 40.2257C167.3 34.6931 170.79 30.5016 175.194 27.6515C179.597 24.7175 184.541 23.2505 190.025 23.2505C194.594 23.2505 198.541 24.2145 201.864 26.1426C205.188 27.9868 207.722 30.5436 209.467 33.8129V24.1307H237.01V95.0495H209.467V85.3673C207.722 88.6366 205.188 91.2353 201.864 93.1634C198.541 95.0076 194.594 95.9297 190.025 95.9297C184.541 95.9297 179.597 94.5046 175.194 91.6545C170.79 88.7205 167.3 84.529 164.725 79.0802C162.232 73.5475 160.986 67.0508 160.986 59.5901ZM209.467 59.5901C209.467 55.8178 208.511 52.8838 206.6 50.7881C204.689 48.6924 202.238 47.6446 199.247 47.6446C196.256 47.6446 193.805 48.6924 191.894 50.7881C189.983 52.8838 189.028 55.8178 189.028 59.5901C189.028 63.3624 189.983 66.2964 191.894 68.3921C193.805 70.4878 196.256 71.5356 199.247 71.5356C202.238 71.5356 204.689 70.4878 206.6 68.3921C208.511 66.2964 209.467 63.3624 209.467 59.5901ZM245.695 59.5901C245.695 52.1294 246.941 45.6746 249.434 40.2257C252.01 34.6931 255.499 30.5016 259.903 27.6515C264.307 24.7175 269.25 23.2505 274.734 23.2505C279.304 23.2505 283.209 24.2145 286.449 26.1426C289.773 27.9868 292.307 30.5436 294.052 33.8129V2H321.719V95.0495H294.052V85.3673C292.307 88.6366 289.773 91.2353 286.449 93.1634C283.209 95.0076 279.304 95.9297 274.734 95.9297C269.25 95.9297 264.307 94.5046 259.903 91.6545C255.499 88.7205 252.01 84.529 249.434 79.0802C246.941 73.5475 245.695 67.0508 245.695 59.5901ZM294.176 59.5901C294.176 55.8178 293.221 52.8838 291.31 50.7881C289.399 48.6924 286.948 47.6446 283.956 47.6446C280.965 47.6446 278.514 48.6924 276.603 50.7881C274.692 52.8838 273.737 55.8178 273.737 59.5901C273.737 63.3624 274.692 66.2964 276.603 68.3921C278.514 70.4878 280.965 71.5356 283.956 71.5356C286.948 71.5356 289.399 70.4878 291.31 68.3921C293.221 66.2964 294.176 63.3624 294.176 59.5901ZM427.99 23.6277C436.963 23.6277 443.901 26.3521 448.803 31.801C453.788 37.2498 456.281 44.6267 456.281 53.9317V95.0495H428.737V57.4525C428.737 54.4347 427.823 52.0875 425.996 50.4109C424.251 48.6505 421.883 47.7703 418.892 47.7703C415.817 47.7703 413.408 48.6505 411.663 50.4109C409.918 52.0875 409.046 54.4347 409.046 57.4525V95.0495H381.503V57.4525C381.503 54.4347 380.589 52.0875 378.761 50.4109C377.016 48.6505 374.648 47.7703 371.657 47.7703C368.583 47.7703 366.173 48.6505 364.428 50.4109C362.684 52.0875 361.811 54.4347 361.811 57.4525V95.0495H334.143V24.1307H361.811V33.6871C363.805 30.6693 366.506 28.2383 369.912 26.3941C373.402 24.5498 377.473 23.6277 382.126 23.6277C387.194 23.6277 391.681 24.7594 395.586 27.0228C399.491 29.2023 402.607 32.304 404.933 36.3277C407.509 32.6393 410.791 29.6215 414.779 27.2743C418.767 24.8432 423.171 23.6277 427.99 23.6277ZM464.528 59.5901C464.528 52.1294 465.774 45.6746 468.266 40.2257C470.842 34.6931 474.332 30.5016 478.735 27.6515C483.139 24.7175 488.083 23.2505 493.566 23.2505C498.136 23.2505 502.083 24.2145 505.406 26.1426C508.73 27.9868 511.264 30.5436 513.009 33.8129V24.1307H540.552V95.0495H513.009V85.3673C511.264 88.6366 508.73 91.2353 505.406 93.1634C502.083 95.0076 498.136 95.9297 493.566 95.9297C488.083 95.9297 483.139 94.5046 478.735 91.6545C474.332 88.7205 470.842 84.529 468.266 79.0802C465.774 73.5475 464.528 67.0508 464.528 59.5901ZM513.009 59.5901C513.009 55.8178 512.053 52.8838 510.142 50.7881C508.231 48.6924 505.78 47.6446 502.789 47.6446C499.798 47.6446 497.347 48.6924 495.436 50.7881C493.525 52.8838 492.569 55.8178 492.569 59.5901C492.569 63.3624 493.525 66.2964 495.436 68.3921C497.347 70.4878 499.798 71.5356 502.789 71.5356C505.78 71.5356 508.231 70.4878 510.142 68.3921C512.053 66.2964 513.009 63.3624 513.009 59.5901ZM580.644 33.8129C582.388 30.5436 584.881 27.9868 588.121 26.1426C591.445 24.2145 595.392 23.2505 599.961 23.2505C605.445 23.2505 610.389 24.7175 614.792 27.6515C619.196 30.5016 622.644 34.6931 625.137 40.2257C627.712 45.6746 629 52.1294 629 59.5901C629 67.0508 627.712 73.5475 625.137 79.0802C622.644 84.529 619.196 88.7205 614.792 91.6545C610.389 94.5046 605.445 95.9297 599.961 95.9297C595.392 95.9297 591.445 95.0076 588.121 93.1634C584.881 91.2353 582.388 88.6366 580.644 85.3673V129H552.976V24.1307H580.644V33.8129ZM600.958 59.5901C600.958 55.8178 600.003 52.8838 598.092 50.7881C596.181 48.6924 593.73 47.6446 590.739 47.6446C587.748 47.6446 585.297 48.6924 583.385 50.7881C581.475 52.8838 580.519 55.8178 580.519 59.5901C580.519 63.3624 581.475 66.2964 583.385 68.3921C585.297 70.4878 587.748 71.5356 590.739 71.5356C593.73 71.5356 596.181 70.4878 598.092 68.3921C600.003 66.2964 600.958 63.3624 600.958 59.5901Z"/>
</mask>
<path d="M46.3682 95.0495L29.7925 63.1109H29.6678V95.0495H2V6.02376H43.1278C50.2733 6.02376 56.3801 7.3231 61.4484 9.92178C66.5167 12.4366 70.2971 15.9155 72.7897 20.3584C75.3654 24.7175 76.6533 29.6634 76.6533 35.196C76.6533 41.1479 74.9915 46.429 71.6681 51.0396C68.4277 55.6502 63.7333 58.9614 57.5849 60.9733L76.7779 95.0495H46.3682ZM29.6678 44.501H40.6353C43.294 44.501 45.2881 43.9142 46.6175 42.7406C47.9469 41.4832 48.6116 39.5551 48.6116 36.9564C48.6116 34.6092 47.9053 32.765 46.4928 31.4238C45.1635 30.0825 43.2109 29.4119 40.6353 29.4119H29.6678V44.501ZM118.893 95.9297C111.831 95.9297 105.475 94.4627 99.8247 91.5287C94.1748 88.5947 89.7297 84.4033 86.4893 78.9545C83.332 73.4218 81.7534 66.967 81.7534 59.5901C81.7534 52.2132 83.332 45.8003 86.4893 40.3515C89.7297 34.8188 94.1748 30.5855 99.8247 27.6515C105.475 24.7175 111.831 23.2505 118.893 23.2505C125.955 23.2505 132.312 24.7175 137.961 27.6515C143.611 30.5855 148.015 34.8188 151.172 40.3515C154.413 45.8003 156.033 52.2132 156.033 59.5901C156.033 66.967 154.413 73.4218 151.172 78.9545C148.015 84.4033 143.611 88.5947 137.961 91.5287C132.312 94.4627 125.955 95.9297 118.893 95.9297ZM118.893 71.7871C121.469 71.7871 123.629 70.7812 125.374 68.7693C127.119 66.6736 127.991 63.6139 127.991 59.5901C127.991 55.5663 127.119 52.5485 125.374 50.5366C123.629 48.4409 121.469 47.3931 118.893 47.3931C116.317 47.3931 114.157 48.4409 112.412 50.5366C110.667 52.5485 109.795 55.5663 109.795 59.5901C109.795 63.6139 110.626 66.6736 112.288 68.7693C114.032 70.7812 116.234 71.7871 118.893 71.7871ZM160.986 59.5901C160.986 52.1294 162.232 45.6746 164.725 40.2257C167.3 34.6931 170.79 30.5016 175.194 27.6515C179.597 24.7175 184.541 23.2505 190.025 23.2505C194.594 23.2505 198.541 24.2145 201.864 26.1426C205.188 27.9868 207.722 30.5436 209.467 33.8129V24.1307H237.01V95.0495H209.467V85.3673C207.722 88.6366 205.188 91.2353 201.864 93.1634C198.541 95.0076 194.594 95.9297 190.025 95.9297C184.541 95.9297 179.597 94.5046 175.194 91.6545C170.79 88.7205 167.3 84.529 164.725 79.0802C162.232 73.5475 160.986 67.0508 160.986 59.5901ZM209.467 59.5901C209.467 55.8178 208.511 52.8838 206.6 50.7881C204.689 48.6924 202.238 47.6446 199.247 47.6446C196.256 47.6446 193.805 48.6924 191.894 50.7881C189.983 52.8838 189.028 55.8178 189.028 59.5901C189.028 63.3624 189.983 66.2964 191.894 68.3921C193.805 70.4878 196.256 71.5356 199.247 71.5356C202.238 71.5356 204.689 70.4878 206.6 68.3921C208.511 66.2964 209.467 63.3624 209.467 59.5901ZM245.695 59.5901C245.695 52.1294 246.941 45.6746 249.434 40.2257C252.01 34.6931 255.499 30.5016 259.903 27.6515C264.307 24.7175 269.25 23.2505 274.734 23.2505C279.304 23.2505 283.209 24.2145 286.449 26.1426C289.773 27.9868 292.307 30.5436 294.052 33.8129V2H321.719V95.0495H294.052V85.3673C292.307 88.6366 289.773 91.2353 286.449 93.1634C283.209 95.0076 279.304 95.9297 274.734 95.9297C269.25 95.9297 264.307 94.5046 259.903 91.6545C255.499 88.7205 252.01 84.529 249.434 79.0802C246.941 73.5475 245.695 67.0508 245.695 59.5901ZM294.176 59.5901C294.176 55.8178 293.221 52.8838 291.31 50.7881C289.399 48.6924 286.948 47.6446 283.956 47.6446C280.965 47.6446 278.514 48.6924 276.603 50.7881C274.692 52.8838 273.737 55.8178 273.737 59.5901C273.737 63.3624 274.692 66.2964 276.603 68.3921C278.514 70.4878 280.965 71.5356 283.956 71.5356C286.948 71.5356 289.399 70.4878 291.31 68.3921C293.221 66.2964 294.176 63.3624 294.176 59.5901ZM427.99 23.6277C436.963 23.6277 443.901 26.3521 448.803 31.801C453.788 37.2498 456.281 44.6267 456.281 53.9317V95.0495H428.737V57.4525C428.737 54.4347 427.823 52.0875 425.996 50.4109C424.251 48.6505 421.883 47.7703 418.892 47.7703C415.817 47.7703 413.408 48.6505 411.663 50.4109C409.918 52.0875 409.046 54.4347 409.046 57.4525V95.0495H381.503V57.4525C381.503 54.4347 380.589 52.0875 378.761 50.4109C377.016 48.6505 374.648 47.7703 371.657 47.7703C368.583 47.7703 366.173 48.6505 364.428 50.4109C362.684 52.0875 361.811 54.4347 361.811 57.4525V95.0495H334.143V24.1307H361.811V33.6871C363.805 30.6693 366.506 28.2383 369.912 26.3941C373.402 24.5498 377.473 23.6277 382.126 23.6277C387.194 23.6277 391.681 24.7594 395.586 27.0228C399.491 29.2023 402.607 32.304 404.933 36.3277C407.509 32.6393 410.791 29.6215 414.779 27.2743C418.767 24.8432 423.171 23.6277 427.99 23.6277ZM464.528 59.5901C464.528 52.1294 465.774 45.6746 468.266 40.2257C470.842 34.6931 474.332 30.5016 478.735 27.6515C483.139 24.7175 488.083 23.2505 493.566 23.2505C498.136 23.2505 502.083 24.2145 505.406 26.1426C508.73 27.9868 511.264 30.5436 513.009 33.8129V24.1307H540.552V95.0495H513.009V85.3673C511.264 88.6366 508.73 91.2353 505.406 93.1634C502.083 95.0076 498.136 95.9297 493.566 95.9297C488.083 95.9297 483.139 94.5046 478.735 91.6545C474.332 88.7205 470.842 84.529 468.266 79.0802C465.774 73.5475 464.528 67.0508 464.528 59.5901ZM513.009 59.5901C513.009 55.8178 512.053 52.8838 510.142 50.7881C508.231 48.6924 505.78 47.6446 502.789 47.6446C499.798 47.6446 497.347 48.6924 495.436 50.7881C493.525 52.8838 492.569 55.8178 492.569 59.5901C492.569 63.3624 493.525 66.2964 495.436 68.3921C497.347 70.4878 499.798 71.5356 502.789 71.5356C505.78 71.5356 508.231 70.4878 510.142 68.3921C512.053 66.2964 513.009 63.3624 513.009 59.5901ZM580.644 33.8129C582.388 30.5436 584.881 27.9868 588.121 26.1426C591.445 24.2145 595.392 23.2505 599.961 23.2505C605.445 23.2505 610.389 24.7175 614.792 27.6515C619.196 30.5016 622.644 34.6931 625.137 40.2257C627.712 45.6746 629 52.1294 629 59.5901C629 67.0508 627.712 73.5475 625.137 79.0802C622.644 84.529 619.196 88.7205 614.792 91.6545C610.389 94.5046 605.445 95.9297 599.961 95.9297C595.392 95.9297 591.445 95.0076 588.121 93.1634C584.881 91.2353 582.388 88.6366 580.644 85.3673V129H552.976V24.1307H580.644V33.8129ZM600.958 59.5901C600.958 55.8178 600.003 52.8838 598.092 50.7881C596.181 48.6924 593.73 47.6446 590.739 47.6446C587.748 47.6446 585.297 48.6924 583.385 50.7881C581.475 52.8838 580.519 55.8178 580.519 59.5901C580.519 63.3624 581.475 66.2964 583.385 68.3921C585.297 70.4878 587.748 71.5356 590.739 71.5356C593.73 71.5356 596.181 70.4878 598.092 68.3921C600.003 66.2964 600.958 63.3624 600.958 59.5901Z" stroke="url(#paint0_linear)" strokeWidth="4" mask="url(#path-1-outside-1)"/>
<defs>
<linearGradient id="paint0_linear" x1="31.1834" y1="53.9546" x2="645.804" y2="64.962" gradientUnits="userSpaceOnUse">
<stop stopColor="#5228E8"/>
<stop offset="0.551132" stopColor="#7CC5FF"/>
<stop offset="1" stopColor="#F1A7FF"/>
</linearGradient>
</defs>
</svg>
