<svg width="93" height="121" viewBox="0 0 93 121" fill="none" xmlns="http://www.w3.org/2000/svg">
<path d="M2 74.9043V89C2 90.1046 2.89543 91 4 91H84C85.1046 91 86 90.1046 86 89V74.9043M2 74.9043V4C2 2.89543 2.89543 2 4 2H84C85.1046 2 86 2.89543 86 4V27.5638M2 74.9043L29.3944 50.1712C29.9581 49.6623 30.7614 49.5165 31.468 49.795L55.4569 59.249C56.2302 59.5538 57.1113 59.3485 57.6703 58.7335L86 27.5638M2 74.9043H86M86 27.5638V74.9043" stroke="#D4D4D4" stroke-width="4"/>
<path d="M34 25C34 29.8877 29.8314 34 24.5 34C19.1686 34 15 29.8877 15 25C15 20.1123 19.1686 16 24.5 16C29.8314 16 34 20.1123 34 25Z" stroke="#D4D4D4" stroke-width="4"/>
<rect x="1" y="103" width="76" height="4" rx="2" fill="#D4D4D4"/>
<rect x="1" y="110" width="34" height="4" rx="2" fill="#D4D4D4"/>
<rect x="1" y="117" width="63" height="4" rx="2" fill="#D4D4D4"/>
<rect x="41" y="110" width="52" height="4" rx="2" fill="#D4D4D4"/>
</svg>
