<svg width="400" height="101" viewBox="0 0 400 101" fill="none" xmlns="http://www.w3.org/2000/svg">
<path d="M83.2923 2V1H82.2923H2.00195H1.00195V2V25.8769V26.8769H2.00195H26.059V98.0504V99.0504H27.059H56.9658H57.9658V98.0504V26.8769H82.2923H83.2923V25.8769V2ZM163.554 66.0839H164.422L164.544 65.2244C164.821 63.2748 164.958 61.238 164.958 59.1147C164.958 51.1054 163.266 44.1009 159.844 38.1372C156.517 32.1816 151.796 27.6144 145.702 24.4509C139.701 21.1987 132.844 19.586 125.16 19.586C117.472 19.586 110.571 21.2002 104.482 24.4522L104.476 24.4552C98.4666 27.7139 93.7507 32.4198 90.3381 38.55L90.3357 38.5545C87.0074 44.6062 85.3621 51.6969 85.3621 59.793C85.3621 67.8895 87.0076 75.0228 90.3326 81.1616L90.3369 81.1695L90.3413 81.1774C93.755 87.2167 98.4706 91.8743 104.476 95.1308L104.482 95.1338C110.571 98.3858 117.472 100 125.16 100C131.58 100 137.474 98.7523 142.828 96.2425L142.835 96.2393C148.258 93.6473 152.737 90.1651 156.251 85.7883C159.853 81.3227 162.213 76.2911 163.322 70.7053L163.56 69.5105H162.342H130.683H130.055L129.782 70.0767C129.129 71.4347 128.299 72.3974 127.316 73.0256C126.335 73.6528 125.136 73.9874 123.678 73.9874C121.404 73.9874 119.767 73.254 118.621 71.873C117.577 70.6142 116.858 68.7188 116.555 66.0839H163.554ZM130.579 46.9926L130.592 47.0034L130.606 47.0138C131.724 47.8896 132.414 49.1547 132.598 50.9245H117.107C117.593 49.1224 118.408 47.8034 119.502 46.8936C120.821 45.7957 122.67 45.1916 125.16 45.1916C127.387 45.1916 129.169 45.8093 130.579 46.9926ZM172.51 38.478L172.508 38.4841C169.741 44.5215 168.375 51.634 168.375 59.793C168.375 67.9526 169.741 75.1078 172.505 81.2324L172.509 81.2407L172.513 81.249C175.364 87.2688 179.248 91.9407 184.179 95.2202L184.19 95.2274C189.119 98.4118 194.653 100 200.764 100C205.839 100 210.278 98.9772 214.046 96.8902L214.055 96.8856L214.063 96.8808C216.755 95.3216 218.997 93.3661 220.779 91.0169V98.0504V99.0504H221.779H251.552H252.552V98.0504V21.5357V20.5357H251.552H221.779H220.779V21.5357V28.5799C218.996 26.2471 216.751 24.3312 214.055 22.8361C210.285 20.6556 205.842 19.586 200.764 19.586C194.649 19.586 189.114 21.2215 184.185 24.4978C179.245 27.6906 175.36 32.3687 172.51 38.478ZM397.002 99.0504H398.002V98.0504V53.6881C398.002 43.4674 395.255 35.245 389.658 29.1377C384.128 23.0049 376.333 19.993 366.422 19.993C361.038 19.993 356.099 21.3503 351.628 24.0691C347.648 26.4085 344.294 29.3534 341.573 32.9019C339.07 29.0331 335.841 25.9893 331.89 23.7864C327.5 21.2486 322.476 19.993 316.846 19.993C311.683 19.993 307.117 21.015 303.178 23.0931L303.169 23.0979C300.305 24.6455 297.874 26.5701 295.888 28.8726V21.5357V20.5357H294.888H264.981H263.981V21.5357V98.0504V99.0504H264.981H294.888H295.888V98.0504V57.4867C295.888 54.4319 296.766 52.1872 298.409 50.6112L298.418 50.6028L298.426 50.5941C300.082 48.9273 302.406 48.0406 305.53 48.0406C308.556 48.0406 310.839 48.9221 312.499 50.5941L312.516 50.611L312.534 50.6271C314.259 52.2065 315.173 54.4459 315.173 57.4867V98.0504V99.0504H316.173H345.945H346.945V98.0504V57.4867C346.945 54.4319 347.823 52.1872 349.466 50.6112L349.475 50.6028L349.483 50.5941C351.139 48.9273 353.463 48.0406 356.587 48.0406C359.613 48.0406 361.896 48.9221 363.557 50.5941L363.573 50.611L363.591 50.6271C365.316 52.2065 366.23 54.4459 366.23 57.4867V98.0504V99.0504H367.23H397.002ZM217.943 50.971C219.791 52.9941 220.779 55.8889 220.779 59.793C220.779 63.6971 219.791 66.5919 217.943 68.615C216.078 70.656 213.703 71.6811 210.733 71.6811C207.763 71.6811 205.387 70.656 203.523 68.615C201.675 66.5919 200.686 63.6971 200.686 59.793C200.686 55.8889 201.675 52.9941 203.523 50.971C205.387 48.93 207.763 47.9049 210.733 47.9049C213.703 47.9049 216.078 48.93 217.943 50.971Z" stroke="url(#paint0_linear)" stroke-width="2"/>
<defs>
<linearGradient id="paint0_linear" x1="35.9115" y1="50.9619" x2="420.83" y2="50.9619" gradientUnits="userSpaceOnUse">
<stop stop-color="#5228E8"/>
<stop offset="0.474707" stop-color="#7ABAFE"/>
<stop offset="1" stop-color="#E6ABFF"/>
</linearGradient>
</defs>
</svg>
