<svg width="403" height="105" viewBox="0 0 403 105" fill="none" xmlns="http://www.w3.org/2000/svg">
<path d="M86.2903 4V2H84.2903H4H2V4V27.8769V29.8769H4H27.057V100.05V102.05H29.057H58.9638H60.9638V100.05V29.8769H84.2903H86.2903V27.8769V4ZM165.552 69.0839H167.288L167.532 67.3648C167.816 65.3651 167.956 63.2811 167.956 61.1147C167.956 52.9643 166.234 45.7834 162.712 39.6441C159.29 33.5217 154.429 28.8192 148.168 25.5674C142.004 22.2285 134.983 20.586 127.158 20.586C119.326 20.586 112.26 22.2316 106.009 25.57L105.998 25.5761C99.816 28.9281 94.9646 33.7725 91.4624 40.0636L91.4575 40.0726C88.0341 46.2972 86.3602 53.5598 86.3602 61.793C86.3602 70.0271 88.0344 77.3294 91.4513 83.6378L91.4599 83.6537L91.4688 83.6695C94.9733 89.8692 99.824 94.6623 105.998 98.0099L106.009 98.0159C112.26 101.354 119.326 103 127.158 103C133.711 103 139.752 101.726 145.251 99.1479L145.257 99.1448L145.264 99.1416C150.811 96.4906 155.411 92.919 159.026 88.4181C162.73 83.8272 165.16 78.6466 166.301 72.9001L166.776 70.5105H164.34H132.682H131.425L130.879 71.6429C130.29 72.8665 129.574 73.6728 128.775 74.1829C127.98 74.6912 126.976 74.9874 125.676 74.9874C123.643 74.9874 122.311 74.346 121.389 73.2344C120.647 72.3407 120.05 70.9986 119.709 69.0839H165.552ZM131.935 49.7586L131.961 49.7803L131.987 49.8011C132.626 50.3016 133.115 50.9784 133.391 51.9245H120.506C120.932 50.9388 121.489 50.2032 122.139 49.6623C123.23 48.7554 124.827 48.1916 127.158 48.1916C129.187 48.1916 130.731 48.7487 131.935 49.7586ZM173.602 40.0553L173.597 40.0674C170.757 46.2635 169.373 53.5245 169.373 61.793C169.373 70.0627 170.757 77.3638 173.592 83.6438L173.599 83.6605L173.607 83.677C176.525 89.8379 180.521 94.6595 185.623 98.0528L185.634 98.0601L185.645 98.0673C190.744 101.361 196.468 103 202.762 103C207.972 103 212.585 101.949 216.529 99.7649L216.546 99.7557L216.562 99.7462C218.53 98.6068 220.27 97.2611 221.777 95.7108V100.05V102.05H223.777H253.55H255.55V100.05V23.5357V21.5357H253.55H223.777H221.777V23.5357V27.9085C220.266 26.3768 218.52 25.0617 216.546 23.966C212.599 21.6851 207.979 20.586 202.762 20.586C196.46 20.586 190.732 22.2744 185.634 25.6617C180.515 28.9721 176.517 33.806 173.602 40.0553ZM399 102.05H401V100.05V55.6881C401 45.2868 398.201 36.8017 392.397 30.4662C386.636 24.078 378.544 20.993 368.42 20.993C362.862 20.993 357.745 22.3962 353.114 25.2105C349.436 27.3729 346.273 30.043 343.636 33.2179C341.167 29.755 338.08 26.9801 334.381 24.9169C329.823 22.2832 324.624 20.993 318.844 20.993C313.548 20.993 308.816 22.0421 304.709 24.2087L304.7 24.2133L304.691 24.2181C302.519 25.3922 300.581 26.7798 298.886 28.3815V23.5357V21.5357H296.886H266.979H264.979V23.5357V100.05V102.05H266.979H296.886H298.886V100.05V59.4867C298.886 56.633 299.699 54.6761 301.099 53.3329L301.117 53.3161L301.134 53.2988C302.558 51.8644 304.602 51.0406 307.528 51.0406C310.347 51.0406 312.353 51.8541 313.788 53.2987L313.821 53.3325L313.857 53.3647C315.331 54.7146 316.171 56.6611 316.171 59.4867V100.05V102.05H318.171H347.943H349.943V100.05V59.4867C349.943 56.633 350.756 54.6761 352.156 53.3329L352.174 53.3161L352.191 53.2988C353.615 51.8644 355.659 51.0406 358.585 51.0406C361.404 51.0406 363.41 51.8541 364.845 53.2988L364.879 53.3325L364.914 53.3647C366.388 54.7146 367.228 56.6611 367.228 59.4867V100.05V102.05H369.228H399ZM219.202 53.6455C220.833 55.4306 221.777 58.0547 221.777 61.793C221.777 65.5313 220.833 68.1554 219.202 69.9406C217.539 71.7615 215.438 72.6811 212.731 72.6811C210.024 72.6811 207.923 71.7615 206.259 69.9406C204.628 68.1554 203.684 65.5313 203.684 61.793C203.684 58.0547 204.628 55.4306 206.259 53.6455C207.923 51.8245 210.024 50.9049 212.731 50.9049C215.438 50.9049 217.539 51.8245 219.202 53.6455Z" stroke="url(#paint0_linear)" stroke-width="4"/>
<defs>
<linearGradient id="paint0_linear" x1="37.9095" y1="52.9619" x2="422.828" y2="52.9619" gradientUnits="userSpaceOnUse">
<stop stop-color="#5228E8"/>
<stop offset="0.474707" stop-color="#7ABAFE"/>
<stop offset="1" stop-color="#5228E8"/>
</linearGradient>
</defs>
</svg>
