<svg width="910" height="127" viewBox="0 0 910 127" fill="none" xmlns="http://www.w3.org/2000/svg">
<mask id="path-1-outside-1" maskUnits="userSpaceOnUse" x="0" y="0" width="910" height="127" fill="black">
<rect fill="white" width="910" height="127"/>
<path d="M87.6864 21.2237V46.2763H61.2887V122.004H30.1169V46.2763H4V21.2237H87.6864ZM133.772 123C125.815 123 118.654 121.339 112.288 118.018C105.923 114.697 100.915 109.952 97.2641 103.783C93.707 97.5203 91.9284 90.2133 91.9284 81.8624C91.9284 73.5116 93.707 66.252 97.2641 60.0837C100.915 53.8206 105.923 49.0283 112.288 45.7069C118.654 42.3856 125.815 40.7249 133.772 40.7249C141.728 40.7249 148.889 42.3856 155.255 45.7069C161.62 49.0283 166.582 53.8206 170.139 60.0837C173.789 66.252 175.615 73.5116 175.615 81.8624C175.615 90.2133 173.789 97.5203 170.139 103.783C166.582 109.952 161.62 114.697 155.255 118.018C148.889 121.339 141.728 123 133.772 123ZM133.772 95.6699C136.673 95.6699 139.107 94.5311 141.073 92.2536C143.039 89.8812 144.022 86.4175 144.022 81.8624C144.022 77.3074 143.039 73.8912 141.073 71.6136C139.107 69.2412 136.673 68.055 133.772 68.055C130.87 68.055 128.436 69.2412 126.47 71.6136C124.504 73.8912 123.521 77.3074 123.521 81.8624C123.521 86.4175 124.458 89.8812 126.33 92.2536C128.295 94.5311 130.776 95.6699 133.772 95.6699ZM236.097 122.004L216.579 89.9761V122.004H185.408V16.6687H216.579V71.756L236.378 41.7213H272.604L242.977 82.1471L273.306 122.004H236.097ZM356.962 81.1507C356.962 83.3333 356.822 85.4211 356.541 87.4139H306.413C306.881 94.3413 309.736 97.805 314.978 97.805C318.348 97.805 320.782 96.2392 322.28 93.1077H355.277C354.154 98.8014 351.767 103.926 348.116 108.481C344.559 112.941 340.019 116.5 334.496 119.157C329.067 121.719 323.076 123 316.523 123C308.66 123 301.639 121.339 295.461 118.018C289.376 114.697 284.602 109.952 281.139 103.783C277.769 97.5203 276.084 90.2133 276.084 81.8624C276.084 73.5116 277.769 66.252 281.139 60.0837C284.602 53.8206 289.376 49.0283 295.461 45.7069C301.639 42.3856 308.66 40.7249 316.523 40.7249C324.386 40.7249 331.36 42.3856 337.445 45.7069C343.623 48.9334 348.397 53.5833 351.767 59.6567C355.23 65.7301 356.962 72.8947 356.962 81.1507ZM325.369 73.6065C325.369 70.9494 324.527 68.9565 322.842 67.628C321.157 66.2045 319.05 65.4928 316.523 65.4928C311 65.4928 307.771 68.1974 306.834 73.6065H325.369ZM422.284 41.1519C431.364 41.1519 438.431 44.236 443.486 50.4043C448.635 56.5726 451.209 64.9234 451.209 75.4569V122.004H420.178V79.4426C420.178 75.6467 419.148 72.6575 417.089 70.4749C415.123 68.1974 412.455 67.0586 409.085 67.0586C405.621 67.0586 402.907 68.1974 400.941 70.4749C398.975 72.6575 397.992 75.6467 397.992 79.4426V122.004H366.821V41.7213H397.992V53.9629C400.426 50.1671 403.656 47.0829 407.681 44.7105C411.8 42.3381 416.667 41.1519 422.284 41.1519ZM502.357 123C494.4 123 487.239 121.339 480.874 118.018C474.508 114.697 469.5 109.952 465.849 103.783C462.292 97.5203 460.514 90.2133 460.514 81.8624C460.514 73.5116 462.292 66.252 465.849 60.0837C469.5 53.8206 474.508 49.0283 480.874 45.7069C487.239 42.3856 494.4 40.7249 502.357 40.7249C510.314 40.7249 517.475 42.3856 523.84 45.7069C530.206 49.0283 535.167 53.8206 538.724 60.0837C542.375 66.252 544.2 73.5116 544.2 81.8624C544.2 90.2133 542.375 97.5203 538.724 103.783C535.167 109.952 530.206 114.697 523.84 118.018C517.475 121.339 510.314 123 502.357 123ZM502.357 95.6699C505.259 95.6699 507.693 94.5311 509.658 92.2536C511.624 89.8812 512.607 86.4175 512.607 81.8624C512.607 77.3074 511.624 73.8912 509.658 71.6136C507.693 69.2412 505.259 68.055 502.357 68.055C499.455 68.055 497.021 69.2412 495.055 71.6136C493.09 73.8912 492.107 77.3074 492.107 81.8624C492.107 86.4175 493.043 89.8812 494.915 92.2536C496.881 94.5311 499.361 95.6699 502.357 95.6699ZM659.724 41.1519C669.834 41.1519 677.65 44.236 683.173 50.4043C688.79 56.5726 691.598 64.9234 691.598 75.4569V122.004H660.567V79.4426C660.567 76.0263 659.537 73.3692 657.477 71.4713C655.512 69.4785 652.844 68.4821 649.474 68.4821C646.01 68.4821 643.296 69.4785 641.33 71.4713C639.364 73.3692 638.381 76.0263 638.381 79.4426V122.004H607.35V79.4426C607.35 76.0263 606.32 73.3692 604.261 71.4713C602.295 69.4785 599.627 68.4821 596.257 68.4821C592.794 68.4821 590.079 69.4785 588.113 71.4713C586.147 73.3692 585.165 76.0263 585.165 79.4426V122.004H553.993V41.7213H585.165V52.5395C587.411 49.1232 590.453 46.3712 594.291 44.2835C598.223 42.1958 602.81 41.1519 608.052 41.1519C613.762 41.1519 618.817 42.433 623.217 44.9952C627.616 47.4625 631.127 50.9737 633.748 55.5287C636.649 51.3533 640.347 47.937 644.84 45.2799C649.333 42.5279 654.295 41.1519 659.724 41.1519ZM720.828 35.3158C715.399 35.3158 711.046 33.8449 707.77 30.9031C704.493 27.9613 702.855 24.2604 702.855 19.8002C702.855 15.2452 704.493 11.4968 707.77 8.55502C711.046 5.51834 715.399 4 720.828 4C726.164 4 730.47 5.51834 733.746 8.55502C737.022 11.4968 738.661 15.2452 738.661 19.8002C738.661 24.2604 737.022 27.9613 733.746 30.9031C730.47 33.8449 726.164 35.3158 720.828 35.3158ZM736.273 41.7213V122.004H705.102V41.7213H736.273ZM746.14 81.8624C746.14 73.5116 747.825 66.252 751.195 60.0837C754.658 53.8206 759.432 49.0283 765.517 45.7069C771.695 42.3856 778.716 40.7249 786.579 40.7249C796.876 40.7249 805.535 43.6667 812.555 49.5502C819.669 55.4338 824.163 63.5949 826.035 74.0335H793.038C791.821 69.8581 789.434 67.7703 785.877 67.7703C783.349 67.7703 781.337 68.9565 779.839 71.3289C778.435 73.7014 777.733 77.2125 777.733 81.8624C777.733 86.5124 778.435 90.0235 779.839 92.3959C781.337 94.7683 783.349 95.9545 785.877 95.9545C789.434 95.9545 791.821 93.8668 793.038 89.6914H826.035C824.163 100.13 819.669 108.291 812.555 114.175C805.535 120.058 796.876 123 786.579 123C778.716 123 771.695 121.339 765.517 118.018C759.432 114.697 754.658 109.952 751.195 103.783C747.825 97.5203 746.14 90.2133 746.14 81.8624ZM871.16 123C863.672 123 857.025 121.766 851.222 119.299C845.511 116.832 840.971 113.415 837.602 109.05C834.232 104.685 832.313 99.7504 831.845 94.2464H861.753C862.127 96.6188 863.11 98.3744 864.701 99.5132C866.386 100.652 868.492 101.221 871.02 101.221C872.611 101.221 873.875 100.889 874.811 100.225C875.747 99.4657 876.215 98.5642 876.215 97.5203C876.215 95.7173 875.232 94.4362 873.266 93.677C871.301 92.9179 867.978 92.0638 863.297 91.1148C857.587 89.9761 852.86 88.7424 849.115 87.4139C845.465 86.0853 842.235 83.8078 839.427 80.5813C836.712 77.3549 835.355 72.8947 835.355 67.201C835.355 62.2663 836.619 57.8062 839.146 53.8206C841.767 49.74 845.605 46.561 850.66 44.2835C855.715 41.9111 861.846 40.7249 869.054 40.7249C879.725 40.7249 888.057 43.382 894.048 48.6962C900.132 54.0104 903.783 60.9378 905 69.4785H877.338C876.87 67.2959 875.888 65.6352 874.39 64.4964C872.892 63.2628 870.879 62.6459 868.352 62.6459C866.761 62.6459 865.544 62.9781 864.701 63.6423C863.859 64.2117 863.438 65.1132 863.438 66.3469C863.438 67.9601 864.42 69.1938 866.386 70.0479C868.352 70.807 871.488 71.6136 875.794 72.4677C881.504 73.6065 886.325 74.8876 890.257 76.311C894.188 77.7345 897.605 80.2018 900.507 83.7129C903.409 87.1292 904.86 91.874 904.86 97.9474C904.86 102.692 903.502 106.963 900.788 110.758C898.073 114.554 894.141 117.543 888.993 119.726C883.938 121.909 877.994 123 871.16 123Z"/>
</mask>
<path d="M87.6864 21.2237V46.2763H61.2887V122.004H30.1169V46.2763H4V21.2237H87.6864ZM133.772 123C125.815 123 118.654 121.339 112.288 118.018C105.923 114.697 100.915 109.952 97.2641 103.783C93.707 97.5203 91.9284 90.2133 91.9284 81.8624C91.9284 73.5116 93.707 66.252 97.2641 60.0837C100.915 53.8206 105.923 49.0283 112.288 45.7069C118.654 42.3856 125.815 40.7249 133.772 40.7249C141.728 40.7249 148.889 42.3856 155.255 45.7069C161.62 49.0283 166.582 53.8206 170.139 60.0837C173.789 66.252 175.615 73.5116 175.615 81.8624C175.615 90.2133 173.789 97.5203 170.139 103.783C166.582 109.952 161.62 114.697 155.255 118.018C148.889 121.339 141.728 123 133.772 123ZM133.772 95.6699C136.673 95.6699 139.107 94.5311 141.073 92.2536C143.039 89.8812 144.022 86.4175 144.022 81.8624C144.022 77.3074 143.039 73.8912 141.073 71.6136C139.107 69.2412 136.673 68.055 133.772 68.055C130.87 68.055 128.436 69.2412 126.47 71.6136C124.504 73.8912 123.521 77.3074 123.521 81.8624C123.521 86.4175 124.458 89.8812 126.33 92.2536C128.295 94.5311 130.776 95.6699 133.772 95.6699ZM236.097 122.004L216.579 89.9761V122.004H185.408V16.6687H216.579V71.756L236.378 41.7213H272.604L242.977 82.1471L273.306 122.004H236.097ZM356.962 81.1507C356.962 83.3333 356.822 85.4211 356.541 87.4139H306.413C306.881 94.3413 309.736 97.805 314.978 97.805C318.348 97.805 320.782 96.2392 322.28 93.1077H355.277C354.154 98.8014 351.767 103.926 348.116 108.481C344.559 112.941 340.019 116.5 334.496 119.157C329.067 121.719 323.076 123 316.523 123C308.66 123 301.639 121.339 295.461 118.018C289.376 114.697 284.602 109.952 281.139 103.783C277.769 97.5203 276.084 90.2133 276.084 81.8624C276.084 73.5116 277.769 66.252 281.139 60.0837C284.602 53.8206 289.376 49.0283 295.461 45.7069C301.639 42.3856 308.66 40.7249 316.523 40.7249C324.386 40.7249 331.36 42.3856 337.445 45.7069C343.623 48.9334 348.397 53.5833 351.767 59.6567C355.23 65.7301 356.962 72.8947 356.962 81.1507ZM325.369 73.6065C325.369 70.9494 324.527 68.9565 322.842 67.628C321.157 66.2045 319.05 65.4928 316.523 65.4928C311 65.4928 307.771 68.1974 306.834 73.6065H325.369ZM422.284 41.1519C431.364 41.1519 438.431 44.236 443.486 50.4043C448.635 56.5726 451.209 64.9234 451.209 75.4569V122.004H420.178V79.4426C420.178 75.6467 419.148 72.6575 417.089 70.4749C415.123 68.1974 412.455 67.0586 409.085 67.0586C405.621 67.0586 402.907 68.1974 400.941 70.4749C398.975 72.6575 397.992 75.6467 397.992 79.4426V122.004H366.821V41.7213H397.992V53.9629C400.426 50.1671 403.656 47.0829 407.681 44.7105C411.8 42.3381 416.667 41.1519 422.284 41.1519ZM502.357 123C494.4 123 487.239 121.339 480.874 118.018C474.508 114.697 469.5 109.952 465.849 103.783C462.292 97.5203 460.514 90.2133 460.514 81.8624C460.514 73.5116 462.292 66.252 465.849 60.0837C469.5 53.8206 474.508 49.0283 480.874 45.7069C487.239 42.3856 494.4 40.7249 502.357 40.7249C510.314 40.7249 517.475 42.3856 523.84 45.7069C530.206 49.0283 535.167 53.8206 538.724 60.0837C542.375 66.252 544.2 73.5116 544.2 81.8624C544.2 90.2133 542.375 97.5203 538.724 103.783C535.167 109.952 530.206 114.697 523.84 118.018C517.475 121.339 510.314 123 502.357 123ZM502.357 95.6699C505.259 95.6699 507.693 94.5311 509.658 92.2536C511.624 89.8812 512.607 86.4175 512.607 81.8624C512.607 77.3074 511.624 73.8912 509.658 71.6136C507.693 69.2412 505.259 68.055 502.357 68.055C499.455 68.055 497.021 69.2412 495.055 71.6136C493.09 73.8912 492.107 77.3074 492.107 81.8624C492.107 86.4175 493.043 89.8812 494.915 92.2536C496.881 94.5311 499.361 95.6699 502.357 95.6699ZM659.724 41.1519C669.834 41.1519 677.65 44.236 683.173 50.4043C688.79 56.5726 691.598 64.9234 691.598 75.4569V122.004H660.567V79.4426C660.567 76.0263 659.537 73.3692 657.477 71.4713C655.512 69.4785 652.844 68.4821 649.474 68.4821C646.01 68.4821 643.296 69.4785 641.33 71.4713C639.364 73.3692 638.381 76.0263 638.381 79.4426V122.004H607.35V79.4426C607.35 76.0263 606.32 73.3692 604.261 71.4713C602.295 69.4785 599.627 68.4821 596.257 68.4821C592.794 68.4821 590.079 69.4785 588.113 71.4713C586.147 73.3692 585.165 76.0263 585.165 79.4426V122.004H553.993V41.7213H585.165V52.5395C587.411 49.1232 590.453 46.3712 594.291 44.2835C598.223 42.1958 602.81 41.1519 608.052 41.1519C613.762 41.1519 618.817 42.433 623.217 44.9952C627.616 47.4625 631.127 50.9737 633.748 55.5287C636.649 51.3533 640.347 47.937 644.84 45.2799C649.333 42.5279 654.295 41.1519 659.724 41.1519ZM720.828 35.3158C715.399 35.3158 711.046 33.8449 707.77 30.9031C704.493 27.9613 702.855 24.2604 702.855 19.8002C702.855 15.2452 704.493 11.4968 707.77 8.55502C711.046 5.51834 715.399 4 720.828 4C726.164 4 730.47 5.51834 733.746 8.55502C737.022 11.4968 738.661 15.2452 738.661 19.8002C738.661 24.2604 737.022 27.9613 733.746 30.9031C730.47 33.8449 726.164 35.3158 720.828 35.3158ZM736.273 41.7213V122.004H705.102V41.7213H736.273ZM746.14 81.8624C746.14 73.5116 747.825 66.252 751.195 60.0837C754.658 53.8206 759.432 49.0283 765.517 45.7069C771.695 42.3856 778.716 40.7249 786.579 40.7249C796.876 40.7249 805.535 43.6667 812.555 49.5502C819.669 55.4338 824.163 63.5949 826.035 74.0335H793.038C791.821 69.8581 789.434 67.7703 785.877 67.7703C783.349 67.7703 781.337 68.9565 779.839 71.3289C778.435 73.7014 777.733 77.2125 777.733 81.8624C777.733 86.5124 778.435 90.0235 779.839 92.3959C781.337 94.7683 783.349 95.9545 785.877 95.9545C789.434 95.9545 791.821 93.8668 793.038 89.6914H826.035C824.163 100.13 819.669 108.291 812.555 114.175C805.535 120.058 796.876 123 786.579 123C778.716 123 771.695 121.339 765.517 118.018C759.432 114.697 754.658 109.952 751.195 103.783C747.825 97.5203 746.14 90.2133 746.14 81.8624ZM871.16 123C863.672 123 857.025 121.766 851.222 119.299C845.511 116.832 840.971 113.415 837.602 109.05C834.232 104.685 832.313 99.7504 831.845 94.2464H861.753C862.127 96.6188 863.11 98.3744 864.701 99.5132C866.386 100.652 868.492 101.221 871.02 101.221C872.611 101.221 873.875 100.889 874.811 100.225C875.747 99.4657 876.215 98.5642 876.215 97.5203C876.215 95.7173 875.232 94.4362 873.266 93.677C871.301 92.9179 867.978 92.0638 863.297 91.1148C857.587 89.9761 852.86 88.7424 849.115 87.4139C845.465 86.0853 842.235 83.8078 839.427 80.5813C836.712 77.3549 835.355 72.8947 835.355 67.201C835.355 62.2663 836.619 57.8062 839.146 53.8206C841.767 49.74 845.605 46.561 850.66 44.2835C855.715 41.9111 861.846 40.7249 869.054 40.7249C879.725 40.7249 888.057 43.382 894.048 48.6962C900.132 54.0104 903.783 60.9378 905 69.4785H877.338C876.87 67.2959 875.888 65.6352 874.39 64.4964C872.892 63.2628 870.879 62.6459 868.352 62.6459C866.761 62.6459 865.544 62.9781 864.701 63.6423C863.859 64.2117 863.438 65.1132 863.438 66.3469C863.438 67.9601 864.42 69.1938 866.386 70.0479C868.352 70.807 871.488 71.6136 875.794 72.4677C881.504 73.6065 886.325 74.8876 890.257 76.311C894.188 77.7345 897.605 80.2018 900.507 83.7129C903.409 87.1292 904.86 91.874 904.86 97.9474C904.86 102.692 903.502 106.963 900.788 110.758C898.073 114.554 894.141 117.543 888.993 119.726C883.938 121.909 877.994 123 871.16 123Z" stroke="url(#paint0_linear)" stroke-width="8" mask="url(#path-1-outside-1)"/>
<defs>
<linearGradient id="paint0_linear" x1="17.5" y1="80.5" x2="926.5" y2="77" gradientUnits="userSpaceOnUse">
<stop stop-color="#5228E8"/>
<stop offset="0.542081" stop-color="#78B4FD"/>
<stop offset="1" stop-color="#EBA9FF"/>
</linearGradient>
</defs>
</svg>
