<svg width="906" height="123" viewBox="0 0 906 123" fill="none" xmlns="http://www.w3.org/2000/svg">
<mask id="path-1-outside-1" maskUnits="userSpaceOnUse" x="0" y="0" width="906" height="123" fill="black">
<rect fill="white" width="906" height="123"/>
<path d="M85.6864 19.2237V44.2763H59.2887V120.004H28.1169V44.2763H2V19.2237H85.6864ZM131.772 121C123.815 121 116.654 119.339 110.288 116.018C103.923 112.697 98.9149 107.952 95.2641 101.783C91.707 95.5203 89.9284 88.2133 89.9284 79.8624C89.9284 71.5116 91.707 64.252 95.2641 58.0837C98.9149 51.8206 103.923 47.0283 110.288 43.7069C116.654 40.3856 123.815 38.7249 131.772 38.7249C139.728 38.7249 146.889 40.3856 153.255 43.7069C159.62 47.0283 164.582 51.8206 168.139 58.0837C171.789 64.252 173.615 71.5116 173.615 79.8624C173.615 88.2133 171.789 95.5203 168.139 101.783C164.582 107.952 159.62 112.697 153.255 116.018C146.889 119.339 139.728 121 131.772 121ZM131.772 93.6699C134.673 93.6699 137.107 92.5311 139.073 90.2536C141.039 87.8812 142.022 84.4175 142.022 79.8624C142.022 75.3074 141.039 71.8912 139.073 69.6136C137.107 67.2412 134.673 66.055 131.772 66.055C128.87 66.055 126.436 67.2412 124.47 69.6136C122.504 71.8912 121.521 75.3074 121.521 79.8624C121.521 84.4175 122.458 87.8812 124.33 90.2536C126.295 92.5311 128.776 93.6699 131.772 93.6699ZM234.097 120.004L214.579 87.9761V120.004H183.408V14.6687H214.579V69.756L234.378 39.7213H270.604L240.977 80.1471L271.306 120.004H234.097ZM354.962 79.1507C354.962 81.3333 354.822 83.4211 354.541 85.4139H304.413C304.881 92.3413 307.736 95.805 312.978 95.805C316.348 95.805 318.782 94.2392 320.28 91.1077H353.277C352.154 96.8014 349.767 101.926 346.116 106.481C342.559 110.941 338.019 114.5 332.496 117.157C327.067 119.719 321.076 121 314.523 121C306.66 121 299.639 119.339 293.461 116.018C287.376 112.697 282.602 107.952 279.139 101.783C275.769 95.5203 274.084 88.2133 274.084 79.8624C274.084 71.5116 275.769 64.252 279.139 58.0837C282.602 51.8206 287.376 47.0283 293.461 43.7069C299.639 40.3856 306.66 38.7249 314.523 38.7249C322.386 38.7249 329.36 40.3856 335.445 43.7069C341.623 46.9334 346.397 51.5833 349.767 57.6567C353.23 63.7301 354.962 70.8947 354.962 79.1507ZM323.369 71.6065C323.369 68.9494 322.527 66.9565 320.842 65.628C319.157 64.2045 317.05 63.4928 314.523 63.4928C309 63.4928 305.771 66.1974 304.834 71.6065H323.369ZM420.284 39.1519C429.364 39.1519 436.431 42.236 441.486 48.4043C446.635 54.5726 449.209 62.9234 449.209 73.4569V120.004H418.178V77.4426C418.178 73.6467 417.148 70.6575 415.089 68.4749C413.123 66.1974 410.455 65.0586 407.085 65.0586C403.621 65.0586 400.907 66.1974 398.941 68.4749C396.975 70.6575 395.992 73.6467 395.992 77.4426V120.004H364.821V39.7213H395.992V51.9629C398.426 48.1671 401.656 45.0829 405.681 42.7105C409.8 40.3381 414.667 39.1519 420.284 39.1519ZM500.357 121C492.4 121 485.239 119.339 478.874 116.018C472.508 112.697 467.5 107.952 463.849 101.783C460.292 95.5203 458.514 88.2133 458.514 79.8624C458.514 71.5116 460.292 64.252 463.849 58.0837C467.5 51.8206 472.508 47.0283 478.874 43.7069C485.239 40.3856 492.4 38.7249 500.357 38.7249C508.314 38.7249 515.475 40.3856 521.84 43.7069C528.206 47.0283 533.167 51.8206 536.724 58.0837C540.375 64.252 542.2 71.5116 542.2 79.8624C542.2 88.2133 540.375 95.5203 536.724 101.783C533.167 107.952 528.206 112.697 521.84 116.018C515.475 119.339 508.314 121 500.357 121ZM500.357 93.6699C503.259 93.6699 505.693 92.5311 507.658 90.2536C509.624 87.8812 510.607 84.4175 510.607 79.8624C510.607 75.3074 509.624 71.8912 507.658 69.6136C505.693 67.2412 503.259 66.055 500.357 66.055C497.455 66.055 495.021 67.2412 493.055 69.6136C491.09 71.8912 490.107 75.3074 490.107 79.8624C490.107 84.4175 491.043 87.8812 492.915 90.2536C494.881 92.5311 497.361 93.6699 500.357 93.6699ZM657.724 39.1519C667.834 39.1519 675.65 42.236 681.173 48.4043C686.79 54.5726 689.598 62.9234 689.598 73.4569V120.004H658.567V77.4426C658.567 74.0263 657.537 71.3692 655.477 69.4713C653.512 67.4785 650.844 66.4821 647.474 66.4821C644.01 66.4821 641.296 67.4785 639.33 69.4713C637.364 71.3692 636.381 74.0263 636.381 77.4426V120.004H605.35V77.4426C605.35 74.0263 604.32 71.3692 602.261 69.4713C600.295 67.4785 597.627 66.4821 594.257 66.4821C590.794 66.4821 588.079 67.4785 586.113 69.4713C584.147 71.3692 583.165 74.0263 583.165 77.4426V120.004H551.993V39.7213H583.165V50.5395C585.411 47.1232 588.453 44.3712 592.291 42.2835C596.223 40.1958 600.81 39.1519 606.052 39.1519C611.762 39.1519 616.817 40.433 621.217 42.9952C625.616 45.4625 629.127 48.9737 631.748 53.5287C634.649 49.3533 638.347 45.937 642.84 43.2799C647.333 40.5279 652.295 39.1519 657.724 39.1519ZM718.828 33.3158C713.399 33.3158 709.046 31.8449 705.77 28.9031C702.493 25.9613 700.855 22.2604 700.855 17.8002C700.855 13.2452 702.493 9.49681 705.77 6.55502C709.046 3.51834 713.399 2 718.828 2C724.164 2 728.47 3.51834 731.746 6.55502C735.022 9.49681 736.661 13.2452 736.661 17.8002C736.661 22.2604 735.022 25.9613 731.746 28.9031C728.47 31.8449 724.164 33.3158 718.828 33.3158ZM734.273 39.7213V120.004H703.102V39.7213H734.273ZM744.14 79.8624C744.14 71.5116 745.825 64.252 749.195 58.0837C752.658 51.8206 757.432 47.0283 763.517 43.7069C769.695 40.3856 776.716 38.7249 784.579 38.7249C794.876 38.7249 803.535 41.6667 810.555 47.5502C817.669 53.4338 822.163 61.5949 824.035 72.0335H791.038C789.821 67.8581 787.434 65.7703 783.877 65.7703C781.349 65.7703 779.337 66.9565 777.839 69.3289C776.435 71.7014 775.733 75.2125 775.733 79.8624C775.733 84.5124 776.435 88.0235 777.839 90.3959C779.337 92.7683 781.349 93.9545 783.877 93.9545C787.434 93.9545 789.821 91.8668 791.038 87.6914H824.035C822.163 98.13 817.669 106.291 810.555 112.175C803.535 118.058 794.876 121 784.579 121C776.716 121 769.695 119.339 763.517 116.018C757.432 112.697 752.658 107.952 749.195 101.783C745.825 95.5203 744.14 88.2133 744.14 79.8624ZM869.16 121C861.672 121 855.025 119.766 849.222 117.299C843.511 114.832 838.971 111.415 835.602 107.05C832.232 102.685 830.313 97.7504 829.845 92.2464H859.753C860.127 94.6188 861.11 96.3744 862.701 97.5132C864.386 98.6519 866.492 99.2213 869.02 99.2213C870.611 99.2213 871.875 98.8892 872.811 98.2249C873.747 97.4657 874.215 96.5642 874.215 95.5203C874.215 93.7173 873.232 92.4362 871.266 91.677C869.301 90.9179 865.978 90.0638 861.297 89.1148C855.587 87.9761 850.86 86.7424 847.115 85.4139C843.465 84.0853 840.235 81.8078 837.427 78.5813C834.712 75.3549 833.355 70.8947 833.355 65.201C833.355 60.2663 834.619 55.8062 837.146 51.8206C839.767 47.74 843.605 44.561 848.66 42.2835C853.715 39.9111 859.846 38.7249 867.054 38.7249C877.725 38.7249 886.057 41.382 892.048 46.6962C898.132 52.0104 901.783 58.9378 903 67.4785H875.338C874.87 65.2959 873.888 63.6352 872.39 62.4964C870.892 61.2628 868.879 60.6459 866.352 60.6459C864.761 60.6459 863.544 60.9781 862.701 61.6423C861.859 62.2117 861.438 63.1132 861.438 64.3469C861.438 65.9601 862.42 67.1938 864.386 68.0479C866.352 68.807 869.488 69.6136 873.794 70.4677C879.504 71.6065 884.325 72.8876 888.257 74.311C892.188 75.7345 895.605 78.2018 898.507 81.7129C901.409 85.1292 902.86 89.874 902.86 95.9474C902.86 100.692 901.502 104.963 898.788 108.758C896.073 112.554 892.141 115.543 886.993 117.726C881.938 119.909 875.994 121 869.16 121Z"/>
</mask>
<path d="M85.6864 19.2237V44.2763H59.2887V120.004H28.1169V44.2763H2V19.2237H85.6864ZM131.772 121C123.815 121 116.654 119.339 110.288 116.018C103.923 112.697 98.9149 107.952 95.2641 101.783C91.707 95.5203 89.9284 88.2133 89.9284 79.8624C89.9284 71.5116 91.707 64.252 95.2641 58.0837C98.9149 51.8206 103.923 47.0283 110.288 43.7069C116.654 40.3856 123.815 38.7249 131.772 38.7249C139.728 38.7249 146.889 40.3856 153.255 43.7069C159.62 47.0283 164.582 51.8206 168.139 58.0837C171.789 64.252 173.615 71.5116 173.615 79.8624C173.615 88.2133 171.789 95.5203 168.139 101.783C164.582 107.952 159.62 112.697 153.255 116.018C146.889 119.339 139.728 121 131.772 121ZM131.772 93.6699C134.673 93.6699 137.107 92.5311 139.073 90.2536C141.039 87.8812 142.022 84.4175 142.022 79.8624C142.022 75.3074 141.039 71.8912 139.073 69.6136C137.107 67.2412 134.673 66.055 131.772 66.055C128.87 66.055 126.436 67.2412 124.47 69.6136C122.504 71.8912 121.521 75.3074 121.521 79.8624C121.521 84.4175 122.458 87.8812 124.33 90.2536C126.295 92.5311 128.776 93.6699 131.772 93.6699ZM234.097 120.004L214.579 87.9761V120.004H183.408V14.6687H214.579V69.756L234.378 39.7213H270.604L240.977 80.1471L271.306 120.004H234.097ZM354.962 79.1507C354.962 81.3333 354.822 83.4211 354.541 85.4139H304.413C304.881 92.3413 307.736 95.805 312.978 95.805C316.348 95.805 318.782 94.2392 320.28 91.1077H353.277C352.154 96.8014 349.767 101.926 346.116 106.481C342.559 110.941 338.019 114.5 332.496 117.157C327.067 119.719 321.076 121 314.523 121C306.66 121 299.639 119.339 293.461 116.018C287.376 112.697 282.602 107.952 279.139 101.783C275.769 95.5203 274.084 88.2133 274.084 79.8624C274.084 71.5116 275.769 64.252 279.139 58.0837C282.602 51.8206 287.376 47.0283 293.461 43.7069C299.639 40.3856 306.66 38.7249 314.523 38.7249C322.386 38.7249 329.36 40.3856 335.445 43.7069C341.623 46.9334 346.397 51.5833 349.767 57.6567C353.23 63.7301 354.962 70.8947 354.962 79.1507ZM323.369 71.6065C323.369 68.9494 322.527 66.9565 320.842 65.628C319.157 64.2045 317.05 63.4928 314.523 63.4928C309 63.4928 305.771 66.1974 304.834 71.6065H323.369ZM420.284 39.1519C429.364 39.1519 436.431 42.236 441.486 48.4043C446.635 54.5726 449.209 62.9234 449.209 73.4569V120.004H418.178V77.4426C418.178 73.6467 417.148 70.6575 415.089 68.4749C413.123 66.1974 410.455 65.0586 407.085 65.0586C403.621 65.0586 400.907 66.1974 398.941 68.4749C396.975 70.6575 395.992 73.6467 395.992 77.4426V120.004H364.821V39.7213H395.992V51.9629C398.426 48.1671 401.656 45.0829 405.681 42.7105C409.8 40.3381 414.667 39.1519 420.284 39.1519ZM500.357 121C492.4 121 485.239 119.339 478.874 116.018C472.508 112.697 467.5 107.952 463.849 101.783C460.292 95.5203 458.514 88.2133 458.514 79.8624C458.514 71.5116 460.292 64.252 463.849 58.0837C467.5 51.8206 472.508 47.0283 478.874 43.7069C485.239 40.3856 492.4 38.7249 500.357 38.7249C508.314 38.7249 515.475 40.3856 521.84 43.7069C528.206 47.0283 533.167 51.8206 536.724 58.0837C540.375 64.252 542.2 71.5116 542.2 79.8624C542.2 88.2133 540.375 95.5203 536.724 101.783C533.167 107.952 528.206 112.697 521.84 116.018C515.475 119.339 508.314 121 500.357 121ZM500.357 93.6699C503.259 93.6699 505.693 92.5311 507.658 90.2536C509.624 87.8812 510.607 84.4175 510.607 79.8624C510.607 75.3074 509.624 71.8912 507.658 69.6136C505.693 67.2412 503.259 66.055 500.357 66.055C497.455 66.055 495.021 67.2412 493.055 69.6136C491.09 71.8912 490.107 75.3074 490.107 79.8624C490.107 84.4175 491.043 87.8812 492.915 90.2536C494.881 92.5311 497.361 93.6699 500.357 93.6699ZM657.724 39.1519C667.834 39.1519 675.65 42.236 681.173 48.4043C686.79 54.5726 689.598 62.9234 689.598 73.4569V120.004H658.567V77.4426C658.567 74.0263 657.537 71.3692 655.477 69.4713C653.512 67.4785 650.844 66.4821 647.474 66.4821C644.01 66.4821 641.296 67.4785 639.33 69.4713C637.364 71.3692 636.381 74.0263 636.381 77.4426V120.004H605.35V77.4426C605.35 74.0263 604.32 71.3692 602.261 69.4713C600.295 67.4785 597.627 66.4821 594.257 66.4821C590.794 66.4821 588.079 67.4785 586.113 69.4713C584.147 71.3692 583.165 74.0263 583.165 77.4426V120.004H551.993V39.7213H583.165V50.5395C585.411 47.1232 588.453 44.3712 592.291 42.2835C596.223 40.1958 600.81 39.1519 606.052 39.1519C611.762 39.1519 616.817 40.433 621.217 42.9952C625.616 45.4625 629.127 48.9737 631.748 53.5287C634.649 49.3533 638.347 45.937 642.84 43.2799C647.333 40.5279 652.295 39.1519 657.724 39.1519ZM718.828 33.3158C713.399 33.3158 709.046 31.8449 705.77 28.9031C702.493 25.9613 700.855 22.2604 700.855 17.8002C700.855 13.2452 702.493 9.49681 705.77 6.55502C709.046 3.51834 713.399 2 718.828 2C724.164 2 728.47 3.51834 731.746 6.55502C735.022 9.49681 736.661 13.2452 736.661 17.8002C736.661 22.2604 735.022 25.9613 731.746 28.9031C728.47 31.8449 724.164 33.3158 718.828 33.3158ZM734.273 39.7213V120.004H703.102V39.7213H734.273ZM744.14 79.8624C744.14 71.5116 745.825 64.252 749.195 58.0837C752.658 51.8206 757.432 47.0283 763.517 43.7069C769.695 40.3856 776.716 38.7249 784.579 38.7249C794.876 38.7249 803.535 41.6667 810.555 47.5502C817.669 53.4338 822.163 61.5949 824.035 72.0335H791.038C789.821 67.8581 787.434 65.7703 783.877 65.7703C781.349 65.7703 779.337 66.9565 777.839 69.3289C776.435 71.7014 775.733 75.2125 775.733 79.8624C775.733 84.5124 776.435 88.0235 777.839 90.3959C779.337 92.7683 781.349 93.9545 783.877 93.9545C787.434 93.9545 789.821 91.8668 791.038 87.6914H824.035C822.163 98.13 817.669 106.291 810.555 112.175C803.535 118.058 794.876 121 784.579 121C776.716 121 769.695 119.339 763.517 116.018C757.432 112.697 752.658 107.952 749.195 101.783C745.825 95.5203 744.14 88.2133 744.14 79.8624ZM869.16 121C861.672 121 855.025 119.766 849.222 117.299C843.511 114.832 838.971 111.415 835.602 107.05C832.232 102.685 830.313 97.7504 829.845 92.2464H859.753C860.127 94.6188 861.11 96.3744 862.701 97.5132C864.386 98.6519 866.492 99.2213 869.02 99.2213C870.611 99.2213 871.875 98.8892 872.811 98.2249C873.747 97.4657 874.215 96.5642 874.215 95.5203C874.215 93.7173 873.232 92.4362 871.266 91.677C869.301 90.9179 865.978 90.0638 861.297 89.1148C855.587 87.9761 850.86 86.7424 847.115 85.4139C843.465 84.0853 840.235 81.8078 837.427 78.5813C834.712 75.3549 833.355 70.8947 833.355 65.201C833.355 60.2663 834.619 55.8062 837.146 51.8206C839.767 47.74 843.605 44.561 848.66 42.2835C853.715 39.9111 859.846 38.7249 867.054 38.7249C877.725 38.7249 886.057 41.382 892.048 46.6962C898.132 52.0104 901.783 58.9378 903 67.4785H875.338C874.87 65.2959 873.888 63.6352 872.39 62.4964C870.892 61.2628 868.879 60.6459 866.352 60.6459C864.761 60.6459 863.544 60.9781 862.701 61.6423C861.859 62.2117 861.438 63.1132 861.438 64.3469C861.438 65.9601 862.42 67.1938 864.386 68.0479C866.352 68.807 869.488 69.6136 873.794 70.4677C879.504 71.6065 884.325 72.8876 888.257 74.311C892.188 75.7345 895.605 78.2018 898.507 81.7129C901.409 85.1292 902.86 89.874 902.86 95.9474C902.86 100.692 901.502 104.963 898.788 108.758C896.073 112.554 892.141 115.543 886.993 117.726C881.938 119.909 875.994 121 869.16 121Z" stroke="url(#paint0_linear)" stroke-width="4" mask="url(#path-1-outside-1)"/>
<defs>
<linearGradient id="paint0_linear" x1="15.5" y1="78.5" x2="924.5" y2="75" gradientUnits="userSpaceOnUse">
<stop stop-color="#5228E8"/>
<stop offset="0.542081" stop-color="#78B4FD"/>
<stop offset="1" stop-color="#EBA9FF"/>
</linearGradient>
</defs>
</svg>
