<svg width="15" height="15" viewBox="0 0 15 15" fill="none" xmlns="http://www.w3.org/2000/svg">
<path d="M9.9813 7.28579C10.9447 6.54149 11.5665 5.37532 11.5665 4.06646C11.5665 1.82421 9.74225 0 7.5 0C5.25775 0 3.43354 1.82421 3.43354 4.06646C3.43354 5.37528 4.05525 6.54149 5.0187 7.28579C2.16117 8.28459 0 11.0262 0 14.3671C0 14.7166 0.283354 15 0.632911 15H14.3671C14.7166 15 15 14.7166 15 14.3671C15 11.0253 12.8372 8.28402 9.9813 7.28579ZM4.69937 4.06646C4.69937 2.52218 5.95573 1.26582 7.5 1.26582C9.04427 1.26582 10.3006 2.52218 10.3006 4.06646C10.3006 5.61073 9.04427 6.86709 7.5 6.86709C5.95573 6.86709 4.69937 5.61073 4.69937 4.06646ZM1.29772 13.7342C1.61585 10.5927 4.27604 8.13291 7.5 8.13291C10.724 8.13291 13.3841 10.5927 13.7023 13.7342H1.29772Z" fill="url(#paint0_linear)"/>
<defs>
<linearGradient id="paint0_linear" x1="7.5" y1="0" x2="7.5" y2="15" gradientUnits="userSpaceOnUse">
<stop stop-color="#9806DF"/>
<stop offset="1" stop-color="#36A4FD"/>
</linearGradient>
</defs>
</svg>
