<svg width="640" height="640" viewBox="0 0 640 640" fill="none" xmlns="http://www.w3.org/2000/svg">
<g filter="url(#filter0_d)">
<path d="M290.63 342.976H287.294V330.136L284.342 331.408L283.286 329.032L288.038 326.968H290.63V342.976ZM306.458 327.832C307.546 328.536 308.09 329.616 308.09 331.072C308.09 332.528 307.57 333.576 306.53 334.216C307.458 334.632 308.098 335.144 308.45 335.752C308.818 336.344 309.002 337.128 309.002 338.104C309.002 339.624 308.538 340.824 307.61 341.704C306.698 342.568 305.306 343 303.434 343H298.154V326.968H301.658C302.89 326.968 303.858 327.024 304.562 327.136C305.266 327.232 305.898 327.464 306.458 327.832ZM301.586 329.512V333.184H303.194C304.234 333.104 304.754 332.456 304.754 331.24C304.754 330.344 304.402 329.808 303.698 329.632C303.378 329.552 302.842 329.512 302.09 329.512H301.586ZM303.026 340.264C304.786 340.264 305.666 339.512 305.666 338.008C305.666 337.128 305.41 336.528 304.898 336.208C304.402 335.872 303.682 335.704 302.738 335.704H301.586V340.264H303.026ZM314.422 343H311.062V330.712L314.422 330.424V343ZM310.75 326.752C310.75 326.208 310.942 325.744 311.326 325.36C311.71 324.976 312.174 324.784 312.718 324.784C313.262 324.784 313.726 324.976 314.11 325.36C314.494 325.744 314.686 326.208 314.686 326.752C314.686 327.28 314.494 327.744 314.11 328.144C313.726 328.544 313.262 328.744 312.718 328.744C312.174 328.744 311.71 328.552 311.326 328.168C310.942 327.768 310.75 327.296 310.75 326.752ZM323.208 342.784C322.392 343.136 321.6 343.312 320.832 343.312C320.064 343.312 319.432 343.224 318.936 343.048C318.44 342.872 318.064 342.672 317.808 342.448C317.568 342.224 317.384 341.896 317.256 341.464C317.128 341.032 317.048 340.672 317.016 340.384C317 340.08 316.992 339.664 316.992 339.136V326.2H320.376V339.328C320.376 339.792 320.44 340.12 320.568 340.312C320.712 340.504 320.992 340.6 321.408 340.6C321.824 340.6 322.256 340.544 322.704 340.432L323.208 342.784ZM330.614 342.784C329.798 343.136 329.006 343.312 328.238 343.312C327.47 343.312 326.838 343.224 326.342 343.048C325.846 342.872 325.47 342.672 325.214 342.448C324.974 342.224 324.79 341.896 324.662 341.464C324.534 341.032 324.454 340.672 324.422 340.384C324.406 340.08 324.398 339.664 324.398 339.136V326.2H327.782V339.328C327.782 339.792 327.846 340.12 327.974 340.312C328.118 340.504 328.398 340.6 328.814 340.6C329.23 340.6 329.662 340.544 330.11 340.432L330.614 342.784ZM335.14 343H331.78V330.712L335.14 330.424V343ZM331.468 326.752C331.468 326.208 331.66 325.744 332.044 325.36C332.428 324.976 332.892 324.784 333.436 324.784C333.98 324.784 334.444 324.976 334.828 325.36C335.212 325.744 335.404 326.208 335.404 326.752C335.404 327.28 335.212 327.744 334.828 328.144C334.444 328.544 333.98 328.744 333.436 328.744C332.892 328.744 332.428 328.552 332.044 328.168C331.66 327.768 331.468 327.296 331.468 326.752ZM347.887 336.88C347.887 339.104 347.391 340.736 346.399 341.776C345.407 342.8 344.103 343.312 342.487 343.312C340.871 343.312 339.583 342.8 338.623 341.776C337.679 340.752 337.207 339.128 337.207 336.904C337.207 334.68 337.695 333.056 338.671 332.032C339.663 330.992 340.959 330.472 342.559 330.472C346.111 330.472 347.887 332.608 347.887 336.88ZM344.623 336.856C344.623 335.384 344.447 334.384 344.095 333.856C343.743 333.328 343.223 333.064 342.535 333.064C341.863 333.064 341.343 333.328 340.975 333.856C340.623 334.384 340.447 335.4 340.447 336.904C340.447 339.464 341.143 340.744 342.535 340.744C343.191 340.744 343.703 340.464 344.071 339.904C344.439 339.328 344.623 338.312 344.623 336.856ZM356.976 330.472C358.368 330.472 359.312 330.832 359.808 331.552C360.32 332.256 360.576 333.264 360.576 334.576V343H357.216V335.176C357.216 334.552 357.112 334.072 356.904 333.736C356.712 333.384 356.232 333.208 355.464 333.208C354.696 333.208 354 333.504 353.376 334.096V343H349.944V330.688H352.776L353.064 332.056C353.528 331.624 354.112 331.256 354.816 330.952C355.536 330.632 356.256 330.472 356.976 330.472Z" fill="#27F2FF"/>
</g>
<g filter="url(#filter1_d)">
<path d="M221.238 283.834H217.41V281.304H228.3V283.834H224.406V296H221.238V283.834ZM237.524 290.39C237.524 292.429 237.069 293.925 236.16 294.878C235.251 295.817 234.055 296.286 232.574 296.286C231.093 296.286 229.912 295.817 229.032 294.878C228.167 293.94 227.734 292.451 227.734 290.412C227.734 288.374 228.181 286.885 229.076 285.946C229.985 284.993 231.173 284.516 232.64 284.516C235.896 284.516 237.524 286.474 237.524 290.39ZM234.532 290.368C234.532 289.019 234.371 288.102 234.048 287.618C233.725 287.134 233.249 286.892 232.618 286.892C232.002 286.892 231.525 287.134 231.188 287.618C230.865 288.102 230.704 289.034 230.704 290.412C230.704 292.759 231.342 293.932 232.618 293.932C233.219 293.932 233.689 293.676 234.026 293.162C234.363 292.634 234.532 291.703 234.532 290.368ZM240.361 292.37V286.848L238.381 286.716V284.912L240.427 284.736V282.162L243.507 281.898V284.714H246.719L246.543 286.848H243.485V292.656C243.485 293.082 243.551 293.39 243.683 293.58C243.815 293.756 244.094 293.844 244.519 293.844C244.944 293.844 245.421 293.778 245.949 293.646L246.411 295.824C245.692 296.132 244.959 296.286 244.211 296.286C243.478 296.286 242.92 296.242 242.539 296.154C242.172 296.066 241.864 295.964 241.615 295.846C241.38 295.729 241.175 295.56 240.999 295.34C240.838 295.106 240.713 294.9 240.625 294.724C240.552 294.548 240.493 294.299 240.449 293.976C240.39 293.536 240.361 293.001 240.361 292.37ZM258.276 295.626C257.528 296.037 256.707 296.242 255.812 296.242C254.932 296.242 254.279 295.905 253.854 295.23C253.003 295.934 252.006 296.286 250.862 296.286C249.718 296.286 248.853 296 248.266 295.428C247.679 294.842 247.386 294.05 247.386 293.052C247.386 292.392 247.525 291.828 247.804 291.358C248.083 290.889 248.442 290.544 248.882 290.324C249.689 289.943 250.525 289.752 251.39 289.752C252.27 289.752 252.974 289.774 253.502 289.818V288.74C253.502 287.978 253.348 287.486 253.04 287.266C252.732 287.046 252.204 286.936 251.456 286.936C250.723 286.936 249.894 287.09 248.97 287.398L248.332 285.462C248.875 285.14 249.535 284.898 250.312 284.736C251.104 284.56 251.779 284.472 252.336 284.472C253.832 284.472 254.895 284.795 255.526 285.44C256.171 286.071 256.494 287.156 256.494 288.696V293.316C256.494 293.727 256.677 293.932 257.044 293.932C257.235 293.932 257.506 293.888 257.858 293.8L258.276 295.626ZM251.698 294.24C252.314 294.24 252.915 294.05 253.502 293.668V291.358C253.091 291.329 252.732 291.314 252.424 291.314C250.972 291.314 250.246 291.784 250.246 292.722C250.246 293.734 250.73 294.24 251.698 294.24ZM265.025 295.802C264.277 296.125 263.551 296.286 262.847 296.286C262.143 296.286 261.564 296.206 261.109 296.044C260.654 295.883 260.31 295.7 260.075 295.494C259.855 295.289 259.686 294.988 259.569 294.592C259.452 294.196 259.378 293.866 259.349 293.602C259.334 293.324 259.327 292.942 259.327 292.458V280.6H262.429V292.634C262.429 293.06 262.488 293.36 262.605 293.536C262.737 293.712 262.994 293.8 263.375 293.8C263.756 293.8 264.152 293.749 264.563 293.646L265.025 295.802ZM272.36 290.676C272.39 292.876 273.358 293.976 275.264 293.976C276.159 293.976 277.046 293.808 277.926 293.47L278.454 295.56C277.325 296.044 276.071 296.286 274.692 296.286C271.216 296.286 269.478 294.24 269.478 290.148C269.478 288.535 269.911 287.193 270.776 286.122C271.642 285.052 272.888 284.516 274.516 284.516C275.822 284.516 276.826 284.868 277.53 285.572C278.249 286.262 278.608 287.23 278.608 288.476C278.608 289.21 278.513 289.943 278.322 290.676H272.36ZM276.144 289.004V288.872C276.144 287.42 275.631 286.694 274.604 286.694C273.372 286.694 272.632 287.464 272.382 289.004H276.144ZM285.688 296H282.52V290.192L277.9 281.304H281.112L284.104 287.574L287.096 281.304H290.308L285.688 290.192V296ZM292.405 290.676C292.434 292.876 293.402 293.976 295.309 293.976C296.204 293.976 297.091 293.808 297.971 293.47L298.499 295.56C297.37 296.044 296.116 296.286 294.737 296.286C291.261 296.286 289.523 294.24 289.523 290.148C289.523 288.535 289.956 287.193 290.821 286.122C291.686 285.052 292.933 284.516 294.561 284.516C295.866 284.516 296.871 284.868 297.575 285.572C298.294 286.262 298.653 287.23 298.653 288.476C298.653 289.21 298.558 289.943 298.367 290.676H292.405ZM296.189 289.004V288.872C296.189 287.42 295.676 286.694 294.649 286.694C293.417 286.694 292.676 287.464 292.427 289.004H296.189ZM305.416 292.37V286.848L303.436 286.716V284.912L305.482 284.736V282.162L308.562 281.898V284.714H311.774L311.598 286.848H308.54V292.656C308.54 293.082 308.606 293.39 308.738 293.58C308.87 293.756 309.148 293.844 309.574 293.844C309.999 293.844 310.476 293.778 311.004 293.646L311.466 295.824C310.747 296.132 310.014 296.286 309.266 296.286C308.532 296.286 307.975 296.242 307.594 296.154C307.227 296.066 306.919 295.964 306.67 295.846C306.435 295.729 306.23 295.56 306.054 295.34C305.892 295.106 305.768 294.9 305.68 294.724C305.606 294.548 305.548 294.299 305.504 293.976C305.445 293.536 305.416 293.001 305.416 292.37ZM322.43 290.39C322.43 292.429 321.976 293.925 321.066 294.878C320.157 295.817 318.962 296.286 317.48 296.286C315.999 296.286 314.818 295.817 313.938 294.878C313.073 293.94 312.64 292.451 312.64 290.412C312.64 288.374 313.088 286.885 313.982 285.946C314.892 284.993 316.08 284.516 317.546 284.516C320.802 284.516 322.43 286.474 322.43 290.39ZM319.438 290.368C319.438 289.019 319.277 288.102 318.954 287.618C318.632 287.134 318.155 286.892 317.524 286.892C316.908 286.892 316.432 287.134 316.094 287.618C315.772 288.102 315.61 289.034 315.61 290.412C315.61 292.759 316.248 293.932 317.524 293.932C318.126 293.932 318.595 293.676 318.932 293.162C319.27 292.634 319.438 291.703 319.438 290.368ZM327.397 296H324.317V280.622L327.397 280.402V289.554L331.137 284.736H334.481L330.411 289.818L335.339 296H331.819L327.397 290.258V296ZM338.124 290.676C338.153 292.876 339.121 293.976 341.028 293.976C341.923 293.976 342.81 293.808 343.69 293.47L344.218 295.56C343.089 296.044 341.835 296.286 340.456 296.286C336.98 296.286 335.242 294.24 335.242 290.148C335.242 288.535 335.675 287.193 336.54 286.122C337.405 285.052 338.652 284.516 340.28 284.516C341.585 284.516 342.59 284.868 343.294 285.572C344.013 286.262 344.372 287.23 344.372 288.476C344.372 289.21 344.277 289.943 344.086 290.676H338.124ZM341.908 289.004V288.872C341.908 287.42 341.395 286.694 340.368 286.694C339.136 286.694 338.395 287.464 338.146 289.004H341.908ZM352.698 284.516C353.974 284.516 354.84 284.846 355.294 285.506C355.764 286.152 355.998 287.076 355.998 288.278V296H352.918V288.828C352.918 288.256 352.823 287.816 352.632 287.508C352.456 287.186 352.016 287.024 351.312 287.024C350.608 287.024 349.97 287.296 349.398 287.838V296H346.252V284.714H348.848L349.112 285.968C349.538 285.572 350.073 285.235 350.718 284.956C351.378 284.663 352.038 284.516 352.698 284.516ZM366.392 286.892C365.395 286.892 364.896 287.222 364.896 287.882C364.896 288.234 365.065 288.535 365.402 288.784C365.739 289.034 366.143 289.254 366.612 289.444C367.096 289.62 367.573 289.826 368.042 290.06C368.526 290.28 368.937 290.603 369.274 291.028C369.611 291.454 369.78 291.974 369.78 292.59C369.78 293.69 369.406 294.585 368.658 295.274C367.91 295.949 366.81 296.286 365.358 296.286C364.698 296.286 364.001 296.213 363.268 296.066C362.549 295.92 362.021 295.751 361.684 295.56L362.432 293.36C363.576 293.742 364.603 293.932 365.512 293.932C366.436 293.932 366.898 293.573 366.898 292.854C366.898 292.546 366.729 292.268 366.392 292.018C366.055 291.769 365.644 291.542 365.16 291.336C364.691 291.116 364.214 290.882 363.73 290.632C363.261 290.383 362.857 290.031 362.52 289.576C362.183 289.122 362.014 288.594 362.014 287.992C362.014 286.863 362.388 285.998 363.136 285.396C363.884 284.795 364.955 284.494 366.348 284.494C367.741 284.494 368.834 284.722 369.626 285.176L368.9 287.354C367.888 287.046 367.052 286.892 366.392 286.892ZM378.381 294.966C377.251 295.846 376.049 296.286 374.773 296.286C373.511 296.286 372.646 295.964 372.177 295.318C371.722 294.658 371.495 293.727 371.495 292.524V284.714H374.575V291.974C374.575 292.561 374.663 293.008 374.839 293.316C375.015 293.624 375.447 293.778 376.137 293.778C376.841 293.778 377.493 293.551 378.095 293.096V284.714H381.175V296.286H378.645L378.381 294.966ZM389.292 284.516C390.656 284.516 391.69 285.022 392.394 286.034C393.098 287.046 393.45 288.418 393.45 290.148C393.45 294.24 391.771 296.286 388.412 296.286C387.855 296.286 387.246 296.154 386.586 295.89V300.334L383.506 300.686V284.714H386.146L386.41 285.616C387.349 284.883 388.309 284.516 389.292 284.516ZM387.906 293.8C389.578 293.8 390.414 292.612 390.414 290.236C390.414 288.095 389.717 287.024 388.324 287.024C387.767 287.024 387.187 287.208 386.586 287.574V293.646C386.997 293.749 387.437 293.8 387.906 293.8ZM401.13 284.516C402.494 284.516 403.528 285.022 404.232 286.034C404.936 287.046 405.288 288.418 405.288 290.148C405.288 294.24 403.609 296.286 400.25 296.286C399.693 296.286 399.084 296.154 398.424 295.89V300.334L395.344 300.686V284.714H397.984L398.248 285.616C399.187 284.883 400.147 284.516 401.13 284.516ZM399.744 293.8C401.416 293.8 402.252 292.612 402.252 290.236C402.252 288.095 401.555 287.024 400.162 287.024C399.605 287.024 399.025 287.208 398.424 287.574V293.646C398.835 293.749 399.275 293.8 399.744 293.8ZM412.902 295.802C412.154 296.125 411.428 296.286 410.724 296.286C410.02 296.286 409.441 296.206 408.986 296.044C408.531 295.883 408.187 295.7 407.952 295.494C407.732 295.289 407.563 294.988 407.446 294.592C407.329 294.196 407.255 293.866 407.226 293.602C407.211 293.324 407.204 292.942 407.204 292.458V280.6H410.306V292.634C410.306 293.06 410.365 293.36 410.482 293.536C410.614 293.712 410.871 293.8 411.252 293.8C411.633 293.8 412.029 293.749 412.44 293.646L412.902 295.802ZM414.138 300.686C413.478 300.686 412.708 300.554 411.828 300.29L412.29 298.156C412.29 298.171 412.51 298.208 412.95 298.266C413.39 298.34 413.676 298.376 413.808 298.376C414.629 298.376 415.209 298.222 415.546 297.914C415.898 297.621 416.213 296.888 416.492 295.714L412.378 285L415.304 284.626L417.834 292.414L420.078 284.714H423.048L419.484 295.076C418.721 297.276 417.995 298.758 417.306 299.52C416.631 300.298 415.575 300.686 414.138 300.686Z" fill="#27F2FF"/>
</g>
<path d="M296.208 367.8C293.528 371.214 292.188 374.52 292.188 377.72C292.188 379.72 292.681 381.76 293.668 383.84L292.208 384.7C290.955 382.367 290.328 380.054 290.328 377.76C290.328 374.214 291.895 370.607 295.028 366.94L296.208 367.8ZM305.329 370.26H299.809L299.169 374.32H304.329L304.089 375.92H298.929L297.969 382H296.049L298.149 368.64H305.589L305.329 370.26ZM309.913 368.64L307.813 382H305.893L307.993 368.64H309.913ZM320.511 382H318.191L315.891 376.64L311.911 382H309.731L315.011 375.2L312.051 368.64H314.211L316.371 373.68L320.171 368.64H322.371L317.291 375.08L320.511 382ZM324.576 380.38H330.256L330.016 382H322.416L324.516 368.64H331.936L331.676 370.26H326.176L325.536 374.3H330.716L330.476 375.88H325.296L324.576 380.38ZM336.451 380.38C338.025 380.38 339.158 379.974 339.851 379.16C340.545 378.347 341.025 377.067 341.291 375.32C341.398 374.64 341.451 373.96 341.451 373.28C341.451 372.587 341.325 371.987 341.071 371.48C340.631 370.667 339.625 370.26 338.051 370.26H336.391L334.791 380.38H336.451ZM336.071 382H332.631L334.731 368.64H338.171C339.878 368.64 341.038 368.82 341.651 369.18C342.838 369.847 343.431 371.174 343.431 373.16C343.431 373.814 343.365 374.54 343.231 375.34C342.725 378.554 341.551 380.6 339.711 381.48C339.005 381.827 337.791 382 336.071 382ZM342.95 383.84C345.63 380.4 346.97 377.087 346.97 373.9C346.97 371.94 346.477 369.907 345.49 367.8L346.95 366.94C348.177 369.26 348.79 371.554 348.79 373.82C348.79 374.487 348.737 375.154 348.63 375.82C348.177 378.754 346.677 381.714 344.13 384.7L342.95 383.84Z" fill="#27F2FF"/>
<path d="M560.204 319.475C560.081 260.979 538.617 204.537 499.84 160.74C461.063 116.943 407.638 88.7994 349.587 81.5902L338.253 172.854C374.08 177.303 407.053 194.672 430.985 221.703C454.917 248.733 468.163 283.567 468.24 319.669L560.204 319.475Z" fill="#FDA4FF"/>
<path d="M548.602 393.733C556.341 369.742 560.256 344.683 560.203 319.475L468.239 319.669C468.272 335.227 465.855 350.692 461.079 365.498L548.602 393.733Z" fill="#27F2FF"/>
<path d="M537.292 422.368C541.672 413.073 545.45 403.506 548.605 393.726L461.081 365.495C459.134 371.53 456.802 377.435 454.099 383.171L537.292 422.368Z" fill="#00FF34"/>
<path d="M217.054 537.036C245.62 550.582 276.579 558.356 308.155 559.912C339.732 561.469 371.306 556.777 401.065 546.105C430.825 535.434 458.186 518.994 481.578 497.726C504.971 476.459 523.935 450.783 537.384 422.171L454.156 383.05C445.856 400.708 434.151 416.554 419.714 429.68C405.277 442.805 388.391 452.952 370.024 459.538C351.657 466.124 332.171 469.02 312.683 468.059C293.195 467.099 274.088 462.301 256.458 453.94L217.054 537.036Z" fill="#BE7CDE"/>
<path d="M102.924 217.056C89.4078 245.56 81.6382 276.447 80.0588 307.954C78.4795 339.461 83.1214 370.971 93.7194 400.684C104.317 430.397 120.664 457.731 141.826 481.127C162.988 504.522 188.551 523.521 217.055 537.037L256.458 453.941C238.866 445.599 223.09 433.874 210.029 419.435C196.968 404.996 186.88 388.126 180.339 369.788C173.798 351.45 170.933 332.004 171.908 312.558C172.883 293.113 177.678 274.051 186.02 256.459L102.924 217.056Z" fill="#FF9494"/>
<path d="M349.71 81.6058C299.37 75.3275 248.335 85.147 203.918 109.657C159.502 134.167 123.985 172.109 102.459 218.045L185.733 257.069C199.018 228.719 220.938 205.302 248.351 190.176C275.763 175.049 307.26 168.989 338.329 172.863L349.71 81.6058Z" fill="#FFA653"/>
<g filter="url(#filter2_d)">
<circle cx="319.963" cy="320" r="248" stroke="#27F2FF" stroke-width="2" shape-rendering="crispEdges"/>
</g>
<g filter="url(#filter3_d)">
<circle cx="319.963" cy="320" r="136" stroke="#27F2FF" stroke-width="2" shape-rendering="crispEdges"/>
</g>
<defs>
<filter id="filter0_d" x="279.285" y="320.785" width="85.2907" height="26.528" filterUnits="userSpaceOnUse" color-interpolation-filters="sRGB">
<feFlood flood-opacity="0" result="BackgroundImageFix"/>
<feColorMatrix in="SourceAlpha" type="matrix" values="0 0 0 0 0 0 0 0 0 0 0 0 0 0 0 0 0 0 127 0" result="hardAlpha"/>
<feOffset/>
<feGaussianBlur stdDeviation="2"/>
<feComposite in2="hardAlpha" operator="out"/>
<feColorMatrix type="matrix" values="0 0 0 0 1 0 0 0 0 1 0 0 0 0 1 0 0 0 0.25 0"/>
<feBlend mode="normal" in2="BackgroundImageFix" result="effect1_dropShadow"/>
<feBlend mode="normal" in="SourceGraphic" in2="effect1_dropShadow" result="shape"/>
</filter>
<filter id="filter1_d" x="213.41" y="276.402" width="213.638" height="28.284" filterUnits="userSpaceOnUse" color-interpolation-filters="sRGB">
<feFlood flood-opacity="0" result="BackgroundImageFix"/>
<feColorMatrix in="SourceAlpha" type="matrix" values="0 0 0 0 0 0 0 0 0 0 0 0 0 0 0 0 0 0 127 0" result="hardAlpha"/>
<feOffset/>
<feGaussianBlur stdDeviation="2"/>
<feComposite in2="hardAlpha" operator="out"/>
<feColorMatrix type="matrix" values="0 0 0 0 1 0 0 0 0 1 0 0 0 0 1 0 0 0 0.45 0"/>
<feBlend mode="normal" in2="BackgroundImageFix" result="effect1_dropShadow"/>
<feBlend mode="normal" in="SourceGraphic" in2="effect1_dropShadow" result="shape"/>
</filter>
<filter id="filter2_d" x="51.9629" y="52" width="536" height="536" filterUnits="userSpaceOnUse" color-interpolation-filters="sRGB">
<feFlood flood-opacity="0" result="BackgroundImageFix"/>
<feColorMatrix in="SourceAlpha" type="matrix" values="0 0 0 0 0 0 0 0 0 0 0 0 0 0 0 0 0 0 127 0" result="hardAlpha"/>
<feOffset/>
<feGaussianBlur stdDeviation="9.5"/>
<feComposite in2="hardAlpha" operator="out"/>
<feColorMatrix type="matrix" values="0 0 0 0 0.101667 0 0 0 0 1 0 0 0 0 0.8922 0 0 0 1 0"/>
<feBlend mode="normal" in2="BackgroundImageFix" result="effect1_dropShadow"/>
<feBlend mode="normal" in="SourceGraphic" in2="effect1_dropShadow" result="shape"/>
</filter>
<filter id="filter3_d" x="163.963" y="164" width="312" height="312" filterUnits="userSpaceOnUse" color-interpolation-filters="sRGB">
<feFlood flood-opacity="0" result="BackgroundImageFix"/>
<feColorMatrix in="SourceAlpha" type="matrix" values="0 0 0 0 0 0 0 0 0 0 0 0 0 0 0 0 0 0 127 0" result="hardAlpha"/>
<feOffset/>
<feGaussianBlur stdDeviation="9.5"/>
<feComposite in2="hardAlpha" operator="out"/>
<feColorMatrix type="matrix" values="0 0 0 0 0.101667 0 0 0 0 1 0 0 0 0 0.8922 0 0 0 1 0"/>
<feBlend mode="normal" in2="BackgroundImageFix" result="effect1_dropShadow"/>
<feBlend mode="normal" in="SourceGraphic" in2="effect1_dropShadow" result="shape"/>
</filter>
</defs>
</svg>
